<mxfile host="app.diagrams.net" agent="Mozilla/5.0 (X11; Linux x86_64; rv:129.0) Gecko/20100101 Firefox/129.0" version="26.1.1" pages="3">
  <diagram name="Full DS" id="7uXYpK4mZ98yh_pQGzSL">
    <mxGraphModel dx="5790" dy="3313" grid="0" gridSize="10" guides="1" tooltips="1" connect="1" arrows="1" fold="1" page="0" pageScale="1" pageWidth="4681" pageHeight="3300" math="0" shadow="0">
      <root>
        <mxCell id="0" />
        <mxCell id="1" parent="0" />
        <mxCell id="FTfIXSgOv3IFhvUN12KH-8" style="edgeStyle=none;curved=1;rounded=0;orthogonalLoop=1;jettySize=auto;html=1;entryX=0;entryY=0.5;entryDx=0;entryDy=0;fontSize=12;startSize=8;endSize=8;" edge="1" parent="1" source="FTfIXSgOv3IFhvUN12KH-2" target="FTfIXSgOv3IFhvUN12KH-3">
          <mxGeometry relative="1" as="geometry" />
        </mxCell>
        <mxCell id="FTfIXSgOv3IFhvUN12KH-9" value="&lt;div&gt;DÃ©pot&lt;/div&gt;" style="edgeLabel;html=1;align=center;verticalAlign=middle;resizable=0;points=[];fontSize=12;" vertex="1" connectable="0" parent="FTfIXSgOv3IFhvUN12KH-8">
          <mxGeometry x="-0.3228" y="-1" relative="1" as="geometry">
            <mxPoint x="21" y="-3" as="offset" />
          </mxGeometry>
        </mxCell>
        <mxCell id="FTfIXSgOv3IFhvUN12KH-2" value="Front" style="rounded=1;whiteSpace=wrap;html=1;" vertex="1" parent="1">
          <mxGeometry x="-401" y="-136" width="120" height="60" as="geometry" />
        </mxCell>
        <mxCell id="FTfIXSgOv3IFhvUN12KH-10" value="" style="edgeStyle=none;curved=1;rounded=0;orthogonalLoop=1;jettySize=auto;html=1;fontSize=12;startSize=8;endSize=8;" edge="1" parent="1" source="FTfIXSgOv3IFhvUN12KH-3" target="FTfIXSgOv3IFhvUN12KH-5">
          <mxGeometry relative="1" as="geometry" />
        </mxCell>
        <mxCell id="FTfIXSgOv3IFhvUN12KH-3" value="" style="strokeColor=#dddddd;shadow=1;strokeWidth=1;rounded=1;absoluteArcSize=1;arcSize=2;" vertex="1" parent="1">
          <mxGeometry x="-154" y="-136" width="171" height="60" as="geometry" />
        </mxCell>
        <mxCell id="FTfIXSgOv3IFhvUN12KH-4" value="&lt;font color=&quot;#000000&quot;&gt;match_id.mp4&lt;/font&gt;&lt;br&gt;video-to-pipeline" style="editableCssRules=.*;html=1;fontColor=#999999;shape=image;verticalLabelPosition=middle;verticalAlign=middle;labelPosition=right;align=left;spacingLeft=20;part=1;points=[];imageAspect=0;image=data:image/svg+xml,PHN2ZyB4bWxucz0iaHR0cDovL3d3dy53My5vcmcvMjAwMC9zdmciIHhtbG5zOnY9Imh0dHBzOi8vdmVjdGEuaW8vbmFubyIgd2lkdGg9IjIwIiBoZWlnaHQ9IjE2IiB2aWV3Qm94PSIwIDAgMjAgMTYiPiYjeGE7CTxzdHlsZSB0eXBlPSJ0ZXh0L2NzcyI+JiN4YTsJLnN0MHtmaWxsOiM0Mjg1ZjQ7fSYjeGE7CS5zdDF7ZmlsbDojNjY5ZGY2O30mI3hhOwkuc3Qye2ZpbGw6I2FlY2JmYTt9JiN4YTsJLnN0M3tmaWxsOiNmZmY7fSYjeGE7CTwvc3R5bGU+JiN4YTsJPHBhdGggY2xhc3M9InN0MiIgZD0iTTAgMGgyMHY3SDB6Ii8+JiN4YTsJPHBhdGggY2xhc3M9InN0MSIgZD0iTTE4IDBoMnY3aC0yeiIvPiYjeGE7CTxwYXRoIGNsYXNzPSJzdDAiIGQ9Ik0xOCA3bDItN2gtMnoiLz4mI3hhOwk8cGF0aCBjbGFzcz0ic3QxIiBkPSJNMCAwaDJ2N0gweiIvPiYjeGE7CTxnIGNsYXNzPSJzdDMiPiYjeGE7CQk8cGF0aCBkPSJNNCAzaDZ2MUg0eiIvPiYjeGE7CQk8cmVjdCB4PSIxMyIgeT0iMiIgd2lkdGg9IjMiIGhlaWdodD0iMyIgcng9IjEuNSIvPiYjeGE7CTwvZz4mI3hhOwk8cGF0aCBjbGFzcz0ic3QyIiBkPSJNMCA5aDIwdjdIMHoiLz4mI3hhOwk8cGF0aCBjbGFzcz0ic3QxIiBkPSJNMTggOWgydjdoLTJ6Ii8+JiN4YTsJPHBhdGggY2xhc3M9InN0MCIgZD0iTTE4IDE2bDItN2gtMnoiLz4mI3hhOwk8cGF0aCBjbGFzcz0ic3QxIiBkPSJNMCA5aDJ2N0gweiIvPiYjeGE7CTxnIGNsYXNzPSJzdDMiPiYjeGE7CQk8cGF0aCBkPSJNNCAxMmg2djFINHoiLz4mI3hhOwkJPHJlY3QgeD0iMTMiIHk9IjExIiB3aWR0aD0iMyIgaGVpZ2h0PSIzIiByeD0iMS41Ii8+JiN4YTsJPC9nPiYjeGE7PC9zdmc+;" vertex="1" parent="FTfIXSgOv3IFhvUN12KH-3">
          <mxGeometry width="30" height="24" relative="1" as="geometry">
            <mxPoint x="15" y="18" as="offset" />
          </mxGeometry>
        </mxCell>
        <mxCell id="FTfIXSgOv3IFhvUN12KH-13" value="" style="edgeStyle=none;curved=1;rounded=0;orthogonalLoop=1;jettySize=auto;html=1;fontSize=12;startSize=8;endSize=8;entryX=0;entryY=0.5;entryDx=0;entryDy=0;" edge="1" parent="1" source="FTfIXSgOv3IFhvUN12KH-5" target="FTfIXSgOv3IFhvUN12KH-11">
          <mxGeometry relative="1" as="geometry">
            <mxPoint x="199" y="-95" as="targetPoint" />
          </mxGeometry>
        </mxCell>
        <mxCell id="FTfIXSgOv3IFhvUN12KH-21" value="&lt;div align=&quot;left&quot;&gt;&lt;b&gt;in&lt;/b&gt; :&lt;/div&gt;&lt;div align=&quot;left&quot;&gt;video&lt;br&gt;&lt;/div&gt;" style="edgeLabel;html=1;align=left;verticalAlign=middle;resizable=0;points=[];fontSize=12;" vertex="1" connectable="0" parent="FTfIXSgOv3IFhvUN12KH-13">
          <mxGeometry x="0.2564" y="1" relative="1" as="geometry">
            <mxPoint x="-16" y="1" as="offset" />
          </mxGeometry>
        </mxCell>
        <mxCell id="FTfIXSgOv3IFhvUN12KH-5" value="Eventarc" style="sketch=0;html=1;verticalAlign=top;labelPosition=center;verticalLabelPosition=bottom;align=center;spacingTop=-6;fontSize=11;fontStyle=1;fontColor=#999999;shape=image;aspect=fixed;imageAspect=0;image=data:image/svg+xml,PHN2ZyB4bWxucz0iaHR0cDovL3d3dy53My5vcmcvMjAwMC9zdmciIGlkPSJzdmc4MzgiIHZlcnNpb249IjEuMSIgdmlld0JveD0iMCAwIDE2NC4zNDc1OCAxNjQuMzQ3NiIgaGVpZ2h0PSIxNjQuMzQ3Nm1tIiB3aWR0aD0iMTY0LjM0NzU4bW0iPiYjeGE7ICA8cGF0aCBkPSJtIDEyMy43NzczOCwzMy41NDQ5NDIgLTg5LjgwODYwMSw4OS4zMjYxNjggOC4xMDkzNzUsOC4xNTQzIDg5LjgwODU5NiwtODkuMzI2MTY3IHogTSAxNC41MDgxOTcsMzUuNTkxNzMzIEMgNS4zNjEyNTIsNDguODM4NjEzIDAsNjQuODkxMTUzIDAsODIuMTczNzkzIGMgMWUtNiw5LjI1NTM0IDEuNTYwNDAxLDE4LjE0NzQzNyA0LjM5MzUzLDI2LjQ1NTIyNyAzLjA2OTg2MywtMi40MzY5NiA2LjUxMjg4MywtNC4zNjI1NSAxMC4xOTYyNzcsLTUuNzAyNDkgLTIuMDA0OTk2LC02LjU2MDIwNyAtMy4wODk3MzIsLTEzLjUyNjU2NyAtMy4wODk3MzIsLTIwLjc1MjczNyAwLC0xNC45NzI0NyA0LjYyOTY1LC0yOC44NDEyNyAxMi41Mzg3NywtNDAuMjU2MjEgeiBNIDQxLjUwNzc0NSwyNC4zMjQ5NjYgYyAxMS40OTIxMTEsLTguMDgzNDczIDI1LjUxMzkxOSwtMTIuODI0ODk0IDQwLjY2NjA1MSwtMTIuODI0ODk0IDcuMjIxOTksMCAxNC4xODYwMSwxLjA3OTcyMiAyMC43NDI5MjQsMy4wODI0OTkgMS4zOTExMSwtMy42ODE2MDggMy4zNjk2LC03LjExMzQ3NCA1Ljg1ODU1LC0xMC4xNjIxNyBDIDEwMC40MjgzMywxLjU1NzMzMiA5MS40ODAwOTYsMCA4Mi4xNzM3OTYsMCA2NC42NzY0MzcsMCA0OC40Mzk5NCw1LjQ5NTI5MiAzNS4wOTkzMiwxNC44NTA4NjEgWiBNIDEyMi43OTAzNiwxNDAuMDU3NCBjIC0xMS40ODI4Niw4LjA2MjMgLTI1LjQ4NjE3NCwxMi43OTAxMiAtNDAuNjE2NTY0LDEyLjc5MDExIC03LjI4NTE4OSwwIC0xNC4zMDc5NSwtMS4wOTg1OCAtMjAuOTE1MDAzLC0zLjEzNTIxIC0xLjM0OTc5LDMuNjc4NzYgLTMuMjg0MjYyLDcuMTE1NjUgLTUuNzI4ODUxLDEwLjE3ODE5IDguMzYxNTE2LDIuODc0MjYgMTcuMzE4NTU5LDQuNDU3MDkgMjYuNjQzODU0LDQuNDU3MSAxNy40OTQ3OSwwIDMzLjcyOTA5NCwtNS40OTM2OCA0Ny4wNjg2MDQsLTE0Ljg0Njc0IHogbSAyNy4xMzQyMiwtMTEuNDI1MTUgYyA5LjA5NTAzLC0xMy4yMjMwNyAxNC40MjMwMSwtMjkuMjI5NTI3IDE0LjQyMzAxLC00Ni40NTg0NTcgMCwtOS4yNTU0MSAtMS41MzkxNywtMTguMTU3MiAtNC4zNzIzNCwtMjYuNDY1MDUgLTMuMDUxMzIsMi40ODkxOCAtNi40ODYwMiw0LjQ2NzE3IC0xMC4xNzA0NCw1Ljg1NzAxIDEuOTc2NTMsNi41MTc2NSAzLjA0MjcxLDEzLjQzNTM4IDMuMDQyNzEsMjAuNjA4MDQgMCwxNS4wODgxNCAtNC43MDE0NSwyOS4wNTU0NzcgLTEyLjcyMjY0LDQwLjUyMDI5NyB6IiBzdHlsZT0iY29sb3I6IzAwMDAwMDtvcGFjaXR5OjE7ZmlsbDojNDI4NWY0O2ZpbGwtb3BhY2l0eToxOy1pbmtzY2FwZS1zdHJva2U6bm9uZSIvPiYjeGE7ICA8cGF0aCBkPSJNIDEwNi4wMDc4LDgyLjY0Njc2MyBBIDIzLjc1ODk3NiwyMy43NTg5NzYgMCAwIDEgODIuMjQ4ODE2LDEwNi40MDU3NCAyMy43NTg5NzYsMjMuNzU4OTc2IDAgMCAxIDU4LjQ4OTg0LDgyLjY0Njc2MyAyMy43NTg5NzYsMjMuNzU4OTc2IDAgMCAxIDgyLjI0ODgxNiw1OC44ODc3ODMgMjMuNzU4OTc2LDIzLjc1ODk3NiAwIDAgMSAxMDYuMDA3OCw4Mi42NDY3NjMgWiIgc3R5bGU9ImNvbG9yOiMwMDAwMDA7b3BhY2l0eToxO2ZpbGw6IzY2OWRmNjtmaWxsLW9wYWNpdHk6MTtzdHJva2Utd2lkdGg6MTEuNTtzdHJva2UtbGluZWNhcDpyb3VuZDstaW5rc2NhcGUtc3Ryb2tlOm5vbmUiLz4mI3hhOyAgPHBhdGggZD0ibSAxMzYuODc4OTQsMTE3LjEzNDc4IGMgLTExLjA1Nzc1LDAgLTIwLjE0NDU0LDkuMDg4NzQgLTIwLjE0NDUzLDIwLjE0NjQ5IDAsMTEuMDU3NzQgOS4wODY3OSwyMC4xNDQ1MyAyMC4xNDQ1MywyMC4xNDQ1MyAxMS4wNTc3MywwIDIwLjE0NjQ4LC05LjA4NjggMjAuMTQ2NDgsLTIwLjE0NDUzIDFlLTUsLTExLjA1Nzc0IC05LjA4ODc0LC0yMC4xNDY0OCAtMjAuMTQ2NDgsLTIwLjE0NjQ5IHogbSAwLDExLjUgYyA0Ljg0MjY4LDAgOC42NDY0OSwzLjgwMzggOC42NDY0OCw4LjY0NjQ5IDAsNC44NDI2OCAtMy44MDM4LDguNjQ0NTMgLTguNjQ2NDgsOC42NDQ1MyAtNC44NDI2OCwwIC04LjY0NDUzLC0zLjgwMTg1IC04LjY0NDUzLC04LjY0NDUzIDAsLTQuODQyNjkgMy44MDE4NCwtOC42NDY0OSA4LjY0NDUzLC04LjY0NjQ5IHogTSAyNy4wOTU3MzIsMTE2Ljk3NDYzIGMgLTExLjA1NzczNiwwIC0yMC4xNDQ1MjgsOS4wODY3OSAtMjAuMTQ0NTMxLDIwLjE0NDUzIC01ZS02LDExLjA1Nzc0IDkuMDg2NzksMjAuMTQ2NDggMjAuMTQ0NTMxLDIwLjE0NjQ4IDExLjA1Nzc0MiwwIDIwLjE0NjQ4OSwtOS4wODg3NCAyMC4xNDY0ODUsLTIwLjE0NjQ4IC0zZS02LC0xMS4wNTc3NCAtOS4wODg3NDgsLTIwLjE0NDUzIC0yMC4xNDY0ODUsLTIwLjE0NDUzIHogbSAwLDExLjUgYyA0Ljg0MjY4MiwwIDguNjQ2NDgzLDMuODAxODUgOC42NDY0ODUsOC42NDQ1MyAyZS02LDQuODQyNjggLTMuODAzOCw4LjY0NjQ4IC04LjY0NjQ4NSw4LjY0NjQ4IC00Ljg0MjY4NCwwIC04LjY0NDUzMywtMy44MDM4IC04LjY0NDUzMSwtOC42NDY0OCAxMGUtNywtNC44NDI2OCAzLjgwMTg0OSwtOC42NDQ1MyA4LjY0NDUzMSwtOC42NDQ1MyB6IE0gMTM2Ljk0MTQ0LDcuMzQzNzcgYyAtMTEuMDU3NzQsM2UtNiAtMjAuMTQ2NDksOS4wODY3OTUgLTIwLjE0NjQ5LDIwLjE0NDUzMSAwLDExLjA1Nzc0MiA5LjA4ODc1LDIwLjE0NjQ4MiAyMC4xNDY0OSwyMC4xNDY0ODIgMTEuMDU3NzQsMWUtNSAyMC4xNDQ1MywtOS4wODg3NCAyMC4xNDQ1MywtMjAuMTQ2NDgyIDAsLTExLjA1Nzc0MSAtOS4wODY3OSwtMjAuMTQ0NTM2IC0yMC4xNDQ1MywtMjAuMTQ0NTMxIHogbSAwLDExLjUgYyA0Ljg0MjY4LC0yZS02IDguNjQ0NTMsMy44MDE4NDcgOC42NDQ1Myw4LjY0NDUzMSAwLDQuODQyNjg1IC0zLjgwMTg1LDguNjQ2NDgyIC04LjY0NDUzLDguNjQ2NDgyIC00Ljg0MjY4LDAgLTguNjQ2NDksLTMuODAzNzk5IC04LjY0NjQ5LC04LjY0NjQ4MiAwLC00Ljg0MjY4MiAzLjgwMzgxLC04LjY0NDUzIDguNjQ2NDksLTguNjQ0NTMxIHogTSAyNy4wODk4NzMsNy40Mzc1MiBjIC0xMS4wNTc3MzksLTFlLTYgLTIwLjE0NDUzMSw5LjA4Njc5MiAtMjAuMTQ0NTMxLDIwLjE0NDUzMSAyZS02LDExLjA1Nzc0MiA5LjA4Njc5NCwyMC4xNDQ1MzIgMjAuMTQ0NTMxLDIwLjE0NDUzMiAxMS4wNTc3MzYsMCAyMC4xNDY0ODIsLTkuMDg2OCAyMC4xNDY0ODQsLTIwLjE0NDUzMiAwLC0xMS4wNTc3MzggLTkuMDg4NzQ2LC0yMC4xNDQ1MzEgLTIwLjE0NjQ4NCwtMjAuMTQ0NTMxIHogbSAwLDExLjUgYyA0Ljg0MjY4MywwIDguNjQ2NDg0LDMuODAxODQ4IDguNjQ2NDg0LDguNjQ0NTMxIC0xMGUtNyw0Ljg0MjY4MiAtMy44MDM4MDIsOC42NDQ1MzIgLTguNjQ2NDg0LDguNjQ0NTMyIC00Ljg0MjY4MywwIC04LjY0NDUzLC0zLjgwMTg0OSAtOC42NDQ1MzEsLTguNjQ0NTMyIDAsLTQuODQyNjgzIDMuODAxODQ4LC04LjY0NDUzMSA4LjY0NDUzMSwtOC42NDQ1MzEgeiIgc3R5bGU9ImNvbG9yOiMwMDAwMDA7b3BhY2l0eToxO2ZpbGw6I2FlY2JmYTtmaWxsLW9wYWNpdHk6MTtzdHJva2UtbGluZWNhcDpyb3VuZDstaW5rc2NhcGUtc3Ryb2tlOm5vbmUiLz4mI3hhOzwvc3ZnPg==;" vertex="1" parent="1">
          <mxGeometry x="99" y="-127" width="42" height="42" as="geometry" />
        </mxCell>
        <mxCell id="FTfIXSgOv3IFhvUN12KH-17" style="edgeStyle=none;curved=1;rounded=0;orthogonalLoop=1;jettySize=auto;html=1;entryX=0;entryY=0.5;entryDx=0;entryDy=0;fontSize=12;startSize=8;endSize=8;" edge="1" parent="1" source="FTfIXSgOv3IFhvUN12KH-11" target="FTfIXSgOv3IFhvUN12KH-14">
          <mxGeometry relative="1" as="geometry" />
        </mxCell>
        <mxCell id="FTfIXSgOv3IFhvUN12KH-22" value="&lt;div align=&quot;left&quot;&gt;&lt;b&gt;out&lt;/b&gt; :&lt;/div&gt;&lt;div align=&quot;left&quot;&gt;csv&lt;br&gt;&lt;/div&gt;" style="edgeLabel;html=1;align=left;verticalAlign=middle;resizable=0;points=[];fontSize=12;" vertex="1" connectable="0" parent="FTfIXSgOv3IFhvUN12KH-17">
          <mxGeometry x="-0.6411" y="-2" relative="1" as="geometry">
            <mxPoint x="-6" as="offset" />
          </mxGeometry>
        </mxCell>
        <mxCell id="FTfIXSgOv3IFhvUN12KH-11" value="" style="strokeColor=#dddddd;shadow=1;strokeWidth=1;rounded=1;absoluteArcSize=1;arcSize=2;" vertex="1" parent="1">
          <mxGeometry x="243" y="-136" width="130" height="60" as="geometry" />
        </mxCell>
        <mxCell id="FTfIXSgOv3IFhvUN12KH-12" value="&lt;font color=&quot;#000000&quot;&gt;API CV&lt;/font&gt;&lt;br&gt;Cloud Run" style="editableCssRules=.*;html=1;fontColor=#999999;shape=image;verticalLabelPosition=middle;verticalAlign=middle;labelPosition=right;align=left;spacingLeft=20;part=1;points=[];imageAspect=0;image=data:image/svg+xml,PHN2ZyB4bWxucz0iaHR0cDovL3d3dy53My5vcmcvMjAwMC9zdmciIHhtbG5zOnY9Imh0dHBzOi8vdmVjdGEuaW8vbmFubyIgd2lkdGg9IjM2NS40NjQ5OTY3NzA0MjQ5MyIgaGVpZ2h0PSIzNzkuMjIyOTk0NDYzNTc3OTUiIHZpZXdCb3g9IjAgMCA5Ni42OTU5OTkxNDU1MDc4MSAxMDAuMzM1OTk4NTM1MTU2MjUiPiYjeGE7PHN0eWxlIHR5cGU9InRleHQvY3NzIj4mI3hhOwkuc3Qwe2ZpbGw6IzQyODVmNDt9JiN4YTsJLnN0MXtmaWxsOiNhZWNiZmE7fSYjeGE7PC9zdHlsZT4mI3hhOwk8cGF0aCBjbGFzcz0ic3QwIiBkPSJNMjkuNzk0IDEwMC4zMzZMNDYuOTIgNTAuMTY4aDQ5Ljc3NnpNMCA5OS42NzFsMTIuOTc2LTQ5LjUwMkgyOS4yMkwxNi44OTcgOTIuMDU0eiIvPiYjeGE7CTxwYXRoIGNsYXNzPSJzdDEiIGQ9Ik0yOS43OTQgMEw0Ni45MiA1MC4xNjhoNDkuNzc2ek0wIC42NjZsMTIuOTc2IDQ5LjUwMkgyOS4yMkwxNi44OTcgOC4yODN6Ii8+JiN4YTs8L3N2Zz4=;" vertex="1" parent="FTfIXSgOv3IFhvUN12KH-11">
          <mxGeometry width="30" height="30" relative="1" as="geometry">
            <mxPoint x="15" y="15" as="offset" />
          </mxGeometry>
        </mxCell>
        <mxCell id="FTfIXSgOv3IFhvUN12KH-23" style="edgeStyle=none;curved=1;rounded=0;orthogonalLoop=1;jettySize=auto;html=1;exitX=0.5;exitY=1;exitDx=0;exitDy=0;fontSize=12;startSize=8;endSize=8;" edge="1" parent="1" source="FTfIXSgOv3IFhvUN12KH-45" target="FTfIXSgOv3IFhvUN12KH-19">
          <mxGeometry relative="1" as="geometry" />
        </mxCell>
        <mxCell id="FTfIXSgOv3IFhvUN12KH-24" value="&lt;b&gt;in&lt;/b&gt; : csv" style="edgeLabel;html=1;align=center;verticalAlign=middle;resizable=0;points=[];fontSize=12;" vertex="1" connectable="0" parent="FTfIXSgOv3IFhvUN12KH-23">
          <mxGeometry x="0.4382" y="1" relative="1" as="geometry">
            <mxPoint as="offset" />
          </mxGeometry>
        </mxCell>
        <mxCell id="FTfIXSgOv3IFhvUN12KH-14" value="" style="strokeColor=#dddddd;shadow=1;strokeWidth=1;rounded=1;absoluteArcSize=1;arcSize=2;" vertex="1" parent="1">
          <mxGeometry x="491" y="-136" width="210" height="60" as="geometry" />
        </mxCell>
        <mxCell id="FTfIXSgOv3IFhvUN12KH-15" value="&lt;font color=&quot;#000000&quot;&gt;detection_match_id.csv&lt;/font&gt;&lt;br&gt;video-to-pipeline" style="editableCssRules=.*;html=1;fontColor=#999999;shape=image;verticalLabelPosition=middle;verticalAlign=middle;labelPosition=right;align=left;spacingLeft=20;part=1;points=[];imageAspect=0;image=data:image/svg+xml,PHN2ZyB4bWxucz0iaHR0cDovL3d3dy53My5vcmcvMjAwMC9zdmciIHhtbG5zOnY9Imh0dHBzOi8vdmVjdGEuaW8vbmFubyIgd2lkdGg9IjIwIiBoZWlnaHQ9IjE2IiB2aWV3Qm94PSIwIDAgMjAgMTYiPiYjeGE7CTxzdHlsZSB0eXBlPSJ0ZXh0L2NzcyI+JiN4YTsJLnN0MHtmaWxsOiM0Mjg1ZjQ7fSYjeGE7CS5zdDF7ZmlsbDojNjY5ZGY2O30mI3hhOwkuc3Qye2ZpbGw6I2FlY2JmYTt9JiN4YTsJLnN0M3tmaWxsOiNmZmY7fSYjeGE7CTwvc3R5bGU+JiN4YTsJPHBhdGggY2xhc3M9InN0MiIgZD0iTTAgMGgyMHY3SDB6Ii8+JiN4YTsJPHBhdGggY2xhc3M9InN0MSIgZD0iTTE4IDBoMnY3aC0yeiIvPiYjeGE7CTxwYXRoIGNsYXNzPSJzdDAiIGQ9Ik0xOCA3bDItN2gtMnoiLz4mI3hhOwk8cGF0aCBjbGFzcz0ic3QxIiBkPSJNMCAwaDJ2N0gweiIvPiYjeGE7CTxnIGNsYXNzPSJzdDMiPiYjeGE7CQk8cGF0aCBkPSJNNCAzaDZ2MUg0eiIvPiYjeGE7CQk8cmVjdCB4PSIxMyIgeT0iMiIgd2lkdGg9IjMiIGhlaWdodD0iMyIgcng9IjEuNSIvPiYjeGE7CTwvZz4mI3hhOwk8cGF0aCBjbGFzcz0ic3QyIiBkPSJNMCA5aDIwdjdIMHoiLz4mI3hhOwk8cGF0aCBjbGFzcz0ic3QxIiBkPSJNMTggOWgydjdoLTJ6Ii8+JiN4YTsJPHBhdGggY2xhc3M9InN0MCIgZD0iTTE4IDE2bDItN2gtMnoiLz4mI3hhOwk8cGF0aCBjbGFzcz0ic3QxIiBkPSJNMCA5aDJ2N0gweiIvPiYjeGE7CTxnIGNsYXNzPSJzdDMiPiYjeGE7CQk8cGF0aCBkPSJNNCAxMmg2djFINHoiLz4mI3hhOwkJPHJlY3QgeD0iMTMiIHk9IjExIiB3aWR0aD0iMyIgaGVpZ2h0PSIzIiByeD0iMS41Ii8+JiN4YTsJPC9nPiYjeGE7PC9zdmc+;" vertex="1" parent="FTfIXSgOv3IFhvUN12KH-14">
          <mxGeometry width="30" height="24" relative="1" as="geometry">
            <mxPoint x="15" y="18" as="offset" />
          </mxGeometry>
        </mxCell>
        <mxCell id="FTfIXSgOv3IFhvUN12KH-27" style="edgeStyle=none;curved=1;rounded=0;orthogonalLoop=1;jettySize=auto;html=1;entryX=0.5;entryY=0;entryDx=0;entryDy=0;fontSize=12;startSize=8;endSize=8;" edge="1" parent="1" source="FTfIXSgOv3IFhvUN12KH-19" target="FTfIXSgOv3IFhvUN12KH-25">
          <mxGeometry relative="1" as="geometry" />
        </mxCell>
        <mxCell id="FTfIXSgOv3IFhvUN12KH-28" value="&lt;b&gt;out&lt;/b&gt; : csv" style="edgeLabel;html=1;align=center;verticalAlign=middle;resizable=0;points=[];fontSize=12;" vertex="1" connectable="0" parent="FTfIXSgOv3IFhvUN12KH-27">
          <mxGeometry x="-0.6512" y="-1" relative="1" as="geometry">
            <mxPoint as="offset" />
          </mxGeometry>
        </mxCell>
        <mxCell id="FTfIXSgOv3IFhvUN12KH-19" value="" style="strokeColor=#dddddd;shadow=1;strokeWidth=1;rounded=1;absoluteArcSize=1;arcSize=2;" vertex="1" parent="1">
          <mxGeometry x="524.5" y="118.80000000000001" width="152" height="60" as="geometry" />
        </mxCell>
        <mxCell id="FTfIXSgOv3IFhvUN12KH-20" value="&lt;font color=&quot;#000000&quot;&gt;API Tracking&lt;/font&gt;&lt;br&gt;Cloud Run" style="editableCssRules=.*;html=1;fontColor=#999999;shape=image;verticalLabelPosition=middle;verticalAlign=middle;labelPosition=right;align=left;spacingLeft=20;part=1;points=[];imageAspect=0;image=data:image/svg+xml,PHN2ZyB4bWxucz0iaHR0cDovL3d3dy53My5vcmcvMjAwMC9zdmciIHhtbG5zOnY9Imh0dHBzOi8vdmVjdGEuaW8vbmFubyIgd2lkdGg9IjM2NS40NjQ5OTY3NzA0MjQ5MyIgaGVpZ2h0PSIzNzkuMjIyOTk0NDYzNTc3OTUiIHZpZXdCb3g9IjAgMCA5Ni42OTU5OTkxNDU1MDc4MSAxMDAuMzM1OTk4NTM1MTU2MjUiPiYjeGE7PHN0eWxlIHR5cGU9InRleHQvY3NzIj4mI3hhOwkuc3Qwe2ZpbGw6IzQyODVmNDt9JiN4YTsJLnN0MXtmaWxsOiNhZWNiZmE7fSYjeGE7PC9zdHlsZT4mI3hhOwk8cGF0aCBjbGFzcz0ic3QwIiBkPSJNMjkuNzk0IDEwMC4zMzZMNDYuOTIgNTAuMTY4aDQ5Ljc3NnpNMCA5OS42NzFsMTIuOTc2LTQ5LjUwMkgyOS4yMkwxNi44OTcgOTIuMDU0eiIvPiYjeGE7CTxwYXRoIGNsYXNzPSJzdDEiIGQ9Ik0yOS43OTQgMEw0Ni45MiA1MC4xNjhoNDkuNzc2ek0wIC42NjZsMTIuOTc2IDQ5LjUwMkgyOS4yMkwxNi44OTcgOC4yODN6Ii8+JiN4YTs8L3N2Zz4=;" vertex="1" parent="FTfIXSgOv3IFhvUN12KH-19">
          <mxGeometry width="30" height="30" relative="1" as="geometry">
            <mxPoint x="15" y="15" as="offset" />
          </mxGeometry>
        </mxCell>
        <mxCell id="FTfIXSgOv3IFhvUN12KH-37" style="edgeStyle=none;curved=1;rounded=0;orthogonalLoop=1;jettySize=auto;html=1;fontSize=12;startSize=8;endSize=8;" edge="1" parent="1" source="FTfIXSgOv3IFhvUN12KH-25" target="FTfIXSgOv3IFhvUN12KH-36">
          <mxGeometry relative="1" as="geometry" />
        </mxCell>
        <mxCell id="FTfIXSgOv3IFhvUN12KH-25" value="" style="strokeColor=#dddddd;shadow=1;strokeWidth=1;rounded=1;absoluteArcSize=1;arcSize=2;" vertex="1" parent="1">
          <mxGeometry x="498" y="280.76" width="210" height="60" as="geometry" />
        </mxCell>
        <mxCell id="FTfIXSgOv3IFhvUN12KH-26" value="&lt;font color=&quot;#000000&quot;&gt;tracking_match_id.csv&lt;/font&gt;&lt;br&gt;video-to-pipeline" style="editableCssRules=.*;html=1;fontColor=#999999;shape=image;verticalLabelPosition=middle;verticalAlign=middle;labelPosition=right;align=left;spacingLeft=20;part=1;points=[];imageAspect=0;image=data:image/svg+xml,PHN2ZyB4bWxucz0iaHR0cDovL3d3dy53My5vcmcvMjAwMC9zdmciIHhtbG5zOnY9Imh0dHBzOi8vdmVjdGEuaW8vbmFubyIgd2lkdGg9IjIwIiBoZWlnaHQ9IjE2IiB2aWV3Qm94PSIwIDAgMjAgMTYiPiYjeGE7CTxzdHlsZSB0eXBlPSJ0ZXh0L2NzcyI+JiN4YTsJLnN0MHtmaWxsOiM0Mjg1ZjQ7fSYjeGE7CS5zdDF7ZmlsbDojNjY5ZGY2O30mI3hhOwkuc3Qye2ZpbGw6I2FlY2JmYTt9JiN4YTsJLnN0M3tmaWxsOiNmZmY7fSYjeGE7CTwvc3R5bGU+JiN4YTsJPHBhdGggY2xhc3M9InN0MiIgZD0iTTAgMGgyMHY3SDB6Ii8+JiN4YTsJPHBhdGggY2xhc3M9InN0MSIgZD0iTTE4IDBoMnY3aC0yeiIvPiYjeGE7CTxwYXRoIGNsYXNzPSJzdDAiIGQ9Ik0xOCA3bDItN2gtMnoiLz4mI3hhOwk8cGF0aCBjbGFzcz0ic3QxIiBkPSJNMCAwaDJ2N0gweiIvPiYjeGE7CTxnIGNsYXNzPSJzdDMiPiYjeGE7CQk8cGF0aCBkPSJNNCAzaDZ2MUg0eiIvPiYjeGE7CQk8cmVjdCB4PSIxMyIgeT0iMiIgd2lkdGg9IjMiIGhlaWdodD0iMyIgcng9IjEuNSIvPiYjeGE7CTwvZz4mI3hhOwk8cGF0aCBjbGFzcz0ic3QyIiBkPSJNMCA5aDIwdjdIMHoiLz4mI3hhOwk8cGF0aCBjbGFzcz0ic3QxIiBkPSJNMTggOWgydjdoLTJ6Ii8+JiN4YTsJPHBhdGggY2xhc3M9InN0MCIgZD0iTTE4IDE2bDItN2gtMnoiLz4mI3hhOwk8cGF0aCBjbGFzcz0ic3QxIiBkPSJNMCA5aDJ2N0gweiIvPiYjeGE7CTxnIGNsYXNzPSJzdDMiPiYjeGE7CQk8cGF0aCBkPSJNNCAxMmg2djFINHoiLz4mI3hhOwkJPHJlY3QgeD0iMTMiIHk9IjExIiB3aWR0aD0iMyIgaGVpZ2h0PSIzIiByeD0iMS41Ii8+JiN4YTsJPC9nPiYjeGE7PC9zdmc+;" vertex="1" parent="FTfIXSgOv3IFhvUN12KH-25">
          <mxGeometry width="30" height="24" relative="1" as="geometry">
            <mxPoint x="15" y="18" as="offset" />
          </mxGeometry>
        </mxCell>
        <mxCell id="FTfIXSgOv3IFhvUN12KH-49" style="edgeStyle=none;curved=1;rounded=0;orthogonalLoop=1;jettySize=auto;html=1;exitX=0.5;exitY=1;exitDx=0;exitDy=0;fontSize=12;startSize=8;endSize=8;" edge="1" parent="1" source="FTfIXSgOv3IFhvUN12KH-31" target="FTfIXSgOv3IFhvUN12KH-48">
          <mxGeometry relative="1" as="geometry">
            <mxPoint x="-358.52941176470586" y="419.3958823529412" as="targetPoint" />
          </mxGeometry>
        </mxCell>
        <mxCell id="FTfIXSgOv3IFhvUN12KH-31" value="" style="strokeColor=#dddddd;shadow=1;strokeWidth=1;rounded=1;absoluteArcSize=1;arcSize=2;" vertex="1" parent="1">
          <mxGeometry x="-464" y="280.76" width="210" height="60" as="geometry" />
        </mxCell>
        <mxCell id="FTfIXSgOv3IFhvUN12KH-32" value="&lt;font color=&quot;#000000&quot;&gt;events_match_id.csv&lt;/font&gt;&lt;br&gt;video-to-pipeline" style="editableCssRules=.*;html=1;fontColor=#999999;shape=image;verticalLabelPosition=middle;verticalAlign=middle;labelPosition=right;align=left;spacingLeft=20;part=1;points=[];imageAspect=0;image=data:image/svg+xml,PHN2ZyB4bWxucz0iaHR0cDovL3d3dy53My5vcmcvMjAwMC9zdmciIHhtbG5zOnY9Imh0dHBzOi8vdmVjdGEuaW8vbmFubyIgd2lkdGg9IjIwIiBoZWlnaHQ9IjE2IiB2aWV3Qm94PSIwIDAgMjAgMTYiPiYjeGE7CTxzdHlsZSB0eXBlPSJ0ZXh0L2NzcyI+JiN4YTsJLnN0MHtmaWxsOiM0Mjg1ZjQ7fSYjeGE7CS5zdDF7ZmlsbDojNjY5ZGY2O30mI3hhOwkuc3Qye2ZpbGw6I2FlY2JmYTt9JiN4YTsJLnN0M3tmaWxsOiNmZmY7fSYjeGE7CTwvc3R5bGU+JiN4YTsJPHBhdGggY2xhc3M9InN0MiIgZD0iTTAgMGgyMHY3SDB6Ii8+JiN4YTsJPHBhdGggY2xhc3M9InN0MSIgZD0iTTE4IDBoMnY3aC0yeiIvPiYjeGE7CTxwYXRoIGNsYXNzPSJzdDAiIGQ9Ik0xOCA3bDItN2gtMnoiLz4mI3hhOwk8cGF0aCBjbGFzcz0ic3QxIiBkPSJNMCAwaDJ2N0gweiIvPiYjeGE7CTxnIGNsYXNzPSJzdDMiPiYjeGE7CQk8cGF0aCBkPSJNNCAzaDZ2MUg0eiIvPiYjeGE7CQk8cmVjdCB4PSIxMyIgeT0iMiIgd2lkdGg9IjMiIGhlaWdodD0iMyIgcng9IjEuNSIvPiYjeGE7CTwvZz4mI3hhOwk8cGF0aCBjbGFzcz0ic3QyIiBkPSJNMCA5aDIwdjdIMHoiLz4mI3hhOwk8cGF0aCBjbGFzcz0ic3QxIiBkPSJNMTggOWgydjdoLTJ6Ii8+JiN4YTsJPHBhdGggY2xhc3M9InN0MCIgZD0iTTE4IDE2bDItN2gtMnoiLz4mI3hhOwk8cGF0aCBjbGFzcz0ic3QxIiBkPSJNMCA5aDJ2N0gweiIvPiYjeGE7CTxnIGNsYXNzPSJzdDMiPiYjeGE7CQk8cGF0aCBkPSJNNCAxMmg2djFINHoiLz4mI3hhOwkJPHJlY3QgeD0iMTMiIHk9IjExIiB3aWR0aD0iMyIgaGVpZ2h0PSIzIiByeD0iMS41Ii8+JiN4YTsJPC9nPiYjeGE7PC9zdmc+;" vertex="1" parent="FTfIXSgOv3IFhvUN12KH-31">
          <mxGeometry width="30" height="24" relative="1" as="geometry">
            <mxPoint x="15" y="18" as="offset" />
          </mxGeometry>
        </mxCell>
        <mxCell id="FTfIXSgOv3IFhvUN12KH-41" style="edgeStyle=none;curved=1;rounded=0;orthogonalLoop=1;jettySize=auto;html=1;entryX=1;entryY=0.5;entryDx=0;entryDy=0;fontSize=12;startSize=8;endSize=8;" edge="1" parent="1" source="FTfIXSgOv3IFhvUN12KH-36" target="FTfIXSgOv3IFhvUN12KH-39">
          <mxGeometry relative="1" as="geometry" />
        </mxCell>
        <mxCell id="FTfIXSgOv3IFhvUN12KH-42" value="&lt;div align=&quot;left&quot;&gt;&lt;b&gt;in&lt;/b&gt; :&lt;/div&gt;&lt;div align=&quot;left&quot;&gt;multiples&lt;/div&gt;&lt;div align=&quot;left&quot;&gt;JSON&lt;br&gt;&lt;/div&gt;" style="edgeLabel;html=1;align=left;verticalAlign=middle;resizable=0;points=[];fontSize=12;" vertex="1" connectable="0" parent="FTfIXSgOv3IFhvUN12KH-41">
          <mxGeometry x="0.6511" y="3" relative="1" as="geometry">
            <mxPoint as="offset" />
          </mxGeometry>
        </mxCell>
        <mxCell id="FTfIXSgOv3IFhvUN12KH-36" value="&lt;div&gt;App&lt;br&gt;&lt;/div&gt;&lt;div&gt;Tagging manuel&lt;/div&gt;&lt;div&gt;event&lt;br&gt;&lt;/div&gt;" style="rounded=1;whiteSpace=wrap;html=1;" vertex="1" parent="1">
          <mxGeometry x="231" y="280.76" width="120" height="60" as="geometry" />
        </mxCell>
        <mxCell id="FTfIXSgOv3IFhvUN12KH-43" style="edgeStyle=none;curved=1;rounded=0;orthogonalLoop=1;jettySize=auto;html=1;entryX=1;entryY=0.5;entryDx=0;entryDy=0;fontSize=12;startSize=8;endSize=8;" edge="1" parent="1" source="FTfIXSgOv3IFhvUN12KH-39" target="FTfIXSgOv3IFhvUN12KH-31">
          <mxGeometry relative="1" as="geometry">
            <mxPoint x="-253" y="310.76" as="targetPoint" />
          </mxGeometry>
        </mxCell>
        <mxCell id="FTfIXSgOv3IFhvUN12KH-44" value="&lt;div align=&quot;left&quot;&gt;&lt;b&gt;out&lt;/b&gt; :&lt;/div&gt;&lt;div align=&quot;left&quot;&gt;1 csv&lt;br&gt;&lt;/div&gt;" style="edgeLabel;html=1;align=left;verticalAlign=middle;resizable=0;points=[];fontSize=12;" vertex="1" connectable="0" parent="FTfIXSgOv3IFhvUN12KH-43">
          <mxGeometry x="-0.5" y="3" relative="1" as="geometry">
            <mxPoint x="-13" y="-1" as="offset" />
          </mxGeometry>
        </mxCell>
        <mxCell id="FTfIXSgOv3IFhvUN12KH-39" value="" style="strokeColor=#dddddd;shadow=1;strokeWidth=1;rounded=1;absoluteArcSize=1;arcSize=2;" vertex="1" parent="1">
          <mxGeometry x="-137" y="280.76" width="202" height="60" as="geometry" />
        </mxCell>
        <mxCell id="FTfIXSgOv3IFhvUN12KH-40" value="&lt;font color=&quot;#000000&quot;&gt;API Aggregation events&lt;/font&gt;&lt;br&gt;Cloud Run" style="editableCssRules=.*;html=1;fontColor=#999999;shape=image;verticalLabelPosition=middle;verticalAlign=middle;labelPosition=right;align=left;spacingLeft=20;part=1;points=[];imageAspect=0;image=data:image/svg+xml,PHN2ZyB4bWxucz0iaHR0cDovL3d3dy53My5vcmcvMjAwMC9zdmciIHhtbG5zOnY9Imh0dHBzOi8vdmVjdGEuaW8vbmFubyIgd2lkdGg9IjM2NS40NjQ5OTY3NzA0MjQ5MyIgaGVpZ2h0PSIzNzkuMjIyOTk0NDYzNTc3OTUiIHZpZXdCb3g9IjAgMCA5Ni42OTU5OTkxNDU1MDc4MSAxMDAuMzM1OTk4NTM1MTU2MjUiPiYjeGE7PHN0eWxlIHR5cGU9InRleHQvY3NzIj4mI3hhOwkuc3Qwe2ZpbGw6IzQyODVmNDt9JiN4YTsJLnN0MXtmaWxsOiNhZWNiZmE7fSYjeGE7PC9zdHlsZT4mI3hhOwk8cGF0aCBjbGFzcz0ic3QwIiBkPSJNMjkuNzk0IDEwMC4zMzZMNDYuOTIgNTAuMTY4aDQ5Ljc3NnpNMCA5OS42NzFsMTIuOTc2LTQ5LjUwMkgyOS4yMkwxNi44OTcgOTIuMDU0eiIvPiYjeGE7CTxwYXRoIGNsYXNzPSJzdDEiIGQ9Ik0yOS43OTQgMEw0Ni45MiA1MC4xNjhoNDkuNzc2ek0wIC42NjZsMTIuOTc2IDQ5LjUwMkgyOS4yMkwxNi44OTcgOC4yODN6Ii8+JiN4YTs8L3N2Zz4=;" vertex="1" parent="FTfIXSgOv3IFhvUN12KH-39">
          <mxGeometry width="30" height="30" relative="1" as="geometry">
            <mxPoint x="15" y="15" as="offset" />
          </mxGeometry>
        </mxCell>
        <mxCell id="FTfIXSgOv3IFhvUN12KH-46" value="" style="edgeStyle=none;curved=1;rounded=0;orthogonalLoop=1;jettySize=auto;html=1;exitX=0.5;exitY=1;exitDx=0;exitDy=0;fontSize=12;startSize=8;endSize=8;" edge="1" parent="1" source="FTfIXSgOv3IFhvUN12KH-14" target="FTfIXSgOv3IFhvUN12KH-45">
          <mxGeometry relative="1" as="geometry">
            <mxPoint x="596" y="-76" as="sourcePoint" />
            <mxPoint x="600" y="244" as="targetPoint" />
          </mxGeometry>
        </mxCell>
        <mxCell id="FTfIXSgOv3IFhvUN12KH-45" value="Eventarc" style="sketch=0;html=1;verticalAlign=top;labelPosition=center;verticalLabelPosition=bottom;align=center;spacingTop=-6;fontSize=11;fontStyle=1;fontColor=#999999;shape=image;aspect=fixed;imageAspect=0;image=data:image/svg+xml,PHN2ZyB4bWxucz0iaHR0cDovL3d3dy53My5vcmcvMjAwMC9zdmciIGlkPSJzdmc4MzgiIHZlcnNpb249IjEuMSIgdmlld0JveD0iMCAwIDE2NC4zNDc1OCAxNjQuMzQ3NiIgaGVpZ2h0PSIxNjQuMzQ3Nm1tIiB3aWR0aD0iMTY0LjM0NzU4bW0iPiYjeGE7ICA8cGF0aCBkPSJtIDEyMy43NzczOCwzMy41NDQ5NDIgLTg5LjgwODYwMSw4OS4zMjYxNjggOC4xMDkzNzUsOC4xNTQzIDg5LjgwODU5NiwtODkuMzI2MTY3IHogTSAxNC41MDgxOTcsMzUuNTkxNzMzIEMgNS4zNjEyNTIsNDguODM4NjEzIDAsNjQuODkxMTUzIDAsODIuMTczNzkzIGMgMWUtNiw5LjI1NTM0IDEuNTYwNDAxLDE4LjE0NzQzNyA0LjM5MzUzLDI2LjQ1NTIyNyAzLjA2OTg2MywtMi40MzY5NiA2LjUxMjg4MywtNC4zNjI1NSAxMC4xOTYyNzcsLTUuNzAyNDkgLTIuMDA0OTk2LC02LjU2MDIwNyAtMy4wODk3MzIsLTEzLjUyNjU2NyAtMy4wODk3MzIsLTIwLjc1MjczNyAwLC0xNC45NzI0NyA0LjYyOTY1LC0yOC44NDEyNyAxMi41Mzg3NywtNDAuMjU2MjEgeiBNIDQxLjUwNzc0NSwyNC4zMjQ5NjYgYyAxMS40OTIxMTEsLTguMDgzNDczIDI1LjUxMzkxOSwtMTIuODI0ODk0IDQwLjY2NjA1MSwtMTIuODI0ODk0IDcuMjIxOTksMCAxNC4xODYwMSwxLjA3OTcyMiAyMC43NDI5MjQsMy4wODI0OTkgMS4zOTExMSwtMy42ODE2MDggMy4zNjk2LC03LjExMzQ3NCA1Ljg1ODU1LC0xMC4xNjIxNyBDIDEwMC40MjgzMywxLjU1NzMzMiA5MS40ODAwOTYsMCA4Mi4xNzM3OTYsMCA2NC42NzY0MzcsMCA0OC40Mzk5NCw1LjQ5NTI5MiAzNS4wOTkzMiwxNC44NTA4NjEgWiBNIDEyMi43OTAzNiwxNDAuMDU3NCBjIC0xMS40ODI4Niw4LjA2MjMgLTI1LjQ4NjE3NCwxMi43OTAxMiAtNDAuNjE2NTY0LDEyLjc5MDExIC03LjI4NTE4OSwwIC0xNC4zMDc5NSwtMS4wOTg1OCAtMjAuOTE1MDAzLC0zLjEzNTIxIC0xLjM0OTc5LDMuNjc4NzYgLTMuMjg0MjYyLDcuMTE1NjUgLTUuNzI4ODUxLDEwLjE3ODE5IDguMzYxNTE2LDIuODc0MjYgMTcuMzE4NTU5LDQuNDU3MDkgMjYuNjQzODU0LDQuNDU3MSAxNy40OTQ3OSwwIDMzLjcyOTA5NCwtNS40OTM2OCA0Ny4wNjg2MDQsLTE0Ljg0Njc0IHogbSAyNy4xMzQyMiwtMTEuNDI1MTUgYyA5LjA5NTAzLC0xMy4yMjMwNyAxNC40MjMwMSwtMjkuMjI5NTI3IDE0LjQyMzAxLC00Ni40NTg0NTcgMCwtOS4yNTU0MSAtMS41MzkxNywtMTguMTU3MiAtNC4zNzIzNCwtMjYuNDY1MDUgLTMuMDUxMzIsMi40ODkxOCAtNi40ODYwMiw0LjQ2NzE3IC0xMC4xNzA0NCw1Ljg1NzAxIDEuOTc2NTMsNi41MTc2NSAzLjA0MjcxLDEzLjQzNTM4IDMuMDQyNzEsMjAuNjA4MDQgMCwxNS4wODgxNCAtNC43MDE0NSwyOS4wNTU0NzcgLTEyLjcyMjY0LDQwLjUyMDI5NyB6IiBzdHlsZT0iY29sb3I6IzAwMDAwMDtvcGFjaXR5OjE7ZmlsbDojNDI4NWY0O2ZpbGwtb3BhY2l0eToxOy1pbmtzY2FwZS1zdHJva2U6bm9uZSIvPiYjeGE7ICA8cGF0aCBkPSJNIDEwNi4wMDc4LDgyLjY0Njc2MyBBIDIzLjc1ODk3NiwyMy43NTg5NzYgMCAwIDEgODIuMjQ4ODE2LDEwNi40MDU3NCAyMy43NTg5NzYsMjMuNzU4OTc2IDAgMCAxIDU4LjQ4OTg0LDgyLjY0Njc2MyAyMy43NTg5NzYsMjMuNzU4OTc2IDAgMCAxIDgyLjI0ODgxNiw1OC44ODc3ODMgMjMuNzU4OTc2LDIzLjc1ODk3NiAwIDAgMSAxMDYuMDA3OCw4Mi42NDY3NjMgWiIgc3R5bGU9ImNvbG9yOiMwMDAwMDA7b3BhY2l0eToxO2ZpbGw6IzY2OWRmNjtmaWxsLW9wYWNpdHk6MTtzdHJva2Utd2lkdGg6MTEuNTtzdHJva2UtbGluZWNhcDpyb3VuZDstaW5rc2NhcGUtc3Ryb2tlOm5vbmUiLz4mI3hhOyAgPHBhdGggZD0ibSAxMzYuODc4OTQsMTE3LjEzNDc4IGMgLTExLjA1Nzc1LDAgLTIwLjE0NDU0LDkuMDg4NzQgLTIwLjE0NDUzLDIwLjE0NjQ5IDAsMTEuMDU3NzQgOS4wODY3OSwyMC4xNDQ1MyAyMC4xNDQ1MywyMC4xNDQ1MyAxMS4wNTc3MywwIDIwLjE0NjQ4LC05LjA4NjggMjAuMTQ2NDgsLTIwLjE0NDUzIDFlLTUsLTExLjA1Nzc0IC05LjA4ODc0LC0yMC4xNDY0OCAtMjAuMTQ2NDgsLTIwLjE0NjQ5IHogbSAwLDExLjUgYyA0Ljg0MjY4LDAgOC42NDY0OSwzLjgwMzggOC42NDY0OCw4LjY0NjQ5IDAsNC44NDI2OCAtMy44MDM4LDguNjQ0NTMgLTguNjQ2NDgsOC42NDQ1MyAtNC44NDI2OCwwIC04LjY0NDUzLC0zLjgwMTg1IC04LjY0NDUzLC04LjY0NDUzIDAsLTQuODQyNjkgMy44MDE4NCwtOC42NDY0OSA4LjY0NDUzLC04LjY0NjQ5IHogTSAyNy4wOTU3MzIsMTE2Ljk3NDYzIGMgLTExLjA1NzczNiwwIC0yMC4xNDQ1MjgsOS4wODY3OSAtMjAuMTQ0NTMxLDIwLjE0NDUzIC01ZS02LDExLjA1Nzc0IDkuMDg2NzksMjAuMTQ2NDggMjAuMTQ0NTMxLDIwLjE0NjQ4IDExLjA1Nzc0MiwwIDIwLjE0NjQ4OSwtOS4wODg3NCAyMC4xNDY0ODUsLTIwLjE0NjQ4IC0zZS02LC0xMS4wNTc3NCAtOS4wODg3NDgsLTIwLjE0NDUzIC0yMC4xNDY0ODUsLTIwLjE0NDUzIHogbSAwLDExLjUgYyA0Ljg0MjY4MiwwIDguNjQ2NDgzLDMuODAxODUgOC42NDY0ODUsOC42NDQ1MyAyZS02LDQuODQyNjggLTMuODAzOCw4LjY0NjQ4IC04LjY0NjQ4NSw4LjY0NjQ4IC00Ljg0MjY4NCwwIC04LjY0NDUzMywtMy44MDM4IC04LjY0NDUzMSwtOC42NDY0OCAxMGUtNywtNC44NDI2OCAzLjgwMTg0OSwtOC42NDQ1MyA4LjY0NDUzMSwtOC42NDQ1MyB6IE0gMTM2Ljk0MTQ0LDcuMzQzNzcgYyAtMTEuMDU3NzQsM2UtNiAtMjAuMTQ2NDksOS4wODY3OTUgLTIwLjE0NjQ5LDIwLjE0NDUzMSAwLDExLjA1Nzc0MiA5LjA4ODc1LDIwLjE0NjQ4MiAyMC4xNDY0OSwyMC4xNDY0ODIgMTEuMDU3NzQsMWUtNSAyMC4xNDQ1MywtOS4wODg3NCAyMC4xNDQ1MywtMjAuMTQ2NDgyIDAsLTExLjA1Nzc0MSAtOS4wODY3OSwtMjAuMTQ0NTM2IC0yMC4xNDQ1MywtMjAuMTQ0NTMxIHogbSAwLDExLjUgYyA0Ljg0MjY4LC0yZS02IDguNjQ0NTMsMy44MDE4NDcgOC42NDQ1Myw4LjY0NDUzMSAwLDQuODQyNjg1IC0zLjgwMTg1LDguNjQ2NDgyIC04LjY0NDUzLDguNjQ2NDgyIC00Ljg0MjY4LDAgLTguNjQ2NDksLTMuODAzNzk5IC04LjY0NjQ5LC04LjY0NjQ4MiAwLC00Ljg0MjY4MiAzLjgwMzgxLC04LjY0NDUzIDguNjQ2NDksLTguNjQ0NTMxIHogTSAyNy4wODk4NzMsNy40Mzc1MiBjIC0xMS4wNTc3MzksLTFlLTYgLTIwLjE0NDUzMSw5LjA4Njc5MiAtMjAuMTQ0NTMxLDIwLjE0NDUzMSAyZS02LDExLjA1Nzc0MiA5LjA4Njc5NCwyMC4xNDQ1MzIgMjAuMTQ0NTMxLDIwLjE0NDUzMiAxMS4wNTc3MzYsMCAyMC4xNDY0ODIsLTkuMDg2OCAyMC4xNDY0ODQsLTIwLjE0NDUzMiAwLC0xMS4wNTc3MzggLTkuMDg4NzQ2LC0yMC4xNDQ1MzEgLTIwLjE0NjQ4NCwtMjAuMTQ0NTMxIHogbSAwLDExLjUgYyA0Ljg0MjY4MywwIDguNjQ2NDg0LDMuODAxODQ4IDguNjQ2NDg0LDguNjQ0NTMxIC0xMGUtNyw0Ljg0MjY4MiAtMy44MDM4MDIsOC42NDQ1MzIgLTguNjQ2NDg0LDguNjQ0NTMyIC00Ljg0MjY4MywwIC04LjY0NDUzLC0zLjgwMTg0OSAtOC42NDQ1MzEsLTguNjQ0NTMyIDAsLTQuODQyNjgzIDMuODAxODQ4LC04LjY0NDUzMSA4LjY0NDUzMSwtOC42NDQ1MzEgeiIgc3R5bGU9ImNvbG9yOiMwMDAwMDA7b3BhY2l0eToxO2ZpbGw6I2FlY2JmYTtmaWxsLW9wYWNpdHk6MTtzdHJva2UtbGluZWNhcDpyb3VuZDstaW5rc2NhcGUtc3Ryb2tlOm5vbmUiLz4mI3hhOzwvc3ZnPg==;" vertex="1" parent="1">
          <mxGeometry x="575" y="-21" width="42" height="42" as="geometry" />
        </mxCell>
        <mxCell id="FTfIXSgOv3IFhvUN12KH-53" style="edgeStyle=none;curved=1;rounded=0;orthogonalLoop=1;jettySize=auto;html=1;entryX=0.5;entryY=0;entryDx=0;entryDy=0;fontSize=12;startSize=8;endSize=8;" edge="1" parent="1" source="FTfIXSgOv3IFhvUN12KH-48" target="FTfIXSgOv3IFhvUN12KH-51">
          <mxGeometry relative="1" as="geometry" />
        </mxCell>
        <mxCell id="FTfIXSgOv3IFhvUN12KH-48" value="Eventarc" style="sketch=0;html=1;verticalAlign=top;labelPosition=center;verticalLabelPosition=bottom;align=center;spacingTop=-6;fontSize=11;fontStyle=1;fontColor=#999999;shape=image;aspect=fixed;imageAspect=0;image=data:image/svg+xml,PHN2ZyB4bWxucz0iaHR0cDovL3d3dy53My5vcmcvMjAwMC9zdmciIGlkPSJzdmc4MzgiIHZlcnNpb249IjEuMSIgdmlld0JveD0iMCAwIDE2NC4zNDc1OCAxNjQuMzQ3NiIgaGVpZ2h0PSIxNjQuMzQ3Nm1tIiB3aWR0aD0iMTY0LjM0NzU4bW0iPiYjeGE7ICA8cGF0aCBkPSJtIDEyMy43NzczOCwzMy41NDQ5NDIgLTg5LjgwODYwMSw4OS4zMjYxNjggOC4xMDkzNzUsOC4xNTQzIDg5LjgwODU5NiwtODkuMzI2MTY3IHogTSAxNC41MDgxOTcsMzUuNTkxNzMzIEMgNS4zNjEyNTIsNDguODM4NjEzIDAsNjQuODkxMTUzIDAsODIuMTczNzkzIGMgMWUtNiw5LjI1NTM0IDEuNTYwNDAxLDE4LjE0NzQzNyA0LjM5MzUzLDI2LjQ1NTIyNyAzLjA2OTg2MywtMi40MzY5NiA2LjUxMjg4MywtNC4zNjI1NSAxMC4xOTYyNzcsLTUuNzAyNDkgLTIuMDA0OTk2LC02LjU2MDIwNyAtMy4wODk3MzIsLTEzLjUyNjU2NyAtMy4wODk3MzIsLTIwLjc1MjczNyAwLC0xNC45NzI0NyA0LjYyOTY1LC0yOC44NDEyNyAxMi41Mzg3NywtNDAuMjU2MjEgeiBNIDQxLjUwNzc0NSwyNC4zMjQ5NjYgYyAxMS40OTIxMTEsLTguMDgzNDczIDI1LjUxMzkxOSwtMTIuODI0ODk0IDQwLjY2NjA1MSwtMTIuODI0ODk0IDcuMjIxOTksMCAxNC4xODYwMSwxLjA3OTcyMiAyMC43NDI5MjQsMy4wODI0OTkgMS4zOTExMSwtMy42ODE2MDggMy4zNjk2LC03LjExMzQ3NCA1Ljg1ODU1LC0xMC4xNjIxNyBDIDEwMC40MjgzMywxLjU1NzMzMiA5MS40ODAwOTYsMCA4Mi4xNzM3OTYsMCA2NC42NzY0MzcsMCA0OC40Mzk5NCw1LjQ5NTI5MiAzNS4wOTkzMiwxNC44NTA4NjEgWiBNIDEyMi43OTAzNiwxNDAuMDU3NCBjIC0xMS40ODI4Niw4LjA2MjMgLTI1LjQ4NjE3NCwxMi43OTAxMiAtNDAuNjE2NTY0LDEyLjc5MDExIC03LjI4NTE4OSwwIC0xNC4zMDc5NSwtMS4wOTg1OCAtMjAuOTE1MDAzLC0zLjEzNTIxIC0xLjM0OTc5LDMuNjc4NzYgLTMuMjg0MjYyLDcuMTE1NjUgLTUuNzI4ODUxLDEwLjE3ODE5IDguMzYxNTE2LDIuODc0MjYgMTcuMzE4NTU5LDQuNDU3MDkgMjYuNjQzODU0LDQuNDU3MSAxNy40OTQ3OSwwIDMzLjcyOTA5NCwtNS40OTM2OCA0Ny4wNjg2MDQsLTE0Ljg0Njc0IHogbSAyNy4xMzQyMiwtMTEuNDI1MTUgYyA5LjA5NTAzLC0xMy4yMjMwNyAxNC40MjMwMSwtMjkuMjI5NTI3IDE0LjQyMzAxLC00Ni40NTg0NTcgMCwtOS4yNTU0MSAtMS41MzkxNywtMTguMTU3MiAtNC4zNzIzNCwtMjYuNDY1MDUgLTMuMDUxMzIsMi40ODkxOCAtNi40ODYwMiw0LjQ2NzE3IC0xMC4xNzA0NCw1Ljg1NzAxIDEuOTc2NTMsNi41MTc2NSAzLjA0MjcxLDEzLjQzNTM4IDMuMDQyNzEsMjAuNjA4MDQgMCwxNS4wODgxNCAtNC43MDE0NSwyOS4wNTU0NzcgLTEyLjcyMjY0LDQwLjUyMDI5NyB6IiBzdHlsZT0iY29sb3I6IzAwMDAwMDtvcGFjaXR5OjE7ZmlsbDojNDI4NWY0O2ZpbGwtb3BhY2l0eToxOy1pbmtzY2FwZS1zdHJva2U6bm9uZSIvPiYjeGE7ICA8cGF0aCBkPSJNIDEwNi4wMDc4LDgyLjY0Njc2MyBBIDIzLjc1ODk3NiwyMy43NTg5NzYgMCAwIDEgODIuMjQ4ODE2LDEwNi40MDU3NCAyMy43NTg5NzYsMjMuNzU4OTc2IDAgMCAxIDU4LjQ4OTg0LDgyLjY0Njc2MyAyMy43NTg5NzYsMjMuNzU4OTc2IDAgMCAxIDgyLjI0ODgxNiw1OC44ODc3ODMgMjMuNzU4OTc2LDIzLjc1ODk3NiAwIDAgMSAxMDYuMDA3OCw4Mi42NDY3NjMgWiIgc3R5bGU9ImNvbG9yOiMwMDAwMDA7b3BhY2l0eToxO2ZpbGw6IzY2OWRmNjtmaWxsLW9wYWNpdHk6MTtzdHJva2Utd2lkdGg6MTEuNTtzdHJva2UtbGluZWNhcDpyb3VuZDstaW5rc2NhcGUtc3Ryb2tlOm5vbmUiLz4mI3hhOyAgPHBhdGggZD0ibSAxMzYuODc4OTQsMTE3LjEzNDc4IGMgLTExLjA1Nzc1LDAgLTIwLjE0NDU0LDkuMDg4NzQgLTIwLjE0NDUzLDIwLjE0NjQ5IDAsMTEuMDU3NzQgOS4wODY3OSwyMC4xNDQ1MyAyMC4xNDQ1MywyMC4xNDQ1MyAxMS4wNTc3MywwIDIwLjE0NjQ4LC05LjA4NjggMjAuMTQ2NDgsLTIwLjE0NDUzIDFlLTUsLTExLjA1Nzc0IC05LjA4ODc0LC0yMC4xNDY0OCAtMjAuMTQ2NDgsLTIwLjE0NjQ5IHogbSAwLDExLjUgYyA0Ljg0MjY4LDAgOC42NDY0OSwzLjgwMzggOC42NDY0OCw4LjY0NjQ5IDAsNC44NDI2OCAtMy44MDM4LDguNjQ0NTMgLTguNjQ2NDgsOC42NDQ1MyAtNC44NDI2OCwwIC04LjY0NDUzLC0zLjgwMTg1IC04LjY0NDUzLC04LjY0NDUzIDAsLTQuODQyNjkgMy44MDE4NCwtOC42NDY0OSA4LjY0NDUzLC04LjY0NjQ5IHogTSAyNy4wOTU3MzIsMTE2Ljk3NDYzIGMgLTExLjA1NzczNiwwIC0yMC4xNDQ1MjgsOS4wODY3OSAtMjAuMTQ0NTMxLDIwLjE0NDUzIC01ZS02LDExLjA1Nzc0IDkuMDg2NzksMjAuMTQ2NDggMjAuMTQ0NTMxLDIwLjE0NjQ4IDExLjA1Nzc0MiwwIDIwLjE0NjQ4OSwtOS4wODg3NCAyMC4xNDY0ODUsLTIwLjE0NjQ4IC0zZS02LC0xMS4wNTc3NCAtOS4wODg3NDgsLTIwLjE0NDUzIC0yMC4xNDY0ODUsLTIwLjE0NDUzIHogbSAwLDExLjUgYyA0Ljg0MjY4MiwwIDguNjQ2NDgzLDMuODAxODUgOC42NDY0ODUsOC42NDQ1MyAyZS02LDQuODQyNjggLTMuODAzOCw4LjY0NjQ4IC04LjY0NjQ4NSw4LjY0NjQ4IC00Ljg0MjY4NCwwIC04LjY0NDUzMywtMy44MDM4IC04LjY0NDUzMSwtOC42NDY0OCAxMGUtNywtNC44NDI2OCAzLjgwMTg0OSwtOC42NDQ1MyA4LjY0NDUzMSwtOC42NDQ1MyB6IE0gMTM2Ljk0MTQ0LDcuMzQzNzcgYyAtMTEuMDU3NzQsM2UtNiAtMjAuMTQ2NDksOS4wODY3OTUgLTIwLjE0NjQ5LDIwLjE0NDUzMSAwLDExLjA1Nzc0MiA5LjA4ODc1LDIwLjE0NjQ4MiAyMC4xNDY0OSwyMC4xNDY0ODIgMTEuMDU3NzQsMWUtNSAyMC4xNDQ1MywtOS4wODg3NCAyMC4xNDQ1MywtMjAuMTQ2NDgyIDAsLTExLjA1Nzc0MSAtOS4wODY3OSwtMjAuMTQ0NTM2IC0yMC4xNDQ1MywtMjAuMTQ0NTMxIHogbSAwLDExLjUgYyA0Ljg0MjY4LC0yZS02IDguNjQ0NTMsMy44MDE4NDcgOC42NDQ1Myw4LjY0NDUzMSAwLDQuODQyNjg1IC0zLjgwMTg1LDguNjQ2NDgyIC04LjY0NDUzLDguNjQ2NDgyIC00Ljg0MjY4LDAgLTguNjQ2NDksLTMuODAzNzk5IC04LjY0NjQ5LC04LjY0NjQ4MiAwLC00Ljg0MjY4MiAzLjgwMzgxLC04LjY0NDUzIDguNjQ2NDksLTguNjQ0NTMxIHogTSAyNy4wODk4NzMsNy40Mzc1MiBjIC0xMS4wNTc3MzksLTFlLTYgLTIwLjE0NDUzMSw5LjA4Njc5MiAtMjAuMTQ0NTMxLDIwLjE0NDUzMSAyZS02LDExLjA1Nzc0MiA5LjA4Njc5NCwyMC4xNDQ1MzIgMjAuMTQ0NTMxLDIwLjE0NDUzMiAxMS4wNTc3MzYsMCAyMC4xNDY0ODIsLTkuMDg2OCAyMC4xNDY0ODQsLTIwLjE0NDUzMiAwLC0xMS4wNTc3MzggLTkuMDg4NzQ2LC0yMC4xNDQ1MzEgLTIwLjE0NjQ4NCwtMjAuMTQ0NTMxIHogbSAwLDExLjUgYyA0Ljg0MjY4MywwIDguNjQ2NDg0LDMuODAxODQ4IDguNjQ2NDg0LDguNjQ0NTMxIC0xMGUtNyw0Ljg0MjY4MiAtMy44MDM4MDIsOC42NDQ1MzIgLTguNjQ2NDg0LDguNjQ0NTMyIC00Ljg0MjY4MywwIC04LjY0NDUzLC0zLjgwMTg0OSAtOC42NDQ1MzEsLTguNjQ0NTMyIDAsLTQuODQyNjgzIDMuODAxODQ4LC04LjY0NDUzMSA4LjY0NDUzMSwtOC42NDQ1MzEgeiIgc3R5bGU9ImNvbG9yOiMwMDAwMDA7b3BhY2l0eToxO2ZpbGw6I2FlY2JmYTtmaWxsLW9wYWNpdHk6MTtzdHJva2UtbGluZWNhcDpyb3VuZDstaW5rc2NhcGUtc3Ryb2tlOm5vbmUiLz4mI3hhOzwvc3ZnPg==;" vertex="1" parent="1">
          <mxGeometry x="-380" y="420.69" width="42" height="42" as="geometry" />
        </mxCell>
        <mxCell id="FTfIXSgOv3IFhvUN12KH-64" style="edgeStyle=none;curved=1;rounded=0;orthogonalLoop=1;jettySize=auto;html=1;entryX=1;entryY=0.5;entryDx=0;entryDy=0;fontSize=12;startSize=8;endSize=8;" edge="1" parent="1" source="FTfIXSgOv3IFhvUN12KH-51" target="FTfIXSgOv3IFhvUN12KH-57">
          <mxGeometry relative="1" as="geometry" />
        </mxCell>
        <mxCell id="FTfIXSgOv3IFhvUN12KH-67" value="&lt;b&gt;in&lt;/b&gt; : csv" style="edgeLabel;html=1;align=center;verticalAlign=middle;resizable=0;points=[];fontSize=12;" vertex="1" connectable="0" parent="FTfIXSgOv3IFhvUN12KH-64">
          <mxGeometry x="0.5944" relative="1" as="geometry">
            <mxPoint as="offset" />
          </mxGeometry>
        </mxCell>
        <mxCell id="FTfIXSgOv3IFhvUN12KH-75" style="edgeStyle=none;curved=1;rounded=0;orthogonalLoop=1;jettySize=auto;html=1;entryX=0;entryY=0.5;entryDx=0;entryDy=0;fontSize=12;startSize=8;endSize=8;" edge="1" parent="1" source="FTfIXSgOv3IFhvUN12KH-51" target="FTfIXSgOv3IFhvUN12KH-61">
          <mxGeometry relative="1" as="geometry" />
        </mxCell>
        <mxCell id="FTfIXSgOv3IFhvUN12KH-77" value="&lt;div align=&quot;left&quot;&gt;&lt;b&gt;in&lt;/b&gt; :&lt;/div&gt;&lt;div align=&quot;left&quot;&gt;Mongo&lt;br&gt;&lt;/div&gt;" style="edgeLabel;html=1;align=left;verticalAlign=middle;resizable=0;points=[];fontSize=12;" vertex="1" connectable="0" parent="FTfIXSgOv3IFhvUN12KH-75">
          <mxGeometry x="0.4903" relative="1" as="geometry">
            <mxPoint x="-26" y="-2" as="offset" />
          </mxGeometry>
        </mxCell>
        <mxCell id="FTfIXSgOv3IFhvUN12KH-76" style="edgeStyle=none;curved=1;rounded=0;orthogonalLoop=1;jettySize=auto;html=1;entryX=0;entryY=0.5;entryDx=0;entryDy=0;fontSize=12;startSize=8;endSize=8;" edge="1" parent="1" source="FTfIXSgOv3IFhvUN12KH-51" target="FTfIXSgOv3IFhvUN12KH-59">
          <mxGeometry relative="1" as="geometry" />
        </mxCell>
        <mxCell id="FTfIXSgOv3IFhvUN12KH-79" value="&lt;div align=&quot;left&quot;&gt;&lt;b&gt;in&lt;/b&gt; :&lt;/div&gt;&lt;div align=&quot;left&quot;&gt;Mongo&lt;br&gt;&lt;/div&gt;" style="edgeLabel;html=1;align=left;verticalAlign=middle;resizable=0;points=[];fontSize=12;" vertex="1" connectable="0" parent="FTfIXSgOv3IFhvUN12KH-76">
          <mxGeometry x="0.5813" y="-2" relative="1" as="geometry">
            <mxPoint x="-19" y="-1" as="offset" />
          </mxGeometry>
        </mxCell>
        <mxCell id="FTfIXSgOv3IFhvUN12KH-51" value="" style="strokeColor=#dddddd;shadow=1;strokeWidth=1;rounded=1;absoluteArcSize=1;arcSize=2;" vertex="1" parent="1">
          <mxGeometry x="-460" y="538.69" width="199" height="60" as="geometry" />
        </mxCell>
        <mxCell id="FTfIXSgOv3IFhvUN12KH-52" value="&lt;font color=&quot;#000000&quot;&gt;API Orchestrator&lt;/font&gt;&lt;br&gt;Cloud Run" style="editableCssRules=.*;html=1;fontColor=#999999;shape=image;verticalLabelPosition=middle;verticalAlign=middle;labelPosition=right;align=left;spacingLeft=20;part=1;points=[];imageAspect=0;image=data:image/svg+xml,PHN2ZyB4bWxucz0iaHR0cDovL3d3dy53My5vcmcvMjAwMC9zdmciIHhtbG5zOnY9Imh0dHBzOi8vdmVjdGEuaW8vbmFubyIgd2lkdGg9IjM2NS40NjQ5OTY3NzA0MjQ5MyIgaGVpZ2h0PSIzNzkuMjIyOTk0NDYzNTc3OTUiIHZpZXdCb3g9IjAgMCA5Ni42OTU5OTkxNDU1MDc4MSAxMDAuMzM1OTk4NTM1MTU2MjUiPiYjeGE7PHN0eWxlIHR5cGU9InRleHQvY3NzIj4mI3hhOwkuc3Qwe2ZpbGw6IzQyODVmNDt9JiN4YTsJLnN0MXtmaWxsOiNhZWNiZmE7fSYjeGE7PC9zdHlsZT4mI3hhOwk8cGF0aCBjbGFzcz0ic3QwIiBkPSJNMjkuNzk0IDEwMC4zMzZMNDYuOTIgNTAuMTY4aDQ5Ljc3NnpNMCA5OS42NzFsMTIuOTc2LTQ5LjUwMkgyOS4yMkwxNi44OTcgOTIuMDU0eiIvPiYjeGE7CTxwYXRoIGNsYXNzPSJzdDEiIGQ9Ik0yOS43OTQgMEw0Ni45MiA1MC4xNjhoNDkuNzc2ek0wIC42NjZsMTIuOTc2IDQ5LjUwMkgyOS4yMkwxNi44OTcgOC4yODN6Ii8+JiN4YTs8L3N2Zz4=;" vertex="1" parent="FTfIXSgOv3IFhvUN12KH-51">
          <mxGeometry width="30" height="30" relative="1" as="geometry">
            <mxPoint x="15" y="15" as="offset" />
          </mxGeometry>
        </mxCell>
        <mxCell id="FTfIXSgOv3IFhvUN12KH-72" value="" style="edgeStyle=none;curved=1;rounded=0;orthogonalLoop=1;jettySize=auto;html=1;fontSize=12;startSize=8;endSize=8;" edge="1" parent="1" source="FTfIXSgOv3IFhvUN12KH-54" target="FTfIXSgOv3IFhvUN12KH-71">
          <mxGeometry relative="1" as="geometry" />
        </mxCell>
        <mxCell id="FTfIXSgOv3IFhvUN12KH-54" value="" style="strokeColor=#dddddd;shadow=1;strokeWidth=1;rounded=1;absoluteArcSize=1;arcSize=2;" vertex="1" parent="1">
          <mxGeometry x="-745" y="744.69" width="202" height="60" as="geometry" />
        </mxCell>
        <mxCell id="FTfIXSgOv3IFhvUN12KH-55" value="&lt;font color=&quot;#000000&quot;&gt;API data normalisation&lt;/font&gt;&lt;br&gt;Cloud Run" style="editableCssRules=.*;html=1;fontColor=#999999;shape=image;verticalLabelPosition=middle;verticalAlign=middle;labelPosition=right;align=left;spacingLeft=20;part=1;points=[];imageAspect=0;image=data:image/svg+xml,PHN2ZyB4bWxucz0iaHR0cDovL3d3dy53My5vcmcvMjAwMC9zdmciIHhtbG5zOnY9Imh0dHBzOi8vdmVjdGEuaW8vbmFubyIgd2lkdGg9IjM2NS40NjQ5OTY3NzA0MjQ5MyIgaGVpZ2h0PSIzNzkuMjIyOTk0NDYzNTc3OTUiIHZpZXdCb3g9IjAgMCA5Ni42OTU5OTkxNDU1MDc4MSAxMDAuMzM1OTk4NTM1MTU2MjUiPiYjeGE7PHN0eWxlIHR5cGU9InRleHQvY3NzIj4mI3hhOwkuc3Qwe2ZpbGw6IzQyODVmNDt9JiN4YTsJLnN0MXtmaWxsOiNhZWNiZmE7fSYjeGE7PC9zdHlsZT4mI3hhOwk8cGF0aCBjbGFzcz0ic3QwIiBkPSJNMjkuNzk0IDEwMC4zMzZMNDYuOTIgNTAuMTY4aDQ5Ljc3NnpNMCA5OS42NzFsMTIuOTc2LTQ5LjUwMkgyOS4yMkwxNi44OTcgOTIuMDU0eiIvPiYjeGE7CTxwYXRoIGNsYXNzPSJzdDEiIGQ9Ik0yOS43OTQgMEw0Ni45MiA1MC4xNjhoNDkuNzc2ek0wIC42NjZsMTIuOTc2IDQ5LjUwMkgyOS4yMkwxNi44OTcgOC4yODN6Ii8+JiN4YTs8L3N2Zz4=;" vertex="1" parent="FTfIXSgOv3IFhvUN12KH-54">
          <mxGeometry width="30" height="30" relative="1" as="geometry">
            <mxPoint x="15" y="15" as="offset" />
          </mxGeometry>
        </mxCell>
        <mxCell id="FTfIXSgOv3IFhvUN12KH-70" style="edgeStyle=none;curved=1;rounded=0;orthogonalLoop=1;jettySize=auto;html=1;entryX=1;entryY=0.5;entryDx=0;entryDy=0;fontSize=12;startSize=8;endSize=8;" edge="1" parent="1" source="FTfIXSgOv3IFhvUN12KH-57" target="FTfIXSgOv3IFhvUN12KH-68">
          <mxGeometry relative="1" as="geometry" />
        </mxCell>
        <mxCell id="FTfIXSgOv3IFhvUN12KH-57" value="" style="strokeColor=#dddddd;shadow=1;strokeWidth=1;rounded=1;absoluteArcSize=1;arcSize=2;" vertex="1" parent="1">
          <mxGeometry x="-696" y="637.69" width="153" height="60" as="geometry" />
        </mxCell>
        <mxCell id="FTfIXSgOv3IFhvUN12KH-58" value="&lt;font color=&quot;#000000&quot;&gt;API video cut&lt;/font&gt;&lt;br&gt;Cloud Run" style="editableCssRules=.*;html=1;fontColor=#999999;shape=image;verticalLabelPosition=middle;verticalAlign=middle;labelPosition=right;align=left;spacingLeft=20;part=1;points=[];imageAspect=0;image=data:image/svg+xml,PHN2ZyB4bWxucz0iaHR0cDovL3d3dy53My5vcmcvMjAwMC9zdmciIHhtbG5zOnY9Imh0dHBzOi8vdmVjdGEuaW8vbmFubyIgd2lkdGg9IjM2NS40NjQ5OTY3NzA0MjQ5MyIgaGVpZ2h0PSIzNzkuMjIyOTk0NDYzNTc3OTUiIHZpZXdCb3g9IjAgMCA5Ni42OTU5OTkxNDU1MDc4MSAxMDAuMzM1OTk4NTM1MTU2MjUiPiYjeGE7PHN0eWxlIHR5cGU9InRleHQvY3NzIj4mI3hhOwkuc3Qwe2ZpbGw6IzQyODVmNDt9JiN4YTsJLnN0MXtmaWxsOiNhZWNiZmE7fSYjeGE7PC9zdHlsZT4mI3hhOwk8cGF0aCBjbGFzcz0ic3QwIiBkPSJNMjkuNzk0IDEwMC4zMzZMNDYuOTIgNTAuMTY4aDQ5Ljc3NnpNMCA5OS42NzFsMTIuOTc2LTQ5LjUwMkgyOS4yMkwxNi44OTcgOTIuMDU0eiIvPiYjeGE7CTxwYXRoIGNsYXNzPSJzdDEiIGQ9Ik0yOS43OTQgMEw0Ni45MiA1MC4xNjhoNDkuNzc2ek0wIC42NjZsMTIuOTc2IDQ5LjUwMkgyOS4yMkwxNi44OTcgOC4yODN6Ii8+JiN4YTs8L3N2Zz4=;" vertex="1" parent="FTfIXSgOv3IFhvUN12KH-57">
          <mxGeometry width="30" height="30" relative="1" as="geometry">
            <mxPoint x="15" y="15" as="offset" />
          </mxGeometry>
        </mxCell>
        <mxCell id="FTfIXSgOv3IFhvUN12KH-84" value="" style="edgeStyle=none;curved=1;rounded=0;orthogonalLoop=1;jettySize=auto;html=1;fontSize=12;startSize=8;endSize=8;" edge="1" parent="1" source="FTfIXSgOv3IFhvUN12KH-59" target="FTfIXSgOv3IFhvUN12KH-83">
          <mxGeometry relative="1" as="geometry" />
        </mxCell>
        <mxCell id="FTfIXSgOv3IFhvUN12KH-59" value="" style="strokeColor=#dddddd;shadow=1;strokeWidth=1;rounded=1;absoluteArcSize=1;arcSize=2;" vertex="1" parent="1">
          <mxGeometry x="-169" y="727.69" width="164" height="60" as="geometry" />
        </mxCell>
        <mxCell id="FTfIXSgOv3IFhvUN12KH-60" value="&lt;font color=&quot;#000000&quot;&gt;API team report&lt;/font&gt;&lt;br&gt;Cloud Run" style="editableCssRules=.*;html=1;fontColor=#999999;shape=image;verticalLabelPosition=middle;verticalAlign=middle;labelPosition=right;align=left;spacingLeft=20;part=1;points=[];imageAspect=0;image=data:image/svg+xml,PHN2ZyB4bWxucz0iaHR0cDovL3d3dy53My5vcmcvMjAwMC9zdmciIHhtbG5zOnY9Imh0dHBzOi8vdmVjdGEuaW8vbmFubyIgd2lkdGg9IjM2NS40NjQ5OTY3NzA0MjQ5MyIgaGVpZ2h0PSIzNzkuMjIyOTk0NDYzNTc3OTUiIHZpZXdCb3g9IjAgMCA5Ni42OTU5OTkxNDU1MDc4MSAxMDAuMzM1OTk4NTM1MTU2MjUiPiYjeGE7PHN0eWxlIHR5cGU9InRleHQvY3NzIj4mI3hhOwkuc3Qwe2ZpbGw6IzQyODVmNDt9JiN4YTsJLnN0MXtmaWxsOiNhZWNiZmE7fSYjeGE7PC9zdHlsZT4mI3hhOwk8cGF0aCBjbGFzcz0ic3QwIiBkPSJNMjkuNzk0IDEwMC4zMzZMNDYuOTIgNTAuMTY4aDQ5Ljc3NnpNMCA5OS42NzFsMTIuOTc2LTQ5LjUwMkgyOS4yMkwxNi44OTcgOTIuMDU0eiIvPiYjeGE7CTxwYXRoIGNsYXNzPSJzdDEiIGQ9Ik0yOS43OTQgMEw0Ni45MiA1MC4xNjhoNDkuNzc2ek0wIC42NjZsMTIuOTc2IDQ5LjUwMkgyOS4yMkwxNi44OTcgOC4yODN6Ii8+JiN4YTs8L3N2Zz4=;" vertex="1" parent="FTfIXSgOv3IFhvUN12KH-59">
          <mxGeometry width="30" height="30" relative="1" as="geometry">
            <mxPoint x="15" y="15" as="offset" />
          </mxGeometry>
        </mxCell>
        <mxCell id="FTfIXSgOv3IFhvUN12KH-82" value="" style="edgeStyle=none;curved=1;rounded=0;orthogonalLoop=1;jettySize=auto;html=1;fontSize=12;startSize=8;endSize=8;" edge="1" parent="1" source="FTfIXSgOv3IFhvUN12KH-61" target="FTfIXSgOv3IFhvUN12KH-81">
          <mxGeometry relative="1" as="geometry" />
        </mxCell>
        <mxCell id="FTfIXSgOv3IFhvUN12KH-61" value="" style="strokeColor=#dddddd;shadow=1;strokeWidth=1;rounded=1;absoluteArcSize=1;arcSize=2;" vertex="1" parent="1">
          <mxGeometry x="-169" y="619.69" width="174" height="60" as="geometry" />
        </mxCell>
        <mxCell id="FTfIXSgOv3IFhvUN12KH-62" value="&lt;font color=&quot;#000000&quot;&gt;API players report&lt;/font&gt;&lt;br&gt;Cloud Run" style="editableCssRules=.*;html=1;fontColor=#999999;shape=image;verticalLabelPosition=middle;verticalAlign=middle;labelPosition=right;align=left;spacingLeft=20;part=1;points=[];imageAspect=0;image=data:image/svg+xml,PHN2ZyB4bWxucz0iaHR0cDovL3d3dy53My5vcmcvMjAwMC9zdmciIHhtbG5zOnY9Imh0dHBzOi8vdmVjdGEuaW8vbmFubyIgd2lkdGg9IjM2NS40NjQ5OTY3NzA0MjQ5MyIgaGVpZ2h0PSIzNzkuMjIyOTk0NDYzNTc3OTUiIHZpZXdCb3g9IjAgMCA5Ni42OTU5OTkxNDU1MDc4MSAxMDAuMzM1OTk4NTM1MTU2MjUiPiYjeGE7PHN0eWxlIHR5cGU9InRleHQvY3NzIj4mI3hhOwkuc3Qwe2ZpbGw6IzQyODVmNDt9JiN4YTsJLnN0MXtmaWxsOiNhZWNiZmE7fSYjeGE7PC9zdHlsZT4mI3hhOwk8cGF0aCBjbGFzcz0ic3QwIiBkPSJNMjkuNzk0IDEwMC4zMzZMNDYuOTIgNTAuMTY4aDQ5Ljc3NnpNMCA5OS42NzFsMTIuOTc2LTQ5LjUwMkgyOS4yMkwxNi44OTcgOTIuMDU0eiIvPiYjeGE7CTxwYXRoIGNsYXNzPSJzdDEiIGQ9Ik0yOS43OTQgMEw0Ni45MiA1MC4xNjhoNDkuNzc2ek0wIC42NjZsMTIuOTc2IDQ5LjUwMkgyOS4yMkwxNi44OTcgOC4yODN6Ii8+JiN4YTs8L3N2Zz4=;" vertex="1" parent="FTfIXSgOv3IFhvUN12KH-61">
          <mxGeometry width="30" height="30" relative="1" as="geometry">
            <mxPoint x="15" y="15" as="offset" />
          </mxGeometry>
        </mxCell>
        <mxCell id="FTfIXSgOv3IFhvUN12KH-65" style="edgeStyle=none;curved=1;rounded=0;orthogonalLoop=1;jettySize=auto;html=1;entryX=0.99;entryY=0.617;entryDx=0;entryDy=0;entryPerimeter=0;fontSize=12;startSize=8;endSize=8;" edge="1" parent="1" source="FTfIXSgOv3IFhvUN12KH-51" target="FTfIXSgOv3IFhvUN12KH-54">
          <mxGeometry relative="1" as="geometry" />
        </mxCell>
        <mxCell id="FTfIXSgOv3IFhvUN12KH-66" value="&lt;b&gt;in&lt;/b&gt; : csv" style="edgeLabel;html=1;align=center;verticalAlign=middle;resizable=0;points=[];fontSize=12;" vertex="1" connectable="0" parent="FTfIXSgOv3IFhvUN12KH-65">
          <mxGeometry x="0.6684" y="2" relative="1" as="geometry">
            <mxPoint x="3" y="1" as="offset" />
          </mxGeometry>
        </mxCell>
        <mxCell id="FTfIXSgOv3IFhvUN12KH-68" value="" style="strokeColor=#dddddd;shadow=1;strokeWidth=1;rounded=1;absoluteArcSize=1;arcSize=2;" vertex="1" parent="1">
          <mxGeometry x="-1031" y="637.69" width="225" height="60" as="geometry" />
        </mxCell>
        <mxCell id="FTfIXSgOv3IFhvUN12KH-69" value="&lt;div&gt;&lt;font color=&quot;#000000&quot;&gt;two_half/mach_id_H1.mp4&lt;br&gt;&lt;/font&gt;&lt;/div&gt;&lt;div&gt;&lt;font color=&quot;#000000&quot;&gt;two_half/match_id_H2.mp4&lt;br&gt;&lt;/font&gt;&lt;/div&gt;video-to-pipeline" style="editableCssRules=.*;html=1;fontColor=#999999;shape=image;verticalLabelPosition=middle;verticalAlign=middle;labelPosition=right;align=left;spacingLeft=20;part=1;points=[];imageAspect=0;image=data:image/svg+xml,PHN2ZyB4bWxucz0iaHR0cDovL3d3dy53My5vcmcvMjAwMC9zdmciIHhtbG5zOnY9Imh0dHBzOi8vdmVjdGEuaW8vbmFubyIgd2lkdGg9IjIwIiBoZWlnaHQ9IjE2IiB2aWV3Qm94PSIwIDAgMjAgMTYiPiYjeGE7CTxzdHlsZSB0eXBlPSJ0ZXh0L2NzcyI+JiN4YTsJLnN0MHtmaWxsOiM0Mjg1ZjQ7fSYjeGE7CS5zdDF7ZmlsbDojNjY5ZGY2O30mI3hhOwkuc3Qye2ZpbGw6I2FlY2JmYTt9JiN4YTsJLnN0M3tmaWxsOiNmZmY7fSYjeGE7CTwvc3R5bGU+JiN4YTsJPHBhdGggY2xhc3M9InN0MiIgZD0iTTAgMGgyMHY3SDB6Ii8+JiN4YTsJPHBhdGggY2xhc3M9InN0MSIgZD0iTTE4IDBoMnY3aC0yeiIvPiYjeGE7CTxwYXRoIGNsYXNzPSJzdDAiIGQ9Ik0xOCA3bDItN2gtMnoiLz4mI3hhOwk8cGF0aCBjbGFzcz0ic3QxIiBkPSJNMCAwaDJ2N0gweiIvPiYjeGE7CTxnIGNsYXNzPSJzdDMiPiYjeGE7CQk8cGF0aCBkPSJNNCAzaDZ2MUg0eiIvPiYjeGE7CQk8cmVjdCB4PSIxMyIgeT0iMiIgd2lkdGg9IjMiIGhlaWdodD0iMyIgcng9IjEuNSIvPiYjeGE7CTwvZz4mI3hhOwk8cGF0aCBjbGFzcz0ic3QyIiBkPSJNMCA5aDIwdjdIMHoiLz4mI3hhOwk8cGF0aCBjbGFzcz0ic3QxIiBkPSJNMTggOWgydjdoLTJ6Ii8+JiN4YTsJPHBhdGggY2xhc3M9InN0MCIgZD0iTTE4IDE2bDItN2gtMnoiLz4mI3hhOwk8cGF0aCBjbGFzcz0ic3QxIiBkPSJNMCA5aDJ2N0gweiIvPiYjeGE7CTxnIGNsYXNzPSJzdDMiPiYjeGE7CQk8cGF0aCBkPSJNNCAxMmg2djFINHoiLz4mI3hhOwkJPHJlY3QgeD0iMTMiIHk9IjExIiB3aWR0aD0iMyIgaGVpZ2h0PSIzIiByeD0iMS41Ii8+JiN4YTsJPC9nPiYjeGE7PC9zdmc+;" vertex="1" parent="FTfIXSgOv3IFhvUN12KH-68">
          <mxGeometry width="30" height="24" relative="1" as="geometry">
            <mxPoint x="15" y="18" as="offset" />
          </mxGeometry>
        </mxCell>
        <mxCell id="FTfIXSgOv3IFhvUN12KH-71" value="" style="dashed=0;outlineConnect=0;html=1;align=center;labelPosition=center;verticalLabelPosition=bottom;verticalAlign=top;shape=mxgraph.webicons.mongodb;gradientColor=#DFDEDE" vertex="1" parent="1">
          <mxGeometry x="-866" y="744.69" width="60" height="60" as="geometry" />
        </mxCell>
        <mxCell id="FTfIXSgOv3IFhvUN12KH-73" value="&lt;div align=&quot;center&quot;&gt;&lt;font style=&quot;font-size: 16px;&quot;&gt;&lt;b&gt;1&lt;/b&gt;&lt;/font&gt;&lt;/div&gt;" style="ellipse;whiteSpace=wrap;html=1;aspect=fixed;align=center;" vertex="1" parent="1">
          <mxGeometry x="-440" y="607.69" width="27" height="27" as="geometry" />
        </mxCell>
        <mxCell id="FTfIXSgOv3IFhvUN12KH-80" value="&lt;div align=&quot;center&quot;&gt;&lt;b&gt;2&lt;/b&gt;&lt;/div&gt;" style="ellipse;whiteSpace=wrap;html=1;aspect=fixed;align=center;" vertex="1" parent="1">
          <mxGeometry x="-294" y="607.69" width="27" height="27" as="geometry" />
        </mxCell>
        <mxCell id="FTfIXSgOv3IFhvUN12KH-81" value="" style="dashed=0;outlineConnect=0;html=1;align=center;labelPosition=center;verticalLabelPosition=bottom;verticalAlign=top;shape=mxgraph.webicons.mongodb;gradientColor=#DFDEDE" vertex="1" parent="1">
          <mxGeometry x="78" y="619.69" width="60" height="60" as="geometry" />
        </mxCell>
        <mxCell id="FTfIXSgOv3IFhvUN12KH-83" value="" style="dashed=0;outlineConnect=0;html=1;align=center;labelPosition=center;verticalLabelPosition=bottom;verticalAlign=top;shape=mxgraph.webicons.mongodb;gradientColor=#DFDEDE" vertex="1" parent="1">
          <mxGeometry x="78" y="727.69" width="60" height="60" as="geometry" />
        </mxCell>
      </root>
    </mxGraphModel>
  </diagram>
  <diagram id="Oe2aCEMiwx_l9uXRTxdA" name="Sportlogiq tracking">
    <mxGraphModel dx="921" dy="1493" grid="0" gridSize="10" guides="1" tooltips="1" connect="1" arrows="1" fold="1" page="0" pageScale="1" pageWidth="4681" pageHeight="3300" math="0" shadow="0">
      <root>
        <mxCell id="0" />
        <mxCell id="1" parent="0" />
        <mxCell id="ZkOrWmyLlD2aejvwlaCL-48" style="edgeStyle=none;curved=1;rounded=0;orthogonalLoop=1;jettySize=auto;html=1;entryX=0.54;entryY=0;entryDx=0;entryDy=0;fontSize=12;startSize=8;endSize=8;entryPerimeter=0;" edge="1" parent="1" source="ZkOrWmyLlD2aejvwlaCL-50" target="ZkOrWmyLlD2aejvwlaCL-52">
          <mxGeometry relative="1" as="geometry" />
        </mxCell>
        <mxCell id="ZkOrWmyLlD2aejvwlaCL-49" value="&lt;div&gt;DÃ©pot&lt;/div&gt;" style="edgeLabel;html=1;align=center;verticalAlign=middle;resizable=0;points=[];fontSize=12;" vertex="1" connectable="0" parent="ZkOrWmyLlD2aejvwlaCL-48">
          <mxGeometry x="-0.3228" y="-1" relative="1" as="geometry">
            <mxPoint x="1" y="3" as="offset" />
          </mxGeometry>
        </mxCell>
        <mxCell id="ZkOrWmyLlD2aejvwlaCL-50" value="Front" style="rounded=1;whiteSpace=wrap;html=1;" vertex="1" parent="1">
          <mxGeometry x="1646" y="-127" width="120" height="60" as="geometry" />
        </mxCell>
        <mxCell id="ZkOrWmyLlD2aejvwlaCL-51" value="" style="edgeStyle=none;curved=1;rounded=0;orthogonalLoop=1;jettySize=auto;html=1;fontSize=12;startSize=8;endSize=8;exitX=0.5;exitY=1;exitDx=0;exitDy=0;" edge="1" parent="1" source="ZkOrWmyLlD2aejvwlaCL-52" target="ZkOrWmyLlD2aejvwlaCL-55">
          <mxGeometry relative="1" as="geometry">
            <mxPoint x="1702" y="86" as="sourcePoint" />
          </mxGeometry>
        </mxCell>
        <mxCell id="ZkOrWmyLlD2aejvwlaCL-52" value="" style="strokeColor=#dddddd;shadow=1;strokeWidth=1;rounded=1;absoluteArcSize=1;arcSize=2;" vertex="1" parent="1">
          <mxGeometry x="1613" y="9" width="171" height="60" as="geometry" />
        </mxCell>
        <mxCell id="ZkOrWmyLlD2aejvwlaCL-53" value="&lt;font color=&quot;#000000&quot;&gt;match_id.mp4&lt;/font&gt;&lt;br&gt;video-to-pipeline" style="editableCssRules=.*;html=1;fontColor=#999999;shape=image;verticalLabelPosition=middle;verticalAlign=middle;labelPosition=right;align=left;spacingLeft=20;part=1;points=[];imageAspect=0;image=data:image/svg+xml,PHN2ZyB4bWxucz0iaHR0cDovL3d3dy53My5vcmcvMjAwMC9zdmciIHhtbG5zOnY9Imh0dHBzOi8vdmVjdGEuaW8vbmFubyIgd2lkdGg9IjIwIiBoZWlnaHQ9IjE2IiB2aWV3Qm94PSIwIDAgMjAgMTYiPiYjeGE7CTxzdHlsZSB0eXBlPSJ0ZXh0L2NzcyI+JiN4YTsJLnN0MHtmaWxsOiM0Mjg1ZjQ7fSYjeGE7CS5zdDF7ZmlsbDojNjY5ZGY2O30mI3hhOwkuc3Qye2ZpbGw6I2FlY2JmYTt9JiN4YTsJLnN0M3tmaWxsOiNmZmY7fSYjeGE7CTwvc3R5bGU+JiN4YTsJPHBhdGggY2xhc3M9InN0MiIgZD0iTTAgMGgyMHY3SDB6Ii8+JiN4YTsJPHBhdGggY2xhc3M9InN0MSIgZD0iTTE4IDBoMnY3aC0yeiIvPiYjeGE7CTxwYXRoIGNsYXNzPSJzdDAiIGQ9Ik0xOCA3bDItN2gtMnoiLz4mI3hhOwk8cGF0aCBjbGFzcz0ic3QxIiBkPSJNMCAwaDJ2N0gweiIvPiYjeGE7CTxnIGNsYXNzPSJzdDMiPiYjeGE7CQk8cGF0aCBkPSJNNCAzaDZ2MUg0eiIvPiYjeGE7CQk8cmVjdCB4PSIxMyIgeT0iMiIgd2lkdGg9IjMiIGhlaWdodD0iMyIgcng9IjEuNSIvPiYjeGE7CTwvZz4mI3hhOwk8cGF0aCBjbGFzcz0ic3QyIiBkPSJNMCA5aDIwdjdIMHoiLz4mI3hhOwk8cGF0aCBjbGFzcz0ic3QxIiBkPSJNMTggOWgydjdoLTJ6Ii8+JiN4YTsJPHBhdGggY2xhc3M9InN0MCIgZD0iTTE4IDE2bDItN2gtMnoiLz4mI3hhOwk8cGF0aCBjbGFzcz0ic3QxIiBkPSJNMCA5aDJ2N0gweiIvPiYjeGE7CTxnIGNsYXNzPSJzdDMiPiYjeGE7CQk8cGF0aCBkPSJNNCAxMmg2djFINHoiLz4mI3hhOwkJPHJlY3QgeD0iMTMiIHk9IjExIiB3aWR0aD0iMyIgaGVpZ2h0PSIzIiByeD0iMS41Ii8+JiN4YTsJPC9nPiYjeGE7PC9zdmc+;" vertex="1" parent="ZkOrWmyLlD2aejvwlaCL-52">
          <mxGeometry width="30" height="24" relative="1" as="geometry">
            <mxPoint x="15" y="18" as="offset" />
          </mxGeometry>
        </mxCell>
        <mxCell id="ZkOrWmyLlD2aejvwlaCL-54" value="" style="edgeStyle=none;curved=1;rounded=0;orthogonalLoop=1;jettySize=auto;html=1;fontSize=12;startSize=8;endSize=8;entryX=0.5;entryY=0;entryDx=0;entryDy=0;exitX=0.5;exitY=1;exitDx=0;exitDy=0;" edge="1" parent="1" source="ZkOrWmyLlD2aejvwlaCL-55" target="ZkOrWmyLlD2aejvwlaCL-91">
          <mxGeometry relative="1" as="geometry">
            <mxPoint x="2246" y="-86" as="targetPoint" />
          </mxGeometry>
        </mxCell>
        <mxCell id="ZkOrWmyLlD2aejvwlaCL-55" value="Eventarc" style="sketch=0;html=1;verticalAlign=top;labelPosition=center;verticalLabelPosition=bottom;align=center;spacingTop=-6;fontSize=11;fontStyle=1;fontColor=#999999;shape=image;aspect=fixed;imageAspect=0;image=data:image/svg+xml,PHN2ZyB4bWxucz0iaHR0cDovL3d3dy53My5vcmcvMjAwMC9zdmciIGlkPSJzdmc4MzgiIHZlcnNpb249IjEuMSIgdmlld0JveD0iMCAwIDE2NC4zNDc1OCAxNjQuMzQ3NiIgaGVpZ2h0PSIxNjQuMzQ3Nm1tIiB3aWR0aD0iMTY0LjM0NzU4bW0iPiYjeGE7ICA8cGF0aCBkPSJtIDEyMy43NzczOCwzMy41NDQ5NDIgLTg5LjgwODYwMSw4OS4zMjYxNjggOC4xMDkzNzUsOC4xNTQzIDg5LjgwODU5NiwtODkuMzI2MTY3IHogTSAxNC41MDgxOTcsMzUuNTkxNzMzIEMgNS4zNjEyNTIsNDguODM4NjEzIDAsNjQuODkxMTUzIDAsODIuMTczNzkzIGMgMWUtNiw5LjI1NTM0IDEuNTYwNDAxLDE4LjE0NzQzNyA0LjM5MzUzLDI2LjQ1NTIyNyAzLjA2OTg2MywtMi40MzY5NiA2LjUxMjg4MywtNC4zNjI1NSAxMC4xOTYyNzcsLTUuNzAyNDkgLTIuMDA0OTk2LC02LjU2MDIwNyAtMy4wODk3MzIsLTEzLjUyNjU2NyAtMy4wODk3MzIsLTIwLjc1MjczNyAwLC0xNC45NzI0NyA0LjYyOTY1LC0yOC44NDEyNyAxMi41Mzg3NywtNDAuMjU2MjEgeiBNIDQxLjUwNzc0NSwyNC4zMjQ5NjYgYyAxMS40OTIxMTEsLTguMDgzNDczIDI1LjUxMzkxOSwtMTIuODI0ODk0IDQwLjY2NjA1MSwtMTIuODI0ODk0IDcuMjIxOTksMCAxNC4xODYwMSwxLjA3OTcyMiAyMC43NDI5MjQsMy4wODI0OTkgMS4zOTExMSwtMy42ODE2MDggMy4zNjk2LC03LjExMzQ3NCA1Ljg1ODU1LC0xMC4xNjIxNyBDIDEwMC40MjgzMywxLjU1NzMzMiA5MS40ODAwOTYsMCA4Mi4xNzM3OTYsMCA2NC42NzY0MzcsMCA0OC40Mzk5NCw1LjQ5NTI5MiAzNS4wOTkzMiwxNC44NTA4NjEgWiBNIDEyMi43OTAzNiwxNDAuMDU3NCBjIC0xMS40ODI4Niw4LjA2MjMgLTI1LjQ4NjE3NCwxMi43OTAxMiAtNDAuNjE2NTY0LDEyLjc5MDExIC03LjI4NTE4OSwwIC0xNC4zMDc5NSwtMS4wOTg1OCAtMjAuOTE1MDAzLC0zLjEzNTIxIC0xLjM0OTc5LDMuNjc4NzYgLTMuMjg0MjYyLDcuMTE1NjUgLTUuNzI4ODUxLDEwLjE3ODE5IDguMzYxNTE2LDIuODc0MjYgMTcuMzE4NTU5LDQuNDU3MDkgMjYuNjQzODU0LDQuNDU3MSAxNy40OTQ3OSwwIDMzLjcyOTA5NCwtNS40OTM2OCA0Ny4wNjg2MDQsLTE0Ljg0Njc0IHogbSAyNy4xMzQyMiwtMTEuNDI1MTUgYyA5LjA5NTAzLC0xMy4yMjMwNyAxNC40MjMwMSwtMjkuMjI5NTI3IDE0LjQyMzAxLC00Ni40NTg0NTcgMCwtOS4yNTU0MSAtMS41MzkxNywtMTguMTU3MiAtNC4zNzIzNCwtMjYuNDY1MDUgLTMuMDUxMzIsMi40ODkxOCAtNi40ODYwMiw0LjQ2NzE3IC0xMC4xNzA0NCw1Ljg1NzAxIDEuOTc2NTMsNi41MTc2NSAzLjA0MjcxLDEzLjQzNTM4IDMuMDQyNzEsMjAuNjA4MDQgMCwxNS4wODgxNCAtNC43MDE0NSwyOS4wNTU0NzcgLTEyLjcyMjY0LDQwLjUyMDI5NyB6IiBzdHlsZT0iY29sb3I6IzAwMDAwMDtvcGFjaXR5OjE7ZmlsbDojNDI4NWY0O2ZpbGwtb3BhY2l0eToxOy1pbmtzY2FwZS1zdHJva2U6bm9uZSIvPiYjeGE7ICA8cGF0aCBkPSJNIDEwNi4wMDc4LDgyLjY0Njc2MyBBIDIzLjc1ODk3NiwyMy43NTg5NzYgMCAwIDEgODIuMjQ4ODE2LDEwNi40MDU3NCAyMy43NTg5NzYsMjMuNzU4OTc2IDAgMCAxIDU4LjQ4OTg0LDgyLjY0Njc2MyAyMy43NTg5NzYsMjMuNzU4OTc2IDAgMCAxIDgyLjI0ODgxNiw1OC44ODc3ODMgMjMuNzU4OTc2LDIzLjc1ODk3NiAwIDAgMSAxMDYuMDA3OCw4Mi42NDY3NjMgWiIgc3R5bGU9ImNvbG9yOiMwMDAwMDA7b3BhY2l0eToxO2ZpbGw6IzY2OWRmNjtmaWxsLW9wYWNpdHk6MTtzdHJva2Utd2lkdGg6MTEuNTtzdHJva2UtbGluZWNhcDpyb3VuZDstaW5rc2NhcGUtc3Ryb2tlOm5vbmUiLz4mI3hhOyAgPHBhdGggZD0ibSAxMzYuODc4OTQsMTE3LjEzNDc4IGMgLTExLjA1Nzc1LDAgLTIwLjE0NDU0LDkuMDg4NzQgLTIwLjE0NDUzLDIwLjE0NjQ5IDAsMTEuMDU3NzQgOS4wODY3OSwyMC4xNDQ1MyAyMC4xNDQ1MywyMC4xNDQ1MyAxMS4wNTc3MywwIDIwLjE0NjQ4LC05LjA4NjggMjAuMTQ2NDgsLTIwLjE0NDUzIDFlLTUsLTExLjA1Nzc0IC05LjA4ODc0LC0yMC4xNDY0OCAtMjAuMTQ2NDgsLTIwLjE0NjQ5IHogbSAwLDExLjUgYyA0Ljg0MjY4LDAgOC42NDY0OSwzLjgwMzggOC42NDY0OCw4LjY0NjQ5IDAsNC44NDI2OCAtMy44MDM4LDguNjQ0NTMgLTguNjQ2NDgsOC42NDQ1MyAtNC44NDI2OCwwIC04LjY0NDUzLC0zLjgwMTg1IC04LjY0NDUzLC04LjY0NDUzIDAsLTQuODQyNjkgMy44MDE4NCwtOC42NDY0OSA4LjY0NDUzLC04LjY0NjQ5IHogTSAyNy4wOTU3MzIsMTE2Ljk3NDYzIGMgLTExLjA1NzczNiwwIC0yMC4xNDQ1MjgsOS4wODY3OSAtMjAuMTQ0NTMxLDIwLjE0NDUzIC01ZS02LDExLjA1Nzc0IDkuMDg2NzksMjAuMTQ2NDggMjAuMTQ0NTMxLDIwLjE0NjQ4IDExLjA1Nzc0MiwwIDIwLjE0NjQ4OSwtOS4wODg3NCAyMC4xNDY0ODUsLTIwLjE0NjQ4IC0zZS02LC0xMS4wNTc3NCAtOS4wODg3NDgsLTIwLjE0NDUzIC0yMC4xNDY0ODUsLTIwLjE0NDUzIHogbSAwLDExLjUgYyA0Ljg0MjY4MiwwIDguNjQ2NDgzLDMuODAxODUgOC42NDY0ODUsOC42NDQ1MyAyZS02LDQuODQyNjggLTMuODAzOCw4LjY0NjQ4IC04LjY0NjQ4NSw4LjY0NjQ4IC00Ljg0MjY4NCwwIC04LjY0NDUzMywtMy44MDM4IC04LjY0NDUzMSwtOC42NDY0OCAxMGUtNywtNC44NDI2OCAzLjgwMTg0OSwtOC42NDQ1MyA4LjY0NDUzMSwtOC42NDQ1MyB6IE0gMTM2Ljk0MTQ0LDcuMzQzNzcgYyAtMTEuMDU3NzQsM2UtNiAtMjAuMTQ2NDksOS4wODY3OTUgLTIwLjE0NjQ5LDIwLjE0NDUzMSAwLDExLjA1Nzc0MiA5LjA4ODc1LDIwLjE0NjQ4MiAyMC4xNDY0OSwyMC4xNDY0ODIgMTEuMDU3NzQsMWUtNSAyMC4xNDQ1MywtOS4wODg3NCAyMC4xNDQ1MywtMjAuMTQ2NDgyIDAsLTExLjA1Nzc0MSAtOS4wODY3OSwtMjAuMTQ0NTM2IC0yMC4xNDQ1MywtMjAuMTQ0NTMxIHogbSAwLDExLjUgYyA0Ljg0MjY4LC0yZS02IDguNjQ0NTMsMy44MDE4NDcgOC42NDQ1Myw4LjY0NDUzMSAwLDQuODQyNjg1IC0zLjgwMTg1LDguNjQ2NDgyIC04LjY0NDUzLDguNjQ2NDgyIC00Ljg0MjY4LDAgLTguNjQ2NDksLTMuODAzNzk5IC04LjY0NjQ5LC04LjY0NjQ4MiAwLC00Ljg0MjY4MiAzLjgwMzgxLC04LjY0NDUzIDguNjQ2NDksLTguNjQ0NTMxIHogTSAyNy4wODk4NzMsNy40Mzc1MiBjIC0xMS4wNTc3MzksLTFlLTYgLTIwLjE0NDUzMSw5LjA4Njc5MiAtMjAuMTQ0NTMxLDIwLjE0NDUzMSAyZS02LDExLjA1Nzc0MiA5LjA4Njc5NCwyMC4xNDQ1MzIgMjAuMTQ0NTMxLDIwLjE0NDUzMiAxMS4wNTc3MzYsMCAyMC4xNDY0ODIsLTkuMDg2OCAyMC4xNDY0ODQsLTIwLjE0NDUzMiAwLC0xMS4wNTc3MzggLTkuMDg4NzQ2LC0yMC4xNDQ1MzEgLTIwLjE0NjQ4NCwtMjAuMTQ0NTMxIHogbSAwLDExLjUgYyA0Ljg0MjY4MywwIDguNjQ2NDg0LDMuODAxODQ4IDguNjQ2NDg0LDguNjQ0NTMxIC0xMGUtNyw0Ljg0MjY4MiAtMy44MDM4MDIsOC42NDQ1MzIgLTguNjQ2NDg0LDguNjQ0NTMyIC00Ljg0MjY4MywwIC04LjY0NDUzLC0zLjgwMTg0OSAtOC42NDQ1MzEsLTguNjQ0NTMyIDAsLTQuODQyNjgzIDMuODAxODQ4LC04LjY0NDUzMSA4LjY0NDUzMSwtOC42NDQ1MzEgeiIgc3R5bGU9ImNvbG9yOiMwMDAwMDA7b3BhY2l0eToxO2ZpbGw6I2FlY2JmYTtmaWxsLW9wYWNpdHk6MTtzdHJva2UtbGluZWNhcDpyb3VuZDstaW5rc2NhcGUtc3Ryb2tlOm5vbmUiLz4mI3hhOzwvc3ZnPg==;" vertex="1" parent="1">
          <mxGeometry x="1677.5" y="156" width="42" height="42" as="geometry" />
        </mxCell>
        <mxCell id="ZkOrWmyLlD2aejvwlaCL-56" style="edgeStyle=none;curved=1;rounded=0;orthogonalLoop=1;jettySize=auto;html=1;entryX=0.5;entryY=0;entryDx=0;entryDy=0;fontSize=12;startSize=8;endSize=8;dashed=1;" edge="1" parent="1" source="ZkOrWmyLlD2aejvwlaCL-57" target="ZkOrWmyLlD2aejvwlaCL-59">
          <mxGeometry relative="1" as="geometry" />
        </mxCell>
        <mxCell id="ZkOrWmyLlD2aejvwlaCL-57" value="" style="strokeColor=#dddddd;shadow=1;strokeWidth=1;rounded=1;absoluteArcSize=1;arcSize=2;" vertex="1" parent="1">
          <mxGeometry x="2029" y="302" width="148" height="58" as="geometry" />
        </mxCell>
        <mxCell id="ZkOrWmyLlD2aejvwlaCL-58" value="&lt;div&gt;&lt;font color=&quot;#000000&quot;&gt;API Send to&lt;/font&gt;&lt;/div&gt;&lt;div&gt;&lt;font color=&quot;#000000&quot;&gt;Sportlogiq&lt;br&gt;&lt;/font&gt;&lt;/div&gt;Cloud Run" style="editableCssRules=.*;html=1;fontColor=#999999;shape=image;verticalLabelPosition=middle;verticalAlign=middle;labelPosition=right;align=left;spacingLeft=20;part=1;points=[];imageAspect=0;image=data:image/svg+xml,PHN2ZyB4bWxucz0iaHR0cDovL3d3dy53My5vcmcvMjAwMC9zdmciIHhtbG5zOnY9Imh0dHBzOi8vdmVjdGEuaW8vbmFubyIgd2lkdGg9IjM2NS40NjQ5OTY3NzA0MjQ5MyIgaGVpZ2h0PSIzNzkuMjIyOTk0NDYzNTc3OTUiIHZpZXdCb3g9IjAgMCA5Ni42OTU5OTkxNDU1MDc4MSAxMDAuMzM1OTk4NTM1MTU2MjUiPiYjeGE7PHN0eWxlIHR5cGU9InRleHQvY3NzIj4mI3hhOwkuc3Qwe2ZpbGw6IzQyODVmNDt9JiN4YTsJLnN0MXtmaWxsOiNhZWNiZmE7fSYjeGE7PC9zdHlsZT4mI3hhOwk8cGF0aCBjbGFzcz0ic3QwIiBkPSJNMjkuNzk0IDEwMC4zMzZMNDYuOTIgNTAuMTY4aDQ5Ljc3NnpNMCA5OS42NzFsMTIuOTc2LTQ5LjUwMkgyOS4yMkwxNi44OTcgOTIuMDU0eiIvPiYjeGE7CTxwYXRoIGNsYXNzPSJzdDEiIGQ9Ik0yOS43OTQgMEw0Ni45MiA1MC4xNjhoNDkuNzc2ek0wIC42NjZsMTIuOTc2IDQ5LjUwMkgyOS4yMkwxNi44OTcgOC4yODN6Ii8+JiN4YTs8L3N2Zz4=;" vertex="1" parent="ZkOrWmyLlD2aejvwlaCL-57">
          <mxGeometry width="30" height="30" relative="1" as="geometry">
            <mxPoint x="15" y="15" as="offset" />
          </mxGeometry>
        </mxCell>
        <mxCell id="ZkOrWmyLlD2aejvwlaCL-100" value="" style="edgeStyle=none;curved=1;rounded=0;orthogonalLoop=1;jettySize=auto;html=1;fontSize=12;startSize=8;endSize=8;" edge="1" parent="1" source="ZkOrWmyLlD2aejvwlaCL-59" target="ZkOrWmyLlD2aejvwlaCL-99">
          <mxGeometry relative="1" as="geometry" />
        </mxCell>
        <mxCell id="ZkOrWmyLlD2aejvwlaCL-59" value="" style="strokeColor=#dddddd;shadow=1;strokeWidth=1;rounded=1;absoluteArcSize=1;arcSize=2;" vertex="1" parent="1">
          <mxGeometry x="1998" y="498" width="210" height="60" as="geometry" />
        </mxCell>
        <mxCell id="ZkOrWmyLlD2aejvwlaCL-60" value="&lt;font color=&quot;#000000&quot;&gt;tracking_match_id.csv&lt;/font&gt;&lt;br&gt;video-to-pipeline" style="editableCssRules=.*;html=1;fontColor=#999999;shape=image;verticalLabelPosition=middle;verticalAlign=middle;labelPosition=right;align=left;spacingLeft=20;part=1;points=[];imageAspect=0;image=data:image/svg+xml,PHN2ZyB4bWxucz0iaHR0cDovL3d3dy53My5vcmcvMjAwMC9zdmciIHhtbG5zOnY9Imh0dHBzOi8vdmVjdGEuaW8vbmFubyIgd2lkdGg9IjIwIiBoZWlnaHQ9IjE2IiB2aWV3Qm94PSIwIDAgMjAgMTYiPiYjeGE7CTxzdHlsZSB0eXBlPSJ0ZXh0L2NzcyI+JiN4YTsJLnN0MHtmaWxsOiM0Mjg1ZjQ7fSYjeGE7CS5zdDF7ZmlsbDojNjY5ZGY2O30mI3hhOwkuc3Qye2ZpbGw6I2FlY2JmYTt9JiN4YTsJLnN0M3tmaWxsOiNmZmY7fSYjeGE7CTwvc3R5bGU+JiN4YTsJPHBhdGggY2xhc3M9InN0MiIgZD0iTTAgMGgyMHY3SDB6Ii8+JiN4YTsJPHBhdGggY2xhc3M9InN0MSIgZD0iTTE4IDBoMnY3aC0yeiIvPiYjeGE7CTxwYXRoIGNsYXNzPSJzdDAiIGQ9Ik0xOCA3bDItN2gtMnoiLz4mI3hhOwk8cGF0aCBjbGFzcz0ic3QxIiBkPSJNMCAwaDJ2N0gweiIvPiYjeGE7CTxnIGNsYXNzPSJzdDMiPiYjeGE7CQk8cGF0aCBkPSJNNCAzaDZ2MUg0eiIvPiYjeGE7CQk8cmVjdCB4PSIxMyIgeT0iMiIgd2lkdGg9IjMiIGhlaWdodD0iMyIgcng9IjEuNSIvPiYjeGE7CTwvZz4mI3hhOwk8cGF0aCBjbGFzcz0ic3QyIiBkPSJNMCA5aDIwdjdIMHoiLz4mI3hhOwk8cGF0aCBjbGFzcz0ic3QxIiBkPSJNMTggOWgydjdoLTJ6Ii8+JiN4YTsJPHBhdGggY2xhc3M9InN0MCIgZD0iTTE4IDE2bDItN2gtMnoiLz4mI3hhOwk8cGF0aCBjbGFzcz0ic3QxIiBkPSJNMCA5aDJ2N0gweiIvPiYjeGE7CTxnIGNsYXNzPSJzdDMiPiYjeGE7CQk8cGF0aCBkPSJNNCAxMmg2djFINHoiLz4mI3hhOwkJPHJlY3QgeD0iMTMiIHk9IjExIiB3aWR0aD0iMyIgaGVpZ2h0PSIzIiByeD0iMS41Ii8+JiN4YTsJPC9nPiYjeGE7PC9zdmc+;" vertex="1" parent="ZkOrWmyLlD2aejvwlaCL-59">
          <mxGeometry width="30" height="24" relative="1" as="geometry">
            <mxPoint x="15" y="18" as="offset" />
          </mxGeometry>
        </mxCell>
        <mxCell id="ZkOrWmyLlD2aejvwlaCL-61" style="edgeStyle=none;curved=0;rounded=0;orthogonalLoop=1;jettySize=auto;html=1;exitX=0.5;exitY=1;exitDx=0;exitDy=0;fontSize=12;startSize=8;endSize=8;" edge="1" parent="1" source="ZkOrWmyLlD2aejvwlaCL-62" target="ZkOrWmyLlD2aejvwlaCL-65">
          <mxGeometry relative="1" as="geometry">
            <mxPoint x="1510.4705882352941" y="1368.6358823529413" as="targetPoint" />
            <Array as="points">
              <mxPoint x="2090" y="954" />
            </Array>
          </mxGeometry>
        </mxCell>
        <mxCell id="ZkOrWmyLlD2aejvwlaCL-62" value="" style="strokeColor=#dddddd;shadow=1;strokeWidth=1;rounded=1;absoluteArcSize=1;arcSize=2;" vertex="1" parent="1">
          <mxGeometry x="1986" y="730" width="210" height="60" as="geometry" />
        </mxCell>
        <mxCell id="ZkOrWmyLlD2aejvwlaCL-63" value="&lt;font color=&quot;#000000&quot;&gt;events_match_id.csv&lt;/font&gt;&lt;br&gt;video-to-pipeline" style="editableCssRules=.*;html=1;fontColor=#999999;shape=image;verticalLabelPosition=middle;verticalAlign=middle;labelPosition=right;align=left;spacingLeft=20;part=1;points=[];imageAspect=0;image=data:image/svg+xml,PHN2ZyB4bWxucz0iaHR0cDovL3d3dy53My5vcmcvMjAwMC9zdmciIHhtbG5zOnY9Imh0dHBzOi8vdmVjdGEuaW8vbmFubyIgd2lkdGg9IjIwIiBoZWlnaHQ9IjE2IiB2aWV3Qm94PSIwIDAgMjAgMTYiPiYjeGE7CTxzdHlsZSB0eXBlPSJ0ZXh0L2NzcyI+JiN4YTsJLnN0MHtmaWxsOiM0Mjg1ZjQ7fSYjeGE7CS5zdDF7ZmlsbDojNjY5ZGY2O30mI3hhOwkuc3Qye2ZpbGw6I2FlY2JmYTt9JiN4YTsJLnN0M3tmaWxsOiNmZmY7fSYjeGE7CTwvc3R5bGU+JiN4YTsJPHBhdGggY2xhc3M9InN0MiIgZD0iTTAgMGgyMHY3SDB6Ii8+JiN4YTsJPHBhdGggY2xhc3M9InN0MSIgZD0iTTE4IDBoMnY3aC0yeiIvPiYjeGE7CTxwYXRoIGNsYXNzPSJzdDAiIGQ9Ik0xOCA3bDItN2gtMnoiLz4mI3hhOwk8cGF0aCBjbGFzcz0ic3QxIiBkPSJNMCAwaDJ2N0gweiIvPiYjeGE7CTxnIGNsYXNzPSJzdDMiPiYjeGE7CQk8cGF0aCBkPSJNNCAzaDZ2MUg0eiIvPiYjeGE7CQk8cmVjdCB4PSIxMyIgeT0iMiIgd2lkdGg9IjMiIGhlaWdodD0iMyIgcng9IjEuNSIvPiYjeGE7CTwvZz4mI3hhOwk8cGF0aCBjbGFzcz0ic3QyIiBkPSJNMCA5aDIwdjdIMHoiLz4mI3hhOwk8cGF0aCBjbGFzcz0ic3QxIiBkPSJNMTggOWgydjdoLTJ6Ii8+JiN4YTsJPHBhdGggY2xhc3M9InN0MCIgZD0iTTE4IDE2bDItN2gtMnoiLz4mI3hhOwk8cGF0aCBjbGFzcz0ic3QxIiBkPSJNMCA5aDJ2N0gweiIvPiYjeGE7CTxnIGNsYXNzPSJzdDMiPiYjeGE7CQk8cGF0aCBkPSJNNCAxMmg2djFINHoiLz4mI3hhOwkJPHJlY3QgeD0iMTMiIHk9IjExIiB3aWR0aD0iMyIgaGVpZ2h0PSIzIiByeD0iMS41Ii8+JiN4YTsJPC9nPiYjeGE7PC9zdmc+;" vertex="1" parent="ZkOrWmyLlD2aejvwlaCL-62">
          <mxGeometry width="30" height="24" relative="1" as="geometry">
            <mxPoint x="15" y="18" as="offset" />
          </mxGeometry>
        </mxCell>
        <mxCell id="ZkOrWmyLlD2aejvwlaCL-64" style="edgeStyle=none;curved=1;rounded=0;orthogonalLoop=1;jettySize=auto;html=1;entryX=1;entryY=0.5;entryDx=0;entryDy=0;fontSize=12;startSize=8;endSize=8;" edge="1" parent="1" source="ZkOrWmyLlD2aejvwlaCL-65" target="ZkOrWmyLlD2aejvwlaCL-93">
          <mxGeometry relative="1" as="geometry" />
        </mxCell>
        <mxCell id="ZkOrWmyLlD2aejvwlaCL-65" value="Eventarc" style="sketch=0;html=1;verticalAlign=top;labelPosition=center;verticalLabelPosition=bottom;align=center;spacingTop=-6;fontSize=11;fontStyle=1;fontColor=#999999;shape=image;aspect=fixed;imageAspect=0;image=data:image/svg+xml,PHN2ZyB4bWxucz0iaHR0cDovL3d3dy53My5vcmcvMjAwMC9zdmciIGlkPSJzdmc4MzgiIHZlcnNpb249IjEuMSIgdmlld0JveD0iMCAwIDE2NC4zNDc1OCAxNjQuMzQ3NiIgaGVpZ2h0PSIxNjQuMzQ3Nm1tIiB3aWR0aD0iMTY0LjM0NzU4bW0iPiYjeGE7ICA8cGF0aCBkPSJtIDEyMy43NzczOCwzMy41NDQ5NDIgLTg5LjgwODYwMSw4OS4zMjYxNjggOC4xMDkzNzUsOC4xNTQzIDg5LjgwODU5NiwtODkuMzI2MTY3IHogTSAxNC41MDgxOTcsMzUuNTkxNzMzIEMgNS4zNjEyNTIsNDguODM4NjEzIDAsNjQuODkxMTUzIDAsODIuMTczNzkzIGMgMWUtNiw5LjI1NTM0IDEuNTYwNDAxLDE4LjE0NzQzNyA0LjM5MzUzLDI2LjQ1NTIyNyAzLjA2OTg2MywtMi40MzY5NiA2LjUxMjg4MywtNC4zNjI1NSAxMC4xOTYyNzcsLTUuNzAyNDkgLTIuMDA0OTk2LC02LjU2MDIwNyAtMy4wODk3MzIsLTEzLjUyNjU2NyAtMy4wODk3MzIsLTIwLjc1MjczNyAwLC0xNC45NzI0NyA0LjYyOTY1LC0yOC44NDEyNyAxMi41Mzg3NywtNDAuMjU2MjEgeiBNIDQxLjUwNzc0NSwyNC4zMjQ5NjYgYyAxMS40OTIxMTEsLTguMDgzNDczIDI1LjUxMzkxOSwtMTIuODI0ODk0IDQwLjY2NjA1MSwtMTIuODI0ODk0IDcuMjIxOTksMCAxNC4xODYwMSwxLjA3OTcyMiAyMC43NDI5MjQsMy4wODI0OTkgMS4zOTExMSwtMy42ODE2MDggMy4zNjk2LC03LjExMzQ3NCA1Ljg1ODU1LC0xMC4xNjIxNyBDIDEwMC40MjgzMywxLjU1NzMzMiA5MS40ODAwOTYsMCA4Mi4xNzM3OTYsMCA2NC42NzY0MzcsMCA0OC40Mzk5NCw1LjQ5NTI5MiAzNS4wOTkzMiwxNC44NTA4NjEgWiBNIDEyMi43OTAzNiwxNDAuMDU3NCBjIC0xMS40ODI4Niw4LjA2MjMgLTI1LjQ4NjE3NCwxMi43OTAxMiAtNDAuNjE2NTY0LDEyLjc5MDExIC03LjI4NTE4OSwwIC0xNC4zMDc5NSwtMS4wOTg1OCAtMjAuOTE1MDAzLC0zLjEzNTIxIC0xLjM0OTc5LDMuNjc4NzYgLTMuMjg0MjYyLDcuMTE1NjUgLTUuNzI4ODUxLDEwLjE3ODE5IDguMzYxNTE2LDIuODc0MjYgMTcuMzE4NTU5LDQuNDU3MDkgMjYuNjQzODU0LDQuNDU3MSAxNy40OTQ3OSwwIDMzLjcyOTA5NCwtNS40OTM2OCA0Ny4wNjg2MDQsLTE0Ljg0Njc0IHogbSAyNy4xMzQyMiwtMTEuNDI1MTUgYyA5LjA5NTAzLC0xMy4yMjMwNyAxNC40MjMwMSwtMjkuMjI5NTI3IDE0LjQyMzAxLC00Ni40NTg0NTcgMCwtOS4yNTU0MSAtMS41MzkxNywtMTguMTU3MiAtNC4zNzIzNCwtMjYuNDY1MDUgLTMuMDUxMzIsMi40ODkxOCAtNi40ODYwMiw0LjQ2NzE3IC0xMC4xNzA0NCw1Ljg1NzAxIDEuOTc2NTMsNi41MTc2NSAzLjA0MjcxLDEzLjQzNTM4IDMuMDQyNzEsMjAuNjA4MDQgMCwxNS4wODgxNCAtNC43MDE0NSwyOS4wNTU0NzcgLTEyLjcyMjY0LDQwLjUyMDI5NyB6IiBzdHlsZT0iY29sb3I6IzAwMDAwMDtvcGFjaXR5OjE7ZmlsbDojNDI4NWY0O2ZpbGwtb3BhY2l0eToxOy1pbmtzY2FwZS1zdHJva2U6bm9uZSIvPiYjeGE7ICA8cGF0aCBkPSJNIDEwNi4wMDc4LDgyLjY0Njc2MyBBIDIzLjc1ODk3NiwyMy43NTg5NzYgMCAwIDEgODIuMjQ4ODE2LDEwNi40MDU3NCAyMy43NTg5NzYsMjMuNzU4OTc2IDAgMCAxIDU4LjQ4OTg0LDgyLjY0Njc2MyAyMy43NTg5NzYsMjMuNzU4OTc2IDAgMCAxIDgyLjI0ODgxNiw1OC44ODc3ODMgMjMuNzU4OTc2LDIzLjc1ODk3NiAwIDAgMSAxMDYuMDA3OCw4Mi42NDY3NjMgWiIgc3R5bGU9ImNvbG9yOiMwMDAwMDA7b3BhY2l0eToxO2ZpbGw6IzY2OWRmNjtmaWxsLW9wYWNpdHk6MTtzdHJva2Utd2lkdGg6MTEuNTtzdHJva2UtbGluZWNhcDpyb3VuZDstaW5rc2NhcGUtc3Ryb2tlOm5vbmUiLz4mI3hhOyAgPHBhdGggZD0ibSAxMzYuODc4OTQsMTE3LjEzNDc4IGMgLTExLjA1Nzc1LDAgLTIwLjE0NDU0LDkuMDg4NzQgLTIwLjE0NDUzLDIwLjE0NjQ5IDAsMTEuMDU3NzQgOS4wODY3OSwyMC4xNDQ1MyAyMC4xNDQ1MywyMC4xNDQ1MyAxMS4wNTc3MywwIDIwLjE0NjQ4LC05LjA4NjggMjAuMTQ2NDgsLTIwLjE0NDUzIDFlLTUsLTExLjA1Nzc0IC05LjA4ODc0LC0yMC4xNDY0OCAtMjAuMTQ2NDgsLTIwLjE0NjQ5IHogbSAwLDExLjUgYyA0Ljg0MjY4LDAgOC42NDY0OSwzLjgwMzggOC42NDY0OCw4LjY0NjQ5IDAsNC44NDI2OCAtMy44MDM4LDguNjQ0NTMgLTguNjQ2NDgsOC42NDQ1MyAtNC44NDI2OCwwIC04LjY0NDUzLC0zLjgwMTg1IC04LjY0NDUzLC04LjY0NDUzIDAsLTQuODQyNjkgMy44MDE4NCwtOC42NDY0OSA4LjY0NDUzLC04LjY0NjQ5IHogTSAyNy4wOTU3MzIsMTE2Ljk3NDYzIGMgLTExLjA1NzczNiwwIC0yMC4xNDQ1MjgsOS4wODY3OSAtMjAuMTQ0NTMxLDIwLjE0NDUzIC01ZS02LDExLjA1Nzc0IDkuMDg2NzksMjAuMTQ2NDggMjAuMTQ0NTMxLDIwLjE0NjQ4IDExLjA1Nzc0MiwwIDIwLjE0NjQ4OSwtOS4wODg3NCAyMC4xNDY0ODUsLTIwLjE0NjQ4IC0zZS02LC0xMS4wNTc3NCAtOS4wODg3NDgsLTIwLjE0NDUzIC0yMC4xNDY0ODUsLTIwLjE0NDUzIHogbSAwLDExLjUgYyA0Ljg0MjY4MiwwIDguNjQ2NDgzLDMuODAxODUgOC42NDY0ODUsOC42NDQ1MyAyZS02LDQuODQyNjggLTMuODAzOCw4LjY0NjQ4IC04LjY0NjQ4NSw4LjY0NjQ4IC00Ljg0MjY4NCwwIC04LjY0NDUzMywtMy44MDM4IC04LjY0NDUzMSwtOC42NDY0OCAxMGUtNywtNC44NDI2OCAzLjgwMTg0OSwtOC42NDQ1MyA4LjY0NDUzMSwtOC42NDQ1MyB6IE0gMTM2Ljk0MTQ0LDcuMzQzNzcgYyAtMTEuMDU3NzQsM2UtNiAtMjAuMTQ2NDksOS4wODY3OTUgLTIwLjE0NjQ5LDIwLjE0NDUzMSAwLDExLjA1Nzc0MiA5LjA4ODc1LDIwLjE0NjQ4MiAyMC4xNDY0OSwyMC4xNDY0ODIgMTEuMDU3NzQsMWUtNSAyMC4xNDQ1MywtOS4wODg3NCAyMC4xNDQ1MywtMjAuMTQ2NDgyIDAsLTExLjA1Nzc0MSAtOS4wODY3OSwtMjAuMTQ0NTM2IC0yMC4xNDQ1MywtMjAuMTQ0NTMxIHogbSAwLDExLjUgYyA0Ljg0MjY4LC0yZS02IDguNjQ0NTMsMy44MDE4NDcgOC42NDQ1Myw4LjY0NDUzMSAwLDQuODQyNjg1IC0zLjgwMTg1LDguNjQ2NDgyIC04LjY0NDUzLDguNjQ2NDgyIC00Ljg0MjY4LDAgLTguNjQ2NDksLTMuODAzNzk5IC04LjY0NjQ5LC04LjY0NjQ4MiAwLC00Ljg0MjY4MiAzLjgwMzgxLC04LjY0NDUzIDguNjQ2NDksLTguNjQ0NTMxIHogTSAyNy4wODk4NzMsNy40Mzc1MiBjIC0xMS4wNTc3MzksLTFlLTYgLTIwLjE0NDUzMSw5LjA4Njc5MiAtMjAuMTQ0NTMxLDIwLjE0NDUzMSAyZS02LDExLjA1Nzc0MiA5LjA4Njc5NCwyMC4xNDQ1MzIgMjAuMTQ0NTMxLDIwLjE0NDUzMiAxMS4wNTc3MzYsMCAyMC4xNDY0ODIsLTkuMDg2OCAyMC4xNDY0ODQsLTIwLjE0NDUzMiAwLC0xMS4wNTc3MzggLTkuMDg4NzQ2LC0yMC4xNDQ1MzEgLTIwLjE0NjQ4NCwtMjAuMTQ0NTMxIHogbSAwLDExLjUgYyA0Ljg0MjY4MywwIDguNjQ2NDg0LDMuODAxODQ4IDguNjQ2NDg0LDguNjQ0NTMxIC0xMGUtNyw0Ljg0MjY4MiAtMy44MDM4MDIsOC42NDQ1MzIgLTguNjQ2NDg0LDguNjQ0NTMyIC00Ljg0MjY4MywwIC04LjY0NDUzLC0zLjgwMTg0OSAtOC42NDQ1MzEsLTguNjQ0NTMyIDAsLTQuODQyNjgzIDMuODAxODQ4LC04LjY0NDUzMSA4LjY0NDUzMSwtOC42NDQ1MzEgeiIgc3R5bGU9ImNvbG9yOiMwMDAwMDA7b3BhY2l0eToxO2ZpbGw6I2FlY2JmYTtmaWxsLW9wYWNpdHk6MTtzdHJva2UtbGluZWNhcDpyb3VuZDstaW5rc2NhcGUtc3Ryb2tlOm5vbmUiLz4mI3hhOzwvc3ZnPg==;" vertex="1" parent="1">
          <mxGeometry x="1886" y="933" width="42" height="42" as="geometry" />
        </mxCell>
        <mxCell id="ZkOrWmyLlD2aejvwlaCL-66" style="edgeStyle=none;curved=1;rounded=0;orthogonalLoop=1;jettySize=auto;html=1;entryX=1;entryY=0.5;entryDx=0;entryDy=0;fontSize=12;startSize=8;endSize=8;exitX=0.149;exitY=1.011;exitDx=0;exitDy=0;exitPerimeter=0;" edge="1" parent="1" source="ZkOrWmyLlD2aejvwlaCL-93" target="ZkOrWmyLlD2aejvwlaCL-73">
          <mxGeometry relative="1" as="geometry">
            <mxPoint x="1654.19696969697" y="999.0000000000005" as="sourcePoint" />
          </mxGeometry>
        </mxCell>
        <mxCell id="ZkOrWmyLlD2aejvwlaCL-67" style="edgeStyle=none;curved=1;rounded=0;orthogonalLoop=1;jettySize=auto;html=1;entryX=0;entryY=0.5;entryDx=0;entryDy=0;fontSize=12;startSize=8;endSize=8;exitX=0.75;exitY=1;exitDx=0;exitDy=0;" edge="1" parent="1" source="ZkOrWmyLlD2aejvwlaCL-93" target="ZkOrWmyLlD2aejvwlaCL-79">
          <mxGeometry relative="1" as="geometry">
            <mxPoint x="1741" y="979" as="sourcePoint" />
          </mxGeometry>
        </mxCell>
        <mxCell id="ZkOrWmyLlD2aejvwlaCL-68" style="edgeStyle=none;curved=1;rounded=0;orthogonalLoop=1;jettySize=auto;html=1;entryX=0;entryY=0.5;entryDx=0;entryDy=0;fontSize=12;startSize=8;endSize=8;exitX=0.75;exitY=1;exitDx=0;exitDy=0;" edge="1" parent="1" source="ZkOrWmyLlD2aejvwlaCL-93" target="ZkOrWmyLlD2aejvwlaCL-76">
          <mxGeometry relative="1" as="geometry">
            <mxPoint x="1737" y="985" as="sourcePoint" />
          </mxGeometry>
        </mxCell>
        <mxCell id="ZkOrWmyLlD2aejvwlaCL-69" value="" style="edgeStyle=none;curved=1;rounded=0;orthogonalLoop=1;jettySize=auto;html=1;fontSize=12;startSize=8;endSize=8;" edge="1" parent="1" source="ZkOrWmyLlD2aejvwlaCL-70" target="ZkOrWmyLlD2aejvwlaCL-84">
          <mxGeometry relative="1" as="geometry" />
        </mxCell>
        <mxCell id="ZkOrWmyLlD2aejvwlaCL-70" value="" style="strokeColor=#dddddd;shadow=1;strokeWidth=1;rounded=1;absoluteArcSize=1;arcSize=2;" vertex="1" parent="1">
          <mxGeometry x="1325" y="1145" width="202" height="60" as="geometry" />
        </mxCell>
        <mxCell id="ZkOrWmyLlD2aejvwlaCL-71" value="&lt;font color=&quot;#000000&quot;&gt;API data normalisation&lt;/font&gt;&lt;br&gt;Cloud Run" style="editableCssRules=.*;html=1;fontColor=#999999;shape=image;verticalLabelPosition=middle;verticalAlign=middle;labelPosition=right;align=left;spacingLeft=20;part=1;points=[];imageAspect=0;image=data:image/svg+xml,PHN2ZyB4bWxucz0iaHR0cDovL3d3dy53My5vcmcvMjAwMC9zdmciIHhtbG5zOnY9Imh0dHBzOi8vdmVjdGEuaW8vbmFubyIgd2lkdGg9IjM2NS40NjQ5OTY3NzA0MjQ5MyIgaGVpZ2h0PSIzNzkuMjIyOTk0NDYzNTc3OTUiIHZpZXdCb3g9IjAgMCA5Ni42OTU5OTkxNDU1MDc4MSAxMDAuMzM1OTk4NTM1MTU2MjUiPiYjeGE7PHN0eWxlIHR5cGU9InRleHQvY3NzIj4mI3hhOwkuc3Qwe2ZpbGw6IzQyODVmNDt9JiN4YTsJLnN0MXtmaWxsOiNhZWNiZmE7fSYjeGE7PC9zdHlsZT4mI3hhOwk8cGF0aCBjbGFzcz0ic3QwIiBkPSJNMjkuNzk0IDEwMC4zMzZMNDYuOTIgNTAuMTY4aDQ5Ljc3NnpNMCA5OS42NzFsMTIuOTc2LTQ5LjUwMkgyOS4yMkwxNi44OTcgOTIuMDU0eiIvPiYjeGE7CTxwYXRoIGNsYXNzPSJzdDEiIGQ9Ik0yOS43OTQgMEw0Ni45MiA1MC4xNjhoNDkuNzc2ek0wIC42NjZsMTIuOTc2IDQ5LjUwMkgyOS4yMkwxNi44OTcgOC4yODN6Ii8+JiN4YTs8L3N2Zz4=;" vertex="1" parent="ZkOrWmyLlD2aejvwlaCL-70">
          <mxGeometry width="30" height="30" relative="1" as="geometry">
            <mxPoint x="15" y="15" as="offset" />
          </mxGeometry>
        </mxCell>
        <mxCell id="ZkOrWmyLlD2aejvwlaCL-72" style="edgeStyle=none;curved=1;rounded=0;orthogonalLoop=1;jettySize=auto;html=1;entryX=1;entryY=0.5;entryDx=0;entryDy=0;fontSize=12;startSize=8;endSize=8;" edge="1" parent="1" source="ZkOrWmyLlD2aejvwlaCL-73" target="ZkOrWmyLlD2aejvwlaCL-82">
          <mxGeometry relative="1" as="geometry" />
        </mxCell>
        <mxCell id="ZkOrWmyLlD2aejvwlaCL-73" value="" style="strokeColor=#dddddd;shadow=1;strokeWidth=1;rounded=1;absoluteArcSize=1;arcSize=2;" vertex="1" parent="1">
          <mxGeometry x="1374" y="1038" width="153" height="60" as="geometry" />
        </mxCell>
        <mxCell id="ZkOrWmyLlD2aejvwlaCL-74" value="&lt;font color=&quot;#000000&quot;&gt;API video cut&lt;/font&gt;&lt;br&gt;Cloud Run" style="editableCssRules=.*;html=1;fontColor=#999999;shape=image;verticalLabelPosition=middle;verticalAlign=middle;labelPosition=right;align=left;spacingLeft=20;part=1;points=[];imageAspect=0;image=data:image/svg+xml,PHN2ZyB4bWxucz0iaHR0cDovL3d3dy53My5vcmcvMjAwMC9zdmciIHhtbG5zOnY9Imh0dHBzOi8vdmVjdGEuaW8vbmFubyIgd2lkdGg9IjM2NS40NjQ5OTY3NzA0MjQ5MyIgaGVpZ2h0PSIzNzkuMjIyOTk0NDYzNTc3OTUiIHZpZXdCb3g9IjAgMCA5Ni42OTU5OTkxNDU1MDc4MSAxMDAuMzM1OTk4NTM1MTU2MjUiPiYjeGE7PHN0eWxlIHR5cGU9InRleHQvY3NzIj4mI3hhOwkuc3Qwe2ZpbGw6IzQyODVmNDt9JiN4YTsJLnN0MXtmaWxsOiNhZWNiZmE7fSYjeGE7PC9zdHlsZT4mI3hhOwk8cGF0aCBjbGFzcz0ic3QwIiBkPSJNMjkuNzk0IDEwMC4zMzZMNDYuOTIgNTAuMTY4aDQ5Ljc3NnpNMCA5OS42NzFsMTIuOTc2LTQ5LjUwMkgyOS4yMkwxNi44OTcgOTIuMDU0eiIvPiYjeGE7CTxwYXRoIGNsYXNzPSJzdDEiIGQ9Ik0yOS43OTQgMEw0Ni45MiA1MC4xNjhoNDkuNzc2ek0wIC42NjZsMTIuOTc2IDQ5LjUwMkgyOS4yMkwxNi44OTcgOC4yODN6Ii8+JiN4YTs8L3N2Zz4=;" vertex="1" parent="ZkOrWmyLlD2aejvwlaCL-73">
          <mxGeometry width="30" height="30" relative="1" as="geometry">
            <mxPoint x="15" y="15" as="offset" />
          </mxGeometry>
        </mxCell>
        <mxCell id="ZkOrWmyLlD2aejvwlaCL-75" value="" style="edgeStyle=none;curved=1;rounded=0;orthogonalLoop=1;jettySize=auto;html=1;fontSize=12;startSize=8;endSize=8;" edge="1" parent="1" source="ZkOrWmyLlD2aejvwlaCL-76" target="ZkOrWmyLlD2aejvwlaCL-88">
          <mxGeometry relative="1" as="geometry" />
        </mxCell>
        <mxCell id="ZkOrWmyLlD2aejvwlaCL-76" value="" style="strokeColor=#dddddd;shadow=1;strokeWidth=1;rounded=1;absoluteArcSize=1;arcSize=2;" vertex="1" parent="1">
          <mxGeometry x="1901" y="1145" width="164" height="60" as="geometry" />
        </mxCell>
        <mxCell id="ZkOrWmyLlD2aejvwlaCL-77" value="&lt;font color=&quot;#000000&quot;&gt;API team report&lt;/font&gt;&lt;br&gt;Cloud Run" style="editableCssRules=.*;html=1;fontColor=#999999;shape=image;verticalLabelPosition=middle;verticalAlign=middle;labelPosition=right;align=left;spacingLeft=20;part=1;points=[];imageAspect=0;image=data:image/svg+xml,PHN2ZyB4bWxucz0iaHR0cDovL3d3dy53My5vcmcvMjAwMC9zdmciIHhtbG5zOnY9Imh0dHBzOi8vdmVjdGEuaW8vbmFubyIgd2lkdGg9IjM2NS40NjQ5OTY3NzA0MjQ5MyIgaGVpZ2h0PSIzNzkuMjIyOTk0NDYzNTc3OTUiIHZpZXdCb3g9IjAgMCA5Ni42OTU5OTkxNDU1MDc4MSAxMDAuMzM1OTk4NTM1MTU2MjUiPiYjeGE7PHN0eWxlIHR5cGU9InRleHQvY3NzIj4mI3hhOwkuc3Qwe2ZpbGw6IzQyODVmNDt9JiN4YTsJLnN0MXtmaWxsOiNhZWNiZmE7fSYjeGE7PC9zdHlsZT4mI3hhOwk8cGF0aCBjbGFzcz0ic3QwIiBkPSJNMjkuNzk0IDEwMC4zMzZMNDYuOTIgNTAuMTY4aDQ5Ljc3NnpNMCA5OS42NzFsMTIuOTc2LTQ5LjUwMkgyOS4yMkwxNi44OTcgOTIuMDU0eiIvPiYjeGE7CTxwYXRoIGNsYXNzPSJzdDEiIGQ9Ik0yOS43OTQgMEw0Ni45MiA1MC4xNjhoNDkuNzc2ek0wIC42NjZsMTIuOTc2IDQ5LjUwMkgyOS4yMkwxNi44OTcgOC4yODN6Ii8+JiN4YTs8L3N2Zz4=;" vertex="1" parent="ZkOrWmyLlD2aejvwlaCL-76">
          <mxGeometry width="30" height="30" relative="1" as="geometry">
            <mxPoint x="15" y="15" as="offset" />
          </mxGeometry>
        </mxCell>
        <mxCell id="ZkOrWmyLlD2aejvwlaCL-78" value="" style="edgeStyle=none;curved=1;rounded=0;orthogonalLoop=1;jettySize=auto;html=1;fontSize=12;startSize=8;endSize=8;" edge="1" parent="1" source="ZkOrWmyLlD2aejvwlaCL-79" target="ZkOrWmyLlD2aejvwlaCL-87">
          <mxGeometry relative="1" as="geometry" />
        </mxCell>
        <mxCell id="ZkOrWmyLlD2aejvwlaCL-79" value="" style="strokeColor=#dddddd;shadow=1;strokeWidth=1;rounded=1;absoluteArcSize=1;arcSize=2;" vertex="1" parent="1">
          <mxGeometry x="1901" y="1038" width="174" height="60" as="geometry" />
        </mxCell>
        <mxCell id="ZkOrWmyLlD2aejvwlaCL-80" value="&lt;font color=&quot;#000000&quot;&gt;API players report&lt;/font&gt;&lt;br&gt;Cloud Run" style="editableCssRules=.*;html=1;fontColor=#999999;shape=image;verticalLabelPosition=middle;verticalAlign=middle;labelPosition=right;align=left;spacingLeft=20;part=1;points=[];imageAspect=0;image=data:image/svg+xml,PHN2ZyB4bWxucz0iaHR0cDovL3d3dy53My5vcmcvMjAwMC9zdmciIHhtbG5zOnY9Imh0dHBzOi8vdmVjdGEuaW8vbmFubyIgd2lkdGg9IjM2NS40NjQ5OTY3NzA0MjQ5MyIgaGVpZ2h0PSIzNzkuMjIyOTk0NDYzNTc3OTUiIHZpZXdCb3g9IjAgMCA5Ni42OTU5OTkxNDU1MDc4MSAxMDAuMzM1OTk4NTM1MTU2MjUiPiYjeGE7PHN0eWxlIHR5cGU9InRleHQvY3NzIj4mI3hhOwkuc3Qwe2ZpbGw6IzQyODVmNDt9JiN4YTsJLnN0MXtmaWxsOiNhZWNiZmE7fSYjeGE7PC9zdHlsZT4mI3hhOwk8cGF0aCBjbGFzcz0ic3QwIiBkPSJNMjkuNzk0IDEwMC4zMzZMNDYuOTIgNTAuMTY4aDQ5Ljc3NnpNMCA5OS42NzFsMTIuOTc2LTQ5LjUwMkgyOS4yMkwxNi44OTcgOTIuMDU0eiIvPiYjeGE7CTxwYXRoIGNsYXNzPSJzdDEiIGQ9Ik0yOS43OTQgMEw0Ni45MiA1MC4xNjhoNDkuNzc2ek0wIC42NjZsMTIuOTc2IDQ5LjUwMkgyOS4yMkwxNi44OTcgOC4yODN6Ii8+JiN4YTs8L3N2Zz4=;" vertex="1" parent="ZkOrWmyLlD2aejvwlaCL-79">
          <mxGeometry width="30" height="30" relative="1" as="geometry">
            <mxPoint x="15" y="15" as="offset" />
          </mxGeometry>
        </mxCell>
        <mxCell id="ZkOrWmyLlD2aejvwlaCL-81" style="edgeStyle=none;curved=1;rounded=0;orthogonalLoop=1;jettySize=auto;html=1;entryX=0.99;entryY=0.617;entryDx=0;entryDy=0;entryPerimeter=0;fontSize=12;startSize=8;endSize=8;exitX=0.141;exitY=0.998;exitDx=0;exitDy=0;exitPerimeter=0;" edge="1" parent="1" source="ZkOrWmyLlD2aejvwlaCL-93" target="ZkOrWmyLlD2aejvwlaCL-70">
          <mxGeometry relative="1" as="geometry">
            <mxPoint x="1638" y="986" as="sourcePoint" />
          </mxGeometry>
        </mxCell>
        <mxCell id="ZkOrWmyLlD2aejvwlaCL-82" value="" style="strokeColor=#dddddd;shadow=1;strokeWidth=1;rounded=1;absoluteArcSize=1;arcSize=2;" vertex="1" parent="1">
          <mxGeometry x="1039" y="1038" width="225" height="60" as="geometry" />
        </mxCell>
        <mxCell id="ZkOrWmyLlD2aejvwlaCL-83" value="&lt;div&gt;&lt;font color=&quot;#000000&quot;&gt;two_half/mach_id_H1.mp4&lt;br&gt;&lt;/font&gt;&lt;/div&gt;&lt;div&gt;&lt;font color=&quot;#000000&quot;&gt;two_half/match_id_H2.mp4&lt;br&gt;&lt;/font&gt;&lt;/div&gt;video-to-pipeline" style="editableCssRules=.*;html=1;fontColor=#999999;shape=image;verticalLabelPosition=middle;verticalAlign=middle;labelPosition=right;align=left;spacingLeft=20;part=1;points=[];imageAspect=0;image=data:image/svg+xml,PHN2ZyB4bWxucz0iaHR0cDovL3d3dy53My5vcmcvMjAwMC9zdmciIHhtbG5zOnY9Imh0dHBzOi8vdmVjdGEuaW8vbmFubyIgd2lkdGg9IjIwIiBoZWlnaHQ9IjE2IiB2aWV3Qm94PSIwIDAgMjAgMTYiPiYjeGE7CTxzdHlsZSB0eXBlPSJ0ZXh0L2NzcyI+JiN4YTsJLnN0MHtmaWxsOiM0Mjg1ZjQ7fSYjeGE7CS5zdDF7ZmlsbDojNjY5ZGY2O30mI3hhOwkuc3Qye2ZpbGw6I2FlY2JmYTt9JiN4YTsJLnN0M3tmaWxsOiNmZmY7fSYjeGE7CTwvc3R5bGU+JiN4YTsJPHBhdGggY2xhc3M9InN0MiIgZD0iTTAgMGgyMHY3SDB6Ii8+JiN4YTsJPHBhdGggY2xhc3M9InN0MSIgZD0iTTE4IDBoMnY3aC0yeiIvPiYjeGE7CTxwYXRoIGNsYXNzPSJzdDAiIGQ9Ik0xOCA3bDItN2gtMnoiLz4mI3hhOwk8cGF0aCBjbGFzcz0ic3QxIiBkPSJNMCAwaDJ2N0gweiIvPiYjeGE7CTxnIGNsYXNzPSJzdDMiPiYjeGE7CQk8cGF0aCBkPSJNNCAzaDZ2MUg0eiIvPiYjeGE7CQk8cmVjdCB4PSIxMyIgeT0iMiIgd2lkdGg9IjMiIGhlaWdodD0iMyIgcng9IjEuNSIvPiYjeGE7CTwvZz4mI3hhOwk8cGF0aCBjbGFzcz0ic3QyIiBkPSJNMCA5aDIwdjdIMHoiLz4mI3hhOwk8cGF0aCBjbGFzcz0ic3QxIiBkPSJNMTggOWgydjdoLTJ6Ii8+JiN4YTsJPHBhdGggY2xhc3M9InN0MCIgZD0iTTE4IDE2bDItN2gtMnoiLz4mI3hhOwk8cGF0aCBjbGFzcz0ic3QxIiBkPSJNMCA5aDJ2N0gweiIvPiYjeGE7CTxnIGNsYXNzPSJzdDMiPiYjeGE7CQk8cGF0aCBkPSJNNCAxMmg2djFINHoiLz4mI3hhOwkJPHJlY3QgeD0iMTMiIHk9IjExIiB3aWR0aD0iMyIgaGVpZ2h0PSIzIiByeD0iMS41Ii8+JiN4YTsJPC9nPiYjeGE7PC9zdmc+;" vertex="1" parent="ZkOrWmyLlD2aejvwlaCL-82">
          <mxGeometry width="30" height="24" relative="1" as="geometry">
            <mxPoint x="15" y="18" as="offset" />
          </mxGeometry>
        </mxCell>
        <mxCell id="ZkOrWmyLlD2aejvwlaCL-84" value="" style="dashed=0;outlineConnect=0;html=1;align=center;labelPosition=center;verticalLabelPosition=bottom;verticalAlign=top;shape=mxgraph.webicons.mongodb;gradientColor=#DFDEDE" vertex="1" parent="1">
          <mxGeometry x="1204" y="1145" width="60" height="60" as="geometry" />
        </mxCell>
        <mxCell id="ZkOrWmyLlD2aejvwlaCL-85" value="&lt;div align=&quot;center&quot;&gt;&lt;font style=&quot;font-size: 16px;&quot;&gt;&lt;b&gt;1&lt;/b&gt;&lt;/font&gt;&lt;/div&gt;" style="ellipse;whiteSpace=wrap;html=1;aspect=fixed;align=center;" vertex="1" parent="1">
          <mxGeometry x="1574" y="1026" width="27" height="27" as="geometry" />
        </mxCell>
        <mxCell id="ZkOrWmyLlD2aejvwlaCL-86" value="&lt;div align=&quot;center&quot;&gt;&lt;b&gt;2&lt;/b&gt;&lt;/div&gt;" style="ellipse;whiteSpace=wrap;html=1;aspect=fixed;align=center;" vertex="1" parent="1">
          <mxGeometry x="1800" y="1026" width="27" height="27" as="geometry" />
        </mxCell>
        <mxCell id="ZkOrWmyLlD2aejvwlaCL-87" value="" style="dashed=0;outlineConnect=0;html=1;align=center;labelPosition=center;verticalLabelPosition=bottom;verticalAlign=top;shape=mxgraph.webicons.mongodb;gradientColor=#DFDEDE" vertex="1" parent="1">
          <mxGeometry x="2148" y="1038" width="60" height="60" as="geometry" />
        </mxCell>
        <mxCell id="ZkOrWmyLlD2aejvwlaCL-88" value="" style="dashed=0;outlineConnect=0;html=1;align=center;labelPosition=center;verticalLabelPosition=bottom;verticalAlign=top;shape=mxgraph.webicons.mongodb;gradientColor=#DFDEDE" vertex="1" parent="1">
          <mxGeometry x="2148" y="1145" width="60" height="60" as="geometry" />
        </mxCell>
        <mxCell id="ZkOrWmyLlD2aejvwlaCL-89" style="edgeStyle=none;curved=1;rounded=0;orthogonalLoop=1;jettySize=auto;html=1;entryX=0;entryY=0.5;entryDx=0;entryDy=0;fontSize=12;startSize=8;endSize=8;" edge="1" parent="1" source="ZkOrWmyLlD2aejvwlaCL-91" target="ZkOrWmyLlD2aejvwlaCL-57">
          <mxGeometry relative="1" as="geometry" />
        </mxCell>
        <mxCell id="ZkOrWmyLlD2aejvwlaCL-90" style="edgeStyle=none;curved=1;rounded=0;orthogonalLoop=1;jettySize=auto;html=1;entryX=0.5;entryY=0;entryDx=0;entryDy=0;fontSize=12;startSize=8;endSize=8;dashed=1;endArrow=none;startFill=0;" edge="1" parent="1" source="ZkOrWmyLlD2aejvwlaCL-101" target="ZkOrWmyLlD2aejvwlaCL-93">
          <mxGeometry relative="1" as="geometry" />
        </mxCell>
        <mxCell id="P1BTmt4Wik-yoa_3d7bQ-12" value="" style="edgeStyle=none;curved=1;rounded=0;orthogonalLoop=1;jettySize=auto;html=1;fontSize=12;startSize=8;endSize=8;" edge="1" parent="1" source="ZkOrWmyLlD2aejvwlaCL-91" target="P1BTmt4Wik-yoa_3d7bQ-10">
          <mxGeometry relative="1" as="geometry" />
        </mxCell>
        <mxCell id="ZkOrWmyLlD2aejvwlaCL-91" value="" style="strokeColor=#dddddd;shadow=1;strokeWidth=1;rounded=1;absoluteArcSize=1;arcSize=2;" vertex="1" parent="1">
          <mxGeometry x="1613" y="302" width="168" height="57" as="geometry" />
        </mxCell>
        <mxCell id="ZkOrWmyLlD2aejvwlaCL-92" value="&lt;font color=&quot;#000000&quot;&gt;Orchestrator&lt;/font&gt;&lt;br&gt;Cloud Run" style="editableCssRules=.*;html=1;fontColor=#999999;shape=image;verticalLabelPosition=middle;verticalAlign=middle;labelPosition=right;align=left;spacingLeft=20;part=1;points=[];imageAspect=0;image=data:image/svg+xml,PHN2ZyB4bWxucz0iaHR0cDovL3d3dy53My5vcmcvMjAwMC9zdmciIHhtbG5zOnY9Imh0dHBzOi8vdmVjdGEuaW8vbmFubyIgd2lkdGg9IjM2NS40NjQ5OTY3NzA0MjQ5MyIgaGVpZ2h0PSIzNzkuMjIyOTk0NDYzNTc3OTUiIHZpZXdCb3g9IjAgMCA5Ni42OTU5OTkxNDU1MDc4MSAxMDAuMzM1OTk4NTM1MTU2MjUiPiYjeGE7PHN0eWxlIHR5cGU9InRleHQvY3NzIj4mI3hhOwkuc3Qwe2ZpbGw6IzQyODVmNDt9JiN4YTsJLnN0MXtmaWxsOiNhZWNiZmE7fSYjeGE7PC9zdHlsZT4mI3hhOwk8cGF0aCBjbGFzcz0ic3QwIiBkPSJNMjkuNzk0IDEwMC4zMzZMNDYuOTIgNTAuMTY4aDQ5Ljc3NnpNMCA5OS42NzFsMTIuOTc2LTQ5LjUwMkgyOS4yMkwxNi44OTcgOTIuMDU0eiIvPiYjeGE7CTxwYXRoIGNsYXNzPSJzdDEiIGQ9Ik0yOS43OTQgMEw0Ni45MiA1MC4xNjhoNDkuNzc2ek0wIC42NjZsMTIuOTc2IDQ5LjUwMkgyOS4yMkwxNi44OTcgOC4yODN6Ii8+JiN4YTs8L3N2Zz4=;" vertex="1" parent="ZkOrWmyLlD2aejvwlaCL-91">
          <mxGeometry width="30" height="30" relative="1" as="geometry">
            <mxPoint x="15" y="15" as="offset" />
          </mxGeometry>
        </mxCell>
        <mxCell id="ZkOrWmyLlD2aejvwlaCL-93" value="" style="strokeColor=#dddddd;shadow=1;strokeWidth=1;rounded=1;absoluteArcSize=1;arcSize=2;" vertex="1" parent="1">
          <mxGeometry x="1614.5" y="925.5" width="168" height="57" as="geometry" />
        </mxCell>
        <mxCell id="ZkOrWmyLlD2aejvwlaCL-94" value="&lt;font color=&quot;#000000&quot;&gt;Orchestrator&lt;/font&gt;&lt;br&gt;Cloud Run" style="editableCssRules=.*;html=1;fontColor=#999999;shape=image;verticalLabelPosition=middle;verticalAlign=middle;labelPosition=right;align=left;spacingLeft=20;part=1;points=[];imageAspect=0;image=data:image/svg+xml,PHN2ZyB4bWxucz0iaHR0cDovL3d3dy53My5vcmcvMjAwMC9zdmciIHhtbG5zOnY9Imh0dHBzOi8vdmVjdGEuaW8vbmFubyIgd2lkdGg9IjM2NS40NjQ5OTY3NzA0MjQ5MyIgaGVpZ2h0PSIzNzkuMjIyOTk0NDYzNTc3OTUiIHZpZXdCb3g9IjAgMCA5Ni42OTU5OTkxNDU1MDc4MSAxMDAuMzM1OTk4NTM1MTU2MjUiPiYjeGE7PHN0eWxlIHR5cGU9InRleHQvY3NzIj4mI3hhOwkuc3Qwe2ZpbGw6IzQyODVmNDt9JiN4YTsJLnN0MXtmaWxsOiNhZWNiZmE7fSYjeGE7PC9zdHlsZT4mI3hhOwk8cGF0aCBjbGFzcz0ic3QwIiBkPSJNMjkuNzk0IDEwMC4zMzZMNDYuOTIgNTAuMTY4aDQ5Ljc3NnpNMCA5OS42NzFsMTIuOTc2LTQ5LjUwMkgyOS4yMkwxNi44OTcgOTIuMDU0eiIvPiYjeGE7CTxwYXRoIGNsYXNzPSJzdDEiIGQ9Ik0yOS43OTQgMEw0Ni45MiA1MC4xNjhoNDkuNzc2ek0wIC42NjZsMTIuOTc2IDQ5LjUwMkgyOS4yMkwxNi44OTcgOC4yODN6Ii8+JiN4YTs8L3N2Zz4=;" vertex="1" parent="ZkOrWmyLlD2aejvwlaCL-93">
          <mxGeometry width="30" height="30" relative="1" as="geometry">
            <mxPoint x="15" y="15" as="offset" />
          </mxGeometry>
        </mxCell>
        <mxCell id="ZkOrWmyLlD2aejvwlaCL-104" value="" style="edgeStyle=none;curved=1;rounded=0;orthogonalLoop=1;jettySize=auto;html=1;fontSize=12;startSize=8;endSize=8;" edge="1" parent="1" source="ZkOrWmyLlD2aejvwlaCL-99" target="ZkOrWmyLlD2aejvwlaCL-101">
          <mxGeometry relative="1" as="geometry" />
        </mxCell>
        <mxCell id="ZkOrWmyLlD2aejvwlaCL-99" value="Eventarc" style="sketch=0;html=1;verticalAlign=top;labelPosition=center;verticalLabelPosition=bottom;align=center;spacingTop=-6;fontSize=11;fontStyle=1;fontColor=#999999;shape=image;aspect=fixed;imageAspect=0;image=data:image/svg+xml,PHN2ZyB4bWxucz0iaHR0cDovL3d3dy53My5vcmcvMjAwMC9zdmciIGlkPSJzdmc4MzgiIHZlcnNpb249IjEuMSIgdmlld0JveD0iMCAwIDE2NC4zNDc1OCAxNjQuMzQ3NiIgaGVpZ2h0PSIxNjQuMzQ3Nm1tIiB3aWR0aD0iMTY0LjM0NzU4bW0iPiYjeGE7ICA8cGF0aCBkPSJtIDEyMy43NzczOCwzMy41NDQ5NDIgLTg5LjgwODYwMSw4OS4zMjYxNjggOC4xMDkzNzUsOC4xNTQzIDg5LjgwODU5NiwtODkuMzI2MTY3IHogTSAxNC41MDgxOTcsMzUuNTkxNzMzIEMgNS4zNjEyNTIsNDguODM4NjEzIDAsNjQuODkxMTUzIDAsODIuMTczNzkzIGMgMWUtNiw5LjI1NTM0IDEuNTYwNDAxLDE4LjE0NzQzNyA0LjM5MzUzLDI2LjQ1NTIyNyAzLjA2OTg2MywtMi40MzY5NiA2LjUxMjg4MywtNC4zNjI1NSAxMC4xOTYyNzcsLTUuNzAyNDkgLTIuMDA0OTk2LC02LjU2MDIwNyAtMy4wODk3MzIsLTEzLjUyNjU2NyAtMy4wODk3MzIsLTIwLjc1MjczNyAwLC0xNC45NzI0NyA0LjYyOTY1LC0yOC44NDEyNyAxMi41Mzg3NywtNDAuMjU2MjEgeiBNIDQxLjUwNzc0NSwyNC4zMjQ5NjYgYyAxMS40OTIxMTEsLTguMDgzNDczIDI1LjUxMzkxOSwtMTIuODI0ODk0IDQwLjY2NjA1MSwtMTIuODI0ODk0IDcuMjIxOTksMCAxNC4xODYwMSwxLjA3OTcyMiAyMC43NDI5MjQsMy4wODI0OTkgMS4zOTExMSwtMy42ODE2MDggMy4zNjk2LC03LjExMzQ3NCA1Ljg1ODU1LC0xMC4xNjIxNyBDIDEwMC40MjgzMywxLjU1NzMzMiA5MS40ODAwOTYsMCA4Mi4xNzM3OTYsMCA2NC42NzY0MzcsMCA0OC40Mzk5NCw1LjQ5NTI5MiAzNS4wOTkzMiwxNC44NTA4NjEgWiBNIDEyMi43OTAzNiwxNDAuMDU3NCBjIC0xMS40ODI4Niw4LjA2MjMgLTI1LjQ4NjE3NCwxMi43OTAxMiAtNDAuNjE2NTY0LDEyLjc5MDExIC03LjI4NTE4OSwwIC0xNC4zMDc5NSwtMS4wOTg1OCAtMjAuOTE1MDAzLC0zLjEzNTIxIC0xLjM0OTc5LDMuNjc4NzYgLTMuMjg0MjYyLDcuMTE1NjUgLTUuNzI4ODUxLDEwLjE3ODE5IDguMzYxNTE2LDIuODc0MjYgMTcuMzE4NTU5LDQuNDU3MDkgMjYuNjQzODU0LDQuNDU3MSAxNy40OTQ3OSwwIDMzLjcyOTA5NCwtNS40OTM2OCA0Ny4wNjg2MDQsLTE0Ljg0Njc0IHogbSAyNy4xMzQyMiwtMTEuNDI1MTUgYyA5LjA5NTAzLC0xMy4yMjMwNyAxNC40MjMwMSwtMjkuMjI5NTI3IDE0LjQyMzAxLC00Ni40NTg0NTcgMCwtOS4yNTU0MSAtMS41MzkxNywtMTguMTU3MiAtNC4zNzIzNCwtMjYuNDY1MDUgLTMuMDUxMzIsMi40ODkxOCAtNi40ODYwMiw0LjQ2NzE3IC0xMC4xNzA0NCw1Ljg1NzAxIDEuOTc2NTMsNi41MTc2NSAzLjA0MjcxLDEzLjQzNTM4IDMuMDQyNzEsMjAuNjA4MDQgMCwxNS4wODgxNCAtNC43MDE0NSwyOS4wNTU0NzcgLTEyLjcyMjY0LDQwLjUyMDI5NyB6IiBzdHlsZT0iY29sb3I6IzAwMDAwMDtvcGFjaXR5OjE7ZmlsbDojNDI4NWY0O2ZpbGwtb3BhY2l0eToxOy1pbmtzY2FwZS1zdHJva2U6bm9uZSIvPiYjeGE7ICA8cGF0aCBkPSJNIDEwNi4wMDc4LDgyLjY0Njc2MyBBIDIzLjc1ODk3NiwyMy43NTg5NzYgMCAwIDEgODIuMjQ4ODE2LDEwNi40MDU3NCAyMy43NTg5NzYsMjMuNzU4OTc2IDAgMCAxIDU4LjQ4OTg0LDgyLjY0Njc2MyAyMy43NTg5NzYsMjMuNzU4OTc2IDAgMCAxIDgyLjI0ODgxNiw1OC44ODc3ODMgMjMuNzU4OTc2LDIzLjc1ODk3NiAwIDAgMSAxMDYuMDA3OCw4Mi42NDY3NjMgWiIgc3R5bGU9ImNvbG9yOiMwMDAwMDA7b3BhY2l0eToxO2ZpbGw6IzY2OWRmNjtmaWxsLW9wYWNpdHk6MTtzdHJva2Utd2lkdGg6MTEuNTtzdHJva2UtbGluZWNhcDpyb3VuZDstaW5rc2NhcGUtc3Ryb2tlOm5vbmUiLz4mI3hhOyAgPHBhdGggZD0ibSAxMzYuODc4OTQsMTE3LjEzNDc4IGMgLTExLjA1Nzc1LDAgLTIwLjE0NDU0LDkuMDg4NzQgLTIwLjE0NDUzLDIwLjE0NjQ5IDAsMTEuMDU3NzQgOS4wODY3OSwyMC4xNDQ1MyAyMC4xNDQ1MywyMC4xNDQ1MyAxMS4wNTc3MywwIDIwLjE0NjQ4LC05LjA4NjggMjAuMTQ2NDgsLTIwLjE0NDUzIDFlLTUsLTExLjA1Nzc0IC05LjA4ODc0LC0yMC4xNDY0OCAtMjAuMTQ2NDgsLTIwLjE0NjQ5IHogbSAwLDExLjUgYyA0Ljg0MjY4LDAgOC42NDY0OSwzLjgwMzggOC42NDY0OCw4LjY0NjQ5IDAsNC44NDI2OCAtMy44MDM4LDguNjQ0NTMgLTguNjQ2NDgsOC42NDQ1MyAtNC44NDI2OCwwIC04LjY0NDUzLC0zLjgwMTg1IC04LjY0NDUzLC04LjY0NDUzIDAsLTQuODQyNjkgMy44MDE4NCwtOC42NDY0OSA4LjY0NDUzLC04LjY0NjQ5IHogTSAyNy4wOTU3MzIsMTE2Ljk3NDYzIGMgLTExLjA1NzczNiwwIC0yMC4xNDQ1MjgsOS4wODY3OSAtMjAuMTQ0NTMxLDIwLjE0NDUzIC01ZS02LDExLjA1Nzc0IDkuMDg2NzksMjAuMTQ2NDggMjAuMTQ0NTMxLDIwLjE0NjQ4IDExLjA1Nzc0MiwwIDIwLjE0NjQ4OSwtOS4wODg3NCAyMC4xNDY0ODUsLTIwLjE0NjQ4IC0zZS02LC0xMS4wNTc3NCAtOS4wODg3NDgsLTIwLjE0NDUzIC0yMC4xNDY0ODUsLTIwLjE0NDUzIHogbSAwLDExLjUgYyA0Ljg0MjY4MiwwIDguNjQ2NDgzLDMuODAxODUgOC42NDY0ODUsOC42NDQ1MyAyZS02LDQuODQyNjggLTMuODAzOCw4LjY0NjQ4IC04LjY0NjQ4NSw4LjY0NjQ4IC00Ljg0MjY4NCwwIC04LjY0NDUzMywtMy44MDM4IC04LjY0NDUzMSwtOC42NDY0OCAxMGUtNywtNC44NDI2OCAzLjgwMTg0OSwtOC42NDQ1MyA4LjY0NDUzMSwtOC42NDQ1MyB6IE0gMTM2Ljk0MTQ0LDcuMzQzNzcgYyAtMTEuMDU3NzQsM2UtNiAtMjAuMTQ2NDksOS4wODY3OTUgLTIwLjE0NjQ5LDIwLjE0NDUzMSAwLDExLjA1Nzc0MiA5LjA4ODc1LDIwLjE0NjQ4MiAyMC4xNDY0OSwyMC4xNDY0ODIgMTEuMDU3NzQsMWUtNSAyMC4xNDQ1MywtOS4wODg3NCAyMC4xNDQ1MywtMjAuMTQ2NDgyIDAsLTExLjA1Nzc0MSAtOS4wODY3OSwtMjAuMTQ0NTM2IC0yMC4xNDQ1MywtMjAuMTQ0NTMxIHogbSAwLDExLjUgYyA0Ljg0MjY4LC0yZS02IDguNjQ0NTMsMy44MDE4NDcgOC42NDQ1Myw4LjY0NDUzMSAwLDQuODQyNjg1IC0zLjgwMTg1LDguNjQ2NDgyIC04LjY0NDUzLDguNjQ2NDgyIC00Ljg0MjY4LDAgLTguNjQ2NDksLTMuODAzNzk5IC04LjY0NjQ5LC04LjY0NjQ4MiAwLC00Ljg0MjY4MiAzLjgwMzgxLC04LjY0NDUzIDguNjQ2NDksLTguNjQ0NTMxIHogTSAyNy4wODk4NzMsNy40Mzc1MiBjIC0xMS4wNTc3MzksLTFlLTYgLTIwLjE0NDUzMSw5LjA4Njc5MiAtMjAuMTQ0NTMxLDIwLjE0NDUzMSAyZS02LDExLjA1Nzc0MiA5LjA4Njc5NCwyMC4xNDQ1MzIgMjAuMTQ0NTMxLDIwLjE0NDUzMiAxMS4wNTc3MzYsMCAyMC4xNDY0ODIsLTkuMDg2OCAyMC4xNDY0ODQsLTIwLjE0NDUzMiAwLC0xMS4wNTc3MzggLTkuMDg4NzQ2LC0yMC4xNDQ1MzEgLTIwLjE0NjQ4NCwtMjAuMTQ0NTMxIHogbSAwLDExLjUgYyA0Ljg0MjY4MywwIDguNjQ2NDg0LDMuODAxODQ4IDguNjQ2NDg0LDguNjQ0NTMxIC0xMGUtNyw0Ljg0MjY4MiAtMy44MDM4MDIsOC42NDQ1MzIgLTguNjQ2NDg0LDguNjQ0NTMyIC00Ljg0MjY4MywwIC04LjY0NDUzLC0zLjgwMTg0OSAtOC42NDQ1MzEsLTguNjQ0NTMyIDAsLTQuODQyNjgzIDMuODAxODQ4LC04LjY0NDUzMSA4LjY0NDUzMSwtOC42NDQ1MzEgeiIgc3R5bGU9ImNvbG9yOiMwMDAwMDA7b3BhY2l0eToxO2ZpbGw6I2FlY2JmYTtmaWxsLW9wYWNpdHk6MTtzdHJva2UtbGluZWNhcDpyb3VuZDstaW5rc2NhcGUtc3Ryb2tlOm5vbmUiLz4mI3hhOzwvc3ZnPg==;" vertex="1" parent="1">
          <mxGeometry x="1869" y="507" width="42" height="42" as="geometry" />
        </mxCell>
        <mxCell id="ZkOrWmyLlD2aejvwlaCL-103" value="" style="edgeStyle=none;curved=1;rounded=0;orthogonalLoop=1;jettySize=auto;html=1;entryX=0.5;entryY=0;entryDx=0;entryDy=0;fontSize=12;startSize=8;endSize=8;dashed=1;endArrow=none;startFill=0;" edge="1" parent="1" source="ZkOrWmyLlD2aejvwlaCL-91" target="ZkOrWmyLlD2aejvwlaCL-101">
          <mxGeometry relative="1" as="geometry">
            <mxPoint x="1697" y="359" as="sourcePoint" />
            <mxPoint x="1699" y="1190" as="targetPoint" />
          </mxGeometry>
        </mxCell>
        <mxCell id="ZkOrWmyLlD2aejvwlaCL-107" value="" style="edgeStyle=none;curved=1;rounded=0;orthogonalLoop=1;jettySize=auto;html=1;fontSize=12;startSize=8;endSize=8;" edge="1" parent="1" source="ZkOrWmyLlD2aejvwlaCL-101" target="ZkOrWmyLlD2aejvwlaCL-105">
          <mxGeometry relative="1" as="geometry" />
        </mxCell>
        <mxCell id="ZkOrWmyLlD2aejvwlaCL-101" value="" style="strokeColor=#dddddd;shadow=1;strokeWidth=1;rounded=1;absoluteArcSize=1;arcSize=2;" vertex="1" parent="1">
          <mxGeometry x="1614.5" y="501" width="168" height="57" as="geometry" />
        </mxCell>
        <mxCell id="ZkOrWmyLlD2aejvwlaCL-102" value="&lt;font color=&quot;#000000&quot;&gt;Orchestrator&lt;/font&gt;&lt;br&gt;Cloud Run" style="editableCssRules=.*;html=1;fontColor=#999999;shape=image;verticalLabelPosition=middle;verticalAlign=middle;labelPosition=right;align=left;spacingLeft=20;part=1;points=[];imageAspect=0;image=data:image/svg+xml,PHN2ZyB4bWxucz0iaHR0cDovL3d3dy53My5vcmcvMjAwMC9zdmciIHhtbG5zOnY9Imh0dHBzOi8vdmVjdGEuaW8vbmFubyIgd2lkdGg9IjM2NS40NjQ5OTY3NzA0MjQ5MyIgaGVpZ2h0PSIzNzkuMjIyOTk0NDYzNTc3OTUiIHZpZXdCb3g9IjAgMCA5Ni42OTU5OTkxNDU1MDc4MSAxMDAuMzM1OTk4NTM1MTU2MjUiPiYjeGE7PHN0eWxlIHR5cGU9InRleHQvY3NzIj4mI3hhOwkuc3Qwe2ZpbGw6IzQyODVmNDt9JiN4YTsJLnN0MXtmaWxsOiNhZWNiZmE7fSYjeGE7PC9zdHlsZT4mI3hhOwk8cGF0aCBjbGFzcz0ic3QwIiBkPSJNMjkuNzk0IDEwMC4zMzZMNDYuOTIgNTAuMTY4aDQ5Ljc3NnpNMCA5OS42NzFsMTIuOTc2LTQ5LjUwMkgyOS4yMkwxNi44OTcgOTIuMDU0eiIvPiYjeGE7CTxwYXRoIGNsYXNzPSJzdDEiIGQ9Ik0yOS43OTQgMEw0Ni45MiA1MC4xNjhoNDkuNzc2ek0wIC42NjZsMTIuOTc2IDQ5LjUwMkgyOS4yMkwxNi44OTcgOC4yODN6Ii8+JiN4YTs8L3N2Zz4=;" vertex="1" parent="ZkOrWmyLlD2aejvwlaCL-101">
          <mxGeometry width="30" height="30" relative="1" as="geometry">
            <mxPoint x="15" y="15" as="offset" />
          </mxGeometry>
        </mxCell>
        <mxCell id="ZkOrWmyLlD2aejvwlaCL-112" value="" style="edgeStyle=none;curved=1;rounded=0;orthogonalLoop=1;jettySize=auto;html=1;fontSize=12;startSize=8;endSize=8;" edge="1" parent="1" source="ZkOrWmyLlD2aejvwlaCL-105" target="ZkOrWmyLlD2aejvwlaCL-109">
          <mxGeometry relative="1" as="geometry" />
        </mxCell>
        <mxCell id="ZkOrWmyLlD2aejvwlaCL-105" value="" style="strokeColor=#dddddd;shadow=1;strokeWidth=1;rounded=1;absoluteArcSize=1;arcSize=2;" vertex="1" parent="1">
          <mxGeometry x="1325" y="501" width="164" height="58" as="geometry" />
        </mxCell>
        <mxCell id="ZkOrWmyLlD2aejvwlaCL-106" value="&lt;div&gt;&lt;font color=&quot;#000000&quot;&gt;Transform data&lt;br&gt;&lt;/font&gt;&lt;/div&gt;Cloud Run" style="editableCssRules=.*;html=1;fontColor=#999999;shape=image;verticalLabelPosition=middle;verticalAlign=middle;labelPosition=right;align=left;spacingLeft=20;part=1;points=[];imageAspect=0;image=data:image/svg+xml,PHN2ZyB4bWxucz0iaHR0cDovL3d3dy53My5vcmcvMjAwMC9zdmciIHhtbG5zOnY9Imh0dHBzOi8vdmVjdGEuaW8vbmFubyIgd2lkdGg9IjM2NS40NjQ5OTY3NzA0MjQ5MyIgaGVpZ2h0PSIzNzkuMjIyOTk0NDYzNTc3OTUiIHZpZXdCb3g9IjAgMCA5Ni42OTU5OTkxNDU1MDc4MSAxMDAuMzM1OTk4NTM1MTU2MjUiPiYjeGE7PHN0eWxlIHR5cGU9InRleHQvY3NzIj4mI3hhOwkuc3Qwe2ZpbGw6IzQyODVmNDt9JiN4YTsJLnN0MXtmaWxsOiNhZWNiZmE7fSYjeGE7PC9zdHlsZT4mI3hhOwk8cGF0aCBjbGFzcz0ic3QwIiBkPSJNMjkuNzk0IDEwMC4zMzZMNDYuOTIgNTAuMTY4aDQ5Ljc3NnpNMCA5OS42NzFsMTIuOTc2LTQ5LjUwMkgyOS4yMkwxNi44OTcgOTIuMDU0eiIvPiYjeGE7CTxwYXRoIGNsYXNzPSJzdDEiIGQ9Ik0yOS43OTQgMEw0Ni45MiA1MC4xNjhoNDkuNzc2ek0wIC42NjZsMTIuOTc2IDQ5LjUwMkgyOS4yMkwxNi44OTcgOC4yODN6Ii8+JiN4YTs8L3N2Zz4=;" vertex="1" parent="ZkOrWmyLlD2aejvwlaCL-105">
          <mxGeometry width="30" height="30" relative="1" as="geometry">
            <mxPoint x="15" y="15" as="offset" />
          </mxGeometry>
        </mxCell>
        <mxCell id="ZkOrWmyLlD2aejvwlaCL-114" style="edgeStyle=none;curved=1;rounded=0;orthogonalLoop=1;jettySize=auto;html=1;entryX=0;entryY=0.5;entryDx=0;entryDy=0;fontSize=12;startSize=8;endSize=8;" edge="1" parent="1" source="ZkOrWmyLlD2aejvwlaCL-108" target="ZkOrWmyLlD2aejvwlaCL-62">
          <mxGeometry relative="1" as="geometry" />
        </mxCell>
        <mxCell id="ZkOrWmyLlD2aejvwlaCL-108" value="&lt;div&gt;App&lt;br&gt;&lt;/div&gt;&lt;div&gt;Tagging manuel&lt;/div&gt;&lt;div&gt;event&lt;br&gt;&lt;/div&gt;" style="rounded=1;whiteSpace=wrap;html=1;" vertex="1" parent="1">
          <mxGeometry x="1637" y="730" width="120" height="60" as="geometry" />
        </mxCell>
        <mxCell id="ZkOrWmyLlD2aejvwlaCL-113" value="" style="edgeStyle=none;curved=1;rounded=0;orthogonalLoop=1;jettySize=auto;html=1;fontSize=12;startSize=8;endSize=8;" edge="1" parent="1" source="ZkOrWmyLlD2aejvwlaCL-109" target="ZkOrWmyLlD2aejvwlaCL-108">
          <mxGeometry relative="1" as="geometry" />
        </mxCell>
        <mxCell id="ZkOrWmyLlD2aejvwlaCL-109" value="" style="strokeColor=#dddddd;shadow=1;strokeWidth=1;rounded=1;absoluteArcSize=1;arcSize=2;" vertex="1" parent="1">
          <mxGeometry x="1302" y="730" width="210" height="60" as="geometry" />
        </mxCell>
        <mxCell id="ZkOrWmyLlD2aejvwlaCL-110" value="&lt;font color=&quot;#000000&quot;&gt;tracking_match_id.csv&lt;/font&gt;&lt;br&gt;video-to-pipeline" style="editableCssRules=.*;html=1;fontColor=#999999;shape=image;verticalLabelPosition=middle;verticalAlign=middle;labelPosition=right;align=left;spacingLeft=20;part=1;points=[];imageAspect=0;image=data:image/svg+xml,PHN2ZyB4bWxucz0iaHR0cDovL3d3dy53My5vcmcvMjAwMC9zdmciIHhtbG5zOnY9Imh0dHBzOi8vdmVjdGEuaW8vbmFubyIgd2lkdGg9IjIwIiBoZWlnaHQ9IjE2IiB2aWV3Qm94PSIwIDAgMjAgMTYiPiYjeGE7CTxzdHlsZSB0eXBlPSJ0ZXh0L2NzcyI+JiN4YTsJLnN0MHtmaWxsOiM0Mjg1ZjQ7fSYjeGE7CS5zdDF7ZmlsbDojNjY5ZGY2O30mI3hhOwkuc3Qye2ZpbGw6I2FlY2JmYTt9JiN4YTsJLnN0M3tmaWxsOiNmZmY7fSYjeGE7CTwvc3R5bGU+JiN4YTsJPHBhdGggY2xhc3M9InN0MiIgZD0iTTAgMGgyMHY3SDB6Ii8+JiN4YTsJPHBhdGggY2xhc3M9InN0MSIgZD0iTTE4IDBoMnY3aC0yeiIvPiYjeGE7CTxwYXRoIGNsYXNzPSJzdDAiIGQ9Ik0xOCA3bDItN2gtMnoiLz4mI3hhOwk8cGF0aCBjbGFzcz0ic3QxIiBkPSJNMCAwaDJ2N0gweiIvPiYjeGE7CTxnIGNsYXNzPSJzdDMiPiYjeGE7CQk8cGF0aCBkPSJNNCAzaDZ2MUg0eiIvPiYjeGE7CQk8cmVjdCB4PSIxMyIgeT0iMiIgd2lkdGg9IjMiIGhlaWdodD0iMyIgcng9IjEuNSIvPiYjeGE7CTwvZz4mI3hhOwk8cGF0aCBjbGFzcz0ic3QyIiBkPSJNMCA5aDIwdjdIMHoiLz4mI3hhOwk8cGF0aCBjbGFzcz0ic3QxIiBkPSJNMTggOWgydjdoLTJ6Ii8+JiN4YTsJPHBhdGggY2xhc3M9InN0MCIgZD0iTTE4IDE2bDItN2gtMnoiLz4mI3hhOwk8cGF0aCBjbGFzcz0ic3QxIiBkPSJNMCA5aDJ2N0gweiIvPiYjeGE7CTxnIGNsYXNzPSJzdDMiPiYjeGE7CQk8cGF0aCBkPSJNNCAxMmg2djFINHoiLz4mI3hhOwkJPHJlY3QgeD0iMTMiIHk9IjExIiB3aWR0aD0iMyIgaGVpZ2h0PSIzIiByeD0iMS41Ii8+JiN4YTsJPC9nPiYjeGE7PC9zdmc+;" vertex="1" parent="ZkOrWmyLlD2aejvwlaCL-109">
          <mxGeometry width="30" height="24" relative="1" as="geometry">
            <mxPoint x="15" y="18" as="offset" />
          </mxGeometry>
        </mxCell>
        <mxCell id="P1BTmt4Wik-yoa_3d7bQ-1" style="edgeStyle=none;curved=1;rounded=0;orthogonalLoop=1;jettySize=auto;html=1;fontSize=12;startSize=8;endSize=8;" edge="1" parent="1" target="P1BTmt4Wik-yoa_3d7bQ-3" source="ZkOrWmyLlD2aejvwlaCL-50">
          <mxGeometry relative="1" as="geometry">
            <mxPoint x="1766" y="-100" as="sourcePoint" />
          </mxGeometry>
        </mxCell>
        <mxCell id="P1BTmt4Wik-yoa_3d7bQ-2" value="&lt;div&gt;Utilisation d&#39;un lien&lt;/div&gt;&lt;div&gt;VEO&lt;br&gt;&lt;/div&gt;" style="edgeLabel;html=1;align=center;verticalAlign=middle;resizable=0;points=[];fontSize=12;" vertex="1" connectable="0" parent="P1BTmt4Wik-yoa_3d7bQ-1">
          <mxGeometry x="0.148" y="-2" relative="1" as="geometry">
            <mxPoint x="-27" y="-2" as="offset" />
          </mxGeometry>
        </mxCell>
        <mxCell id="P1BTmt4Wik-yoa_3d7bQ-8" style="edgeStyle=none;curved=1;rounded=0;orthogonalLoop=1;jettySize=auto;html=1;entryX=0.5;entryY=0;entryDx=0;entryDy=0;fontSize=12;startSize=8;endSize=8;" edge="1" parent="1" source="P1BTmt4Wik-yoa_3d7bQ-3" target="P1BTmt4Wik-yoa_3d7bQ-6">
          <mxGeometry relative="1" as="geometry" />
        </mxCell>
        <mxCell id="P1BTmt4Wik-yoa_3d7bQ-3" value="" style="strokeColor=#dddddd;shadow=1;strokeWidth=1;rounded=1;absoluteArcSize=1;arcSize=2;" vertex="1" parent="1">
          <mxGeometry x="2029" y="-127" width="168" height="57" as="geometry" />
        </mxCell>
        <mxCell id="P1BTmt4Wik-yoa_3d7bQ-4" value="&lt;font color=&quot;#000000&quot;&gt;Orchestrator&lt;/font&gt;&lt;br&gt;Cloud Run" style="editableCssRules=.*;html=1;fontColor=#999999;shape=image;verticalLabelPosition=middle;verticalAlign=middle;labelPosition=right;align=left;spacingLeft=20;part=1;points=[];imageAspect=0;image=data:image/svg+xml,PHN2ZyB4bWxucz0iaHR0cDovL3d3dy53My5vcmcvMjAwMC9zdmciIHhtbG5zOnY9Imh0dHBzOi8vdmVjdGEuaW8vbmFubyIgd2lkdGg9IjM2NS40NjQ5OTY3NzA0MjQ5MyIgaGVpZ2h0PSIzNzkuMjIyOTk0NDYzNTc3OTUiIHZpZXdCb3g9IjAgMCA5Ni42OTU5OTkxNDU1MDc4MSAxMDAuMzM1OTk4NTM1MTU2MjUiPiYjeGE7PHN0eWxlIHR5cGU9InRleHQvY3NzIj4mI3hhOwkuc3Qwe2ZpbGw6IzQyODVmNDt9JiN4YTsJLnN0MXtmaWxsOiNhZWNiZmE7fSYjeGE7PC9zdHlsZT4mI3hhOwk8cGF0aCBjbGFzcz0ic3QwIiBkPSJNMjkuNzk0IDEwMC4zMzZMNDYuOTIgNTAuMTY4aDQ5Ljc3NnpNMCA5OS42NzFsMTIuOTc2LTQ5LjUwMkgyOS4yMkwxNi44OTcgOTIuMDU0eiIvPiYjeGE7CTxwYXRoIGNsYXNzPSJzdDEiIGQ9Ik0yOS43OTQgMEw0Ni45MiA1MC4xNjhoNDkuNzc2ek0wIC42NjZsMTIuOTc2IDQ5LjUwMkgyOS4yMkwxNi44OTcgOC4yODN6Ii8+JiN4YTs8L3N2Zz4=;" vertex="1" parent="P1BTmt4Wik-yoa_3d7bQ-3">
          <mxGeometry width="30" height="30" relative="1" as="geometry">
            <mxPoint x="15" y="15" as="offset" />
          </mxGeometry>
        </mxCell>
        <mxCell id="P1BTmt4Wik-yoa_3d7bQ-5" style="edgeStyle=none;curved=1;rounded=0;orthogonalLoop=1;jettySize=auto;html=1;fontSize=12;startSize=8;endSize=8;entryX=1;entryY=0.5;entryDx=0;entryDy=0;" edge="1" parent="1" source="P1BTmt4Wik-yoa_3d7bQ-6" target="ZkOrWmyLlD2aejvwlaCL-52">
          <mxGeometry relative="1" as="geometry">
            <mxPoint x="1782" y="36" as="targetPoint" />
          </mxGeometry>
        </mxCell>
        <mxCell id="P1BTmt4Wik-yoa_3d7bQ-6" value="" style="strokeColor=#dddddd;shadow=1;strokeWidth=1;rounded=1;absoluteArcSize=1;arcSize=2;" vertex="1" parent="1">
          <mxGeometry x="2025" y="10" width="176" height="58" as="geometry" />
        </mxCell>
        <mxCell id="P1BTmt4Wik-yoa_3d7bQ-7" value="&lt;div&gt;&lt;font color=&quot;#000000&quot;&gt;API Scrap video&lt;br&gt;&lt;/font&gt;&lt;/div&gt;&lt;div&gt;Cloud Run&lt;/div&gt;" style="editableCssRules=.*;html=1;fontColor=#999999;shape=image;verticalLabelPosition=middle;verticalAlign=middle;labelPosition=right;align=left;spacingLeft=20;part=1;points=[];imageAspect=0;image=data:image/svg+xml,PHN2ZyB4bWxucz0iaHR0cDovL3d3dy53My5vcmcvMjAwMC9zdmciIHhtbG5zOnY9Imh0dHBzOi8vdmVjdGEuaW8vbmFubyIgd2lkdGg9IjM2NS40NjQ5OTY3NzA0MjQ5MyIgaGVpZ2h0PSIzNzkuMjIyOTk0NDYzNTc3OTUiIHZpZXdCb3g9IjAgMCA5Ni42OTU5OTkxNDU1MDc4MSAxMDAuMzM1OTk4NTM1MTU2MjUiPiYjeGE7PHN0eWxlIHR5cGU9InRleHQvY3NzIj4mI3hhOwkuc3Qwe2ZpbGw6IzQyODVmNDt9JiN4YTsJLnN0MXtmaWxsOiNhZWNiZmE7fSYjeGE7PC9zdHlsZT4mI3hhOwk8cGF0aCBjbGFzcz0ic3QwIiBkPSJNMjkuNzk0IDEwMC4zMzZMNDYuOTIgNTAuMTY4aDQ5Ljc3NnpNMCA5OS42NzFsMTIuOTc2LTQ5LjUwMkgyOS4yMkwxNi44OTcgOTIuMDU0eiIvPiYjeGE7CTxwYXRoIGNsYXNzPSJzdDEiIGQ9Ik0yOS43OTQgMEw0Ni45MiA1MC4xNjhoNDkuNzc2ek0wIC42NjZsMTIuOTc2IDQ5LjUwMkgyOS4yMkwxNi44OTcgOC4yODN6Ii8+JiN4YTs8L3N2Zz4=;" vertex="1" parent="P1BTmt4Wik-yoa_3d7bQ-6">
          <mxGeometry width="30" height="30" relative="1" as="geometry">
            <mxPoint x="15" y="15" as="offset" />
          </mxGeometry>
        </mxCell>
        <mxCell id="P1BTmt4Wik-yoa_3d7bQ-15" value="" style="edgeStyle=none;curved=0;rounded=0;orthogonalLoop=1;jettySize=auto;html=1;fontSize=12;startSize=8;endSize=8;exitX=0;exitY=0.5;exitDx=0;exitDy=0;" edge="1" parent="1" source="P1BTmt4Wik-yoa_3d7bQ-10" target="P1BTmt4Wik-yoa_3d7bQ-13">
          <mxGeometry relative="1" as="geometry">
            <Array as="points">
              <mxPoint x="1202" y="331" />
            </Array>
          </mxGeometry>
        </mxCell>
        <mxCell id="P1BTmt4Wik-yoa_3d7bQ-10" value="" style="strokeColor=#dddddd;shadow=1;strokeWidth=1;rounded=1;absoluteArcSize=1;arcSize=2;" vertex="1" parent="1">
          <mxGeometry x="1313" y="302" width="176" height="58" as="geometry" />
        </mxCell>
        <mxCell id="P1BTmt4Wik-yoa_3d7bQ-11" value="&lt;div&gt;&lt;font color=&quot;#000000&quot;&gt;API DÃ©coupe video&lt;br&gt;&lt;/font&gt;&lt;/div&gt;&lt;div&gt;Cloud Run&lt;/div&gt;" style="editableCssRules=.*;html=1;fontColor=#999999;shape=image;verticalLabelPosition=middle;verticalAlign=middle;labelPosition=right;align=left;spacingLeft=20;part=1;points=[];imageAspect=0;image=data:image/svg+xml,PHN2ZyB4bWxucz0iaHR0cDovL3d3dy53My5vcmcvMjAwMC9zdmciIHhtbG5zOnY9Imh0dHBzOi8vdmVjdGEuaW8vbmFubyIgd2lkdGg9IjM2NS40NjQ5OTY3NzA0MjQ5MyIgaGVpZ2h0PSIzNzkuMjIyOTk0NDYzNTc3OTUiIHZpZXdCb3g9IjAgMCA5Ni42OTU5OTkxNDU1MDc4MSAxMDAuMzM1OTk4NTM1MTU2MjUiPiYjeGE7PHN0eWxlIHR5cGU9InRleHQvY3NzIj4mI3hhOwkuc3Qwe2ZpbGw6IzQyODVmNDt9JiN4YTsJLnN0MXtmaWxsOiNhZWNiZmE7fSYjeGE7PC9zdHlsZT4mI3hhOwk8cGF0aCBjbGFzcz0ic3QwIiBkPSJNMjkuNzk0IDEwMC4zMzZMNDYuOTIgNTAuMTY4aDQ5Ljc3NnpNMCA5OS42NzFsMTIuOTc2LTQ5LjUwMkgyOS4yMkwxNi44OTcgOTIuMDU0eiIvPiYjeGE7CTxwYXRoIGNsYXNzPSJzdDEiIGQ9Ik0yOS43OTQgMEw0Ni45MiA1MC4xNjhoNDkuNzc2ek0wIC42NjZsMTIuOTc2IDQ5LjUwMkgyOS4yMkwxNi44OTcgOC4yODN6Ii8+JiN4YTs8L3N2Zz4=;" vertex="1" parent="P1BTmt4Wik-yoa_3d7bQ-10">
          <mxGeometry width="30" height="30" relative="1" as="geometry">
            <mxPoint x="15" y="15" as="offset" />
          </mxGeometry>
        </mxCell>
        <mxCell id="P1BTmt4Wik-yoa_3d7bQ-13" value="" style="strokeColor=#dddddd;shadow=1;strokeWidth=1;rounded=1;absoluteArcSize=1;arcSize=2;" vertex="1" parent="1">
          <mxGeometry x="1112" y="730" width="171" height="60" as="geometry" />
        </mxCell>
        <mxCell id="P1BTmt4Wik-yoa_3d7bQ-14" value="&lt;font color=&quot;#000000&quot;&gt;match_id-X.mp4&lt;/font&gt;&lt;br&gt;video-to-pipeline" style="editableCssRules=.*;html=1;fontColor=#999999;shape=image;verticalLabelPosition=middle;verticalAlign=middle;labelPosition=right;align=left;spacingLeft=20;part=1;points=[];imageAspect=0;image=data:image/svg+xml,PHN2ZyB4bWxucz0iaHR0cDovL3d3dy53My5vcmcvMjAwMC9zdmciIHhtbG5zOnY9Imh0dHBzOi8vdmVjdGEuaW8vbmFubyIgd2lkdGg9IjIwIiBoZWlnaHQ9IjE2IiB2aWV3Qm94PSIwIDAgMjAgMTYiPiYjeGE7CTxzdHlsZSB0eXBlPSJ0ZXh0L2NzcyI+JiN4YTsJLnN0MHtmaWxsOiM0Mjg1ZjQ7fSYjeGE7CS5zdDF7ZmlsbDojNjY5ZGY2O30mI3hhOwkuc3Qye2ZpbGw6I2FlY2JmYTt9JiN4YTsJLnN0M3tmaWxsOiNmZmY7fSYjeGE7CTwvc3R5bGU+JiN4YTsJPHBhdGggY2xhc3M9InN0MiIgZD0iTTAgMGgyMHY3SDB6Ii8+JiN4YTsJPHBhdGggY2xhc3M9InN0MSIgZD0iTTE4IDBoMnY3aC0yeiIvPiYjeGE7CTxwYXRoIGNsYXNzPSJzdDAiIGQ9Ik0xOCA3bDItN2gtMnoiLz4mI3hhOwk8cGF0aCBjbGFzcz0ic3QxIiBkPSJNMCAwaDJ2N0gweiIvPiYjeGE7CTxnIGNsYXNzPSJzdDMiPiYjeGE7CQk8cGF0aCBkPSJNNCAzaDZ2MUg0eiIvPiYjeGE7CQk8cmVjdCB4PSIxMyIgeT0iMiIgd2lkdGg9IjMiIGhlaWdodD0iMyIgcng9IjEuNSIvPiYjeGE7CTwvZz4mI3hhOwk8cGF0aCBjbGFzcz0ic3QyIiBkPSJNMCA5aDIwdjdIMHoiLz4mI3hhOwk8cGF0aCBjbGFzcz0ic3QxIiBkPSJNMTggOWgydjdoLTJ6Ii8+JiN4YTsJPHBhdGggY2xhc3M9InN0MCIgZD0iTTE4IDE2bDItN2gtMnoiLz4mI3hhOwk8cGF0aCBjbGFzcz0ic3QxIiBkPSJNMCA5aDJ2N0gweiIvPiYjeGE7CTxnIGNsYXNzPSJzdDMiPiYjeGE7CQk8cGF0aCBkPSJNNCAxMmg2djFINHoiLz4mI3hhOwkJPHJlY3QgeD0iMTMiIHk9IjExIiB3aWR0aD0iMyIgaGVpZ2h0PSIzIiByeD0iMS41Ii8+JiN4YTsJPC9nPiYjeGE7PC9zdmc+;" vertex="1" parent="P1BTmt4Wik-yoa_3d7bQ-13">
          <mxGeometry width="30" height="24" relative="1" as="geometry">
            <mxPoint x="15" y="18" as="offset" />
          </mxGeometry>
        </mxCell>
      </root>
    </mxGraphModel>
  </diagram>
  <diagram id="9r1zJm4RfiS7As-P6bsz" name="Sportlogiq Tracking + Event">
    <mxGraphModel dx="2649" dy="1320" grid="0" gridSize="10" guides="1" tooltips="1" connect="1" arrows="1" fold="1" page="0" pageScale="1" pageWidth="4681" pageHeight="3300" math="0" shadow="0">
      <root>
        <mxCell id="0" />
        <mxCell id="1" parent="0" />
        <mxCell id="24Erfylf1hh-AoZqiBdx-1" style="edgeStyle=none;curved=1;rounded=0;orthogonalLoop=1;jettySize=auto;html=1;entryX=0.551;entryY=0.012;entryDx=0;entryDy=0;fontSize=12;startSize=8;endSize=8;entryPerimeter=0;" edge="1" parent="1" source="24Erfylf1hh-AoZqiBdx-3" target="24Erfylf1hh-AoZqiBdx-5">
          <mxGeometry relative="1" as="geometry" />
        </mxCell>
        <mxCell id="24Erfylf1hh-AoZqiBdx-2" value="&lt;div align=&quot;center&quot;&gt;DÃ©pÃ´t&lt;/div&gt;&lt;div align=&quot;center&quot;&gt;direct&lt;/div&gt;" style="edgeLabel;html=1;align=center;verticalAlign=middle;resizable=0;points=[];fontSize=12;" vertex="1" connectable="0" parent="24Erfylf1hh-AoZqiBdx-1">
          <mxGeometry x="-0.3228" y="-1" relative="1" as="geometry">
            <mxPoint x="1" y="3" as="offset" />
          </mxGeometry>
        </mxCell>
        <mxCell id="wJG9dDJHgOqIVjIkutic-3" style="edgeStyle=none;curved=1;rounded=0;orthogonalLoop=1;jettySize=auto;html=1;fontSize=12;startSize=8;endSize=8;" edge="1" parent="1" source="24Erfylf1hh-AoZqiBdx-3" target="wJG9dDJHgOqIVjIkutic-1">
          <mxGeometry relative="1" as="geometry" />
        </mxCell>
        <mxCell id="wJG9dDJHgOqIVjIkutic-4" value="&lt;div&gt;Utilisation d&#39;un lien&lt;/div&gt;&lt;div&gt;VEO&lt;br&gt;&lt;/div&gt;" style="edgeLabel;html=1;align=center;verticalAlign=middle;resizable=0;points=[];fontSize=12;" vertex="1" connectable="0" parent="wJG9dDJHgOqIVjIkutic-3">
          <mxGeometry x="0.148" y="-2" relative="1" as="geometry">
            <mxPoint x="-27" y="-2" as="offset" />
          </mxGeometry>
        </mxCell>
        <mxCell id="24Erfylf1hh-AoZqiBdx-3" value="Front" style="rounded=1;whiteSpace=wrap;html=1;" vertex="1" parent="1">
          <mxGeometry x="-399" y="-136" width="120" height="60" as="geometry" />
        </mxCell>
        <mxCell id="24Erfylf1hh-AoZqiBdx-4" value="" style="edgeStyle=none;curved=1;rounded=0;orthogonalLoop=1;jettySize=auto;html=1;fontSize=12;startSize=8;endSize=8;exitX=0.5;exitY=1;exitDx=0;exitDy=0;" edge="1" parent="1" source="24Erfylf1hh-AoZqiBdx-5" target="24Erfylf1hh-AoZqiBdx-9">
          <mxGeometry relative="1" as="geometry">
            <mxPoint x="-345" y="77" as="sourcePoint" />
          </mxGeometry>
        </mxCell>
        <mxCell id="24Erfylf1hh-AoZqiBdx-5" value="" style="strokeColor=#dddddd;shadow=1;strokeWidth=1;rounded=1;absoluteArcSize=1;arcSize=2;" vertex="1" parent="1">
          <mxGeometry x="-434" width="171" height="60" as="geometry" />
        </mxCell>
        <mxCell id="24Erfylf1hh-AoZqiBdx-6" value="&lt;font color=&quot;#000000&quot;&gt;match_id.mp4&lt;/font&gt;&lt;br&gt;video-to-pipeline" style="editableCssRules=.*;html=1;fontColor=#999999;shape=image;verticalLabelPosition=middle;verticalAlign=middle;labelPosition=right;align=left;spacingLeft=20;part=1;points=[];imageAspect=0;image=data:image/svg+xml,PHN2ZyB4bWxucz0iaHR0cDovL3d3dy53My5vcmcvMjAwMC9zdmciIHhtbG5zOnY9Imh0dHBzOi8vdmVjdGEuaW8vbmFubyIgd2lkdGg9IjIwIiBoZWlnaHQ9IjE2IiB2aWV3Qm94PSIwIDAgMjAgMTYiPiYjeGE7CTxzdHlsZSB0eXBlPSJ0ZXh0L2NzcyI+JiN4YTsJLnN0MHtmaWxsOiM0Mjg1ZjQ7fSYjeGE7CS5zdDF7ZmlsbDojNjY5ZGY2O30mI3hhOwkuc3Qye2ZpbGw6I2FlY2JmYTt9JiN4YTsJLnN0M3tmaWxsOiNmZmY7fSYjeGE7CTwvc3R5bGU+JiN4YTsJPHBhdGggY2xhc3M9InN0MiIgZD0iTTAgMGgyMHY3SDB6Ii8+JiN4YTsJPHBhdGggY2xhc3M9InN0MSIgZD0iTTE4IDBoMnY3aC0yeiIvPiYjeGE7CTxwYXRoIGNsYXNzPSJzdDAiIGQ9Ik0xOCA3bDItN2gtMnoiLz4mI3hhOwk8cGF0aCBjbGFzcz0ic3QxIiBkPSJNMCAwaDJ2N0gweiIvPiYjeGE7CTxnIGNsYXNzPSJzdDMiPiYjeGE7CQk8cGF0aCBkPSJNNCAzaDZ2MUg0eiIvPiYjeGE7CQk8cmVjdCB4PSIxMyIgeT0iMiIgd2lkdGg9IjMiIGhlaWdodD0iMyIgcng9IjEuNSIvPiYjeGE7CTwvZz4mI3hhOwk8cGF0aCBjbGFzcz0ic3QyIiBkPSJNMCA5aDIwdjdIMHoiLz4mI3hhOwk8cGF0aCBjbGFzcz0ic3QxIiBkPSJNMTggOWgydjdoLTJ6Ii8+JiN4YTsJPHBhdGggY2xhc3M9InN0MCIgZD0iTTE4IDE2bDItN2gtMnoiLz4mI3hhOwk8cGF0aCBjbGFzcz0ic3QxIiBkPSJNMCA5aDJ2N0gweiIvPiYjeGE7CTxnIGNsYXNzPSJzdDMiPiYjeGE7CQk8cGF0aCBkPSJNNCAxMmg2djFINHoiLz4mI3hhOwkJPHJlY3QgeD0iMTMiIHk9IjExIiB3aWR0aD0iMyIgaGVpZ2h0PSIzIiByeD0iMS41Ii8+JiN4YTsJPC9nPiYjeGE7PC9zdmc+;" vertex="1" parent="24Erfylf1hh-AoZqiBdx-5">
          <mxGeometry width="30" height="24" relative="1" as="geometry">
            <mxPoint x="15" y="18" as="offset" />
          </mxGeometry>
        </mxCell>
        <mxCell id="24Erfylf1hh-AoZqiBdx-7" value="" style="edgeStyle=none;curved=1;rounded=0;orthogonalLoop=1;jettySize=auto;html=1;fontSize=12;startSize=8;endSize=8;entryX=0.5;entryY=0;entryDx=0;entryDy=0;exitX=0.5;exitY=1;exitDx=0;exitDy=0;" edge="1" parent="1" source="24Erfylf1hh-AoZqiBdx-9" target="32gzXy14Mf4yD-74WN9M-3">
          <mxGeometry relative="1" as="geometry">
            <mxPoint x="199" y="-95" as="targetPoint" />
          </mxGeometry>
        </mxCell>
        <mxCell id="24Erfylf1hh-AoZqiBdx-9" value="Eventarc" style="sketch=0;html=1;verticalAlign=top;labelPosition=center;verticalLabelPosition=bottom;align=center;spacingTop=-6;fontSize=11;fontStyle=1;fontColor=#999999;shape=image;aspect=fixed;imageAspect=0;image=data:image/svg+xml,PHN2ZyB4bWxucz0iaHR0cDovL3d3dy53My5vcmcvMjAwMC9zdmciIGlkPSJzdmc4MzgiIHZlcnNpb249IjEuMSIgdmlld0JveD0iMCAwIDE2NC4zNDc1OCAxNjQuMzQ3NiIgaGVpZ2h0PSIxNjQuMzQ3Nm1tIiB3aWR0aD0iMTY0LjM0NzU4bW0iPiYjeGE7ICA8cGF0aCBkPSJtIDEyMy43NzczOCwzMy41NDQ5NDIgLTg5LjgwODYwMSw4OS4zMjYxNjggOC4xMDkzNzUsOC4xNTQzIDg5LjgwODU5NiwtODkuMzI2MTY3IHogTSAxNC41MDgxOTcsMzUuNTkxNzMzIEMgNS4zNjEyNTIsNDguODM4NjEzIDAsNjQuODkxMTUzIDAsODIuMTczNzkzIGMgMWUtNiw5LjI1NTM0IDEuNTYwNDAxLDE4LjE0NzQzNyA0LjM5MzUzLDI2LjQ1NTIyNyAzLjA2OTg2MywtMi40MzY5NiA2LjUxMjg4MywtNC4zNjI1NSAxMC4xOTYyNzcsLTUuNzAyNDkgLTIuMDA0OTk2LC02LjU2MDIwNyAtMy4wODk3MzIsLTEzLjUyNjU2NyAtMy4wODk3MzIsLTIwLjc1MjczNyAwLC0xNC45NzI0NyA0LjYyOTY1LC0yOC44NDEyNyAxMi41Mzg3NywtNDAuMjU2MjEgeiBNIDQxLjUwNzc0NSwyNC4zMjQ5NjYgYyAxMS40OTIxMTEsLTguMDgzNDczIDI1LjUxMzkxOSwtMTIuODI0ODk0IDQwLjY2NjA1MSwtMTIuODI0ODk0IDcuMjIxOTksMCAxNC4xODYwMSwxLjA3OTcyMiAyMC43NDI5MjQsMy4wODI0OTkgMS4zOTExMSwtMy42ODE2MDggMy4zNjk2LC03LjExMzQ3NCA1Ljg1ODU1LC0xMC4xNjIxNyBDIDEwMC40MjgzMywxLjU1NzMzMiA5MS40ODAwOTYsMCA4Mi4xNzM3OTYsMCA2NC42NzY0MzcsMCA0OC40Mzk5NCw1LjQ5NTI5MiAzNS4wOTkzMiwxNC44NTA4NjEgWiBNIDEyMi43OTAzNiwxNDAuMDU3NCBjIC0xMS40ODI4Niw4LjA2MjMgLTI1LjQ4NjE3NCwxMi43OTAxMiAtNDAuNjE2NTY0LDEyLjc5MDExIC03LjI4NTE4OSwwIC0xNC4zMDc5NSwtMS4wOTg1OCAtMjAuOTE1MDAzLC0zLjEzNTIxIC0xLjM0OTc5LDMuNjc4NzYgLTMuMjg0MjYyLDcuMTE1NjUgLTUuNzI4ODUxLDEwLjE3ODE5IDguMzYxNTE2LDIuODc0MjYgMTcuMzE4NTU5LDQuNDU3MDkgMjYuNjQzODU0LDQuNDU3MSAxNy40OTQ3OSwwIDMzLjcyOTA5NCwtNS40OTM2OCA0Ny4wNjg2MDQsLTE0Ljg0Njc0IHogbSAyNy4xMzQyMiwtMTEuNDI1MTUgYyA5LjA5NTAzLC0xMy4yMjMwNyAxNC40MjMwMSwtMjkuMjI5NTI3IDE0LjQyMzAxLC00Ni40NTg0NTcgMCwtOS4yNTU0MSAtMS41MzkxNywtMTguMTU3MiAtNC4zNzIzNCwtMjYuNDY1MDUgLTMuMDUxMzIsMi40ODkxOCAtNi40ODYwMiw0LjQ2NzE3IC0xMC4xNzA0NCw1Ljg1NzAxIDEuOTc2NTMsNi41MTc2NSAzLjA0MjcxLDEzLjQzNTM4IDMuMDQyNzEsMjAuNjA4MDQgMCwxNS4wODgxNCAtNC43MDE0NSwyOS4wNTU0NzcgLTEyLjcyMjY0LDQwLjUyMDI5NyB6IiBzdHlsZT0iY29sb3I6IzAwMDAwMDtvcGFjaXR5OjE7ZmlsbDojNDI4NWY0O2ZpbGwtb3BhY2l0eToxOy1pbmtzY2FwZS1zdHJva2U6bm9uZSIvPiYjeGE7ICA8cGF0aCBkPSJNIDEwNi4wMDc4LDgyLjY0Njc2MyBBIDIzLjc1ODk3NiwyMy43NTg5NzYgMCAwIDEgODIuMjQ4ODE2LDEwNi40MDU3NCAyMy43NTg5NzYsMjMuNzU4OTc2IDAgMCAxIDU4LjQ4OTg0LDgyLjY0Njc2MyAyMy43NTg5NzYsMjMuNzU4OTc2IDAgMCAxIDgyLjI0ODgxNiw1OC44ODc3ODMgMjMuNzU4OTc2LDIzLjc1ODk3NiAwIDAgMSAxMDYuMDA3OCw4Mi42NDY3NjMgWiIgc3R5bGU9ImNvbG9yOiMwMDAwMDA7b3BhY2l0eToxO2ZpbGw6IzY2OWRmNjtmaWxsLW9wYWNpdHk6MTtzdHJva2Utd2lkdGg6MTEuNTtzdHJva2UtbGluZWNhcDpyb3VuZDstaW5rc2NhcGUtc3Ryb2tlOm5vbmUiLz4mI3hhOyAgPHBhdGggZD0ibSAxMzYuODc4OTQsMTE3LjEzNDc4IGMgLTExLjA1Nzc1LDAgLTIwLjE0NDU0LDkuMDg4NzQgLTIwLjE0NDUzLDIwLjE0NjQ5IDAsMTEuMDU3NzQgOS4wODY3OSwyMC4xNDQ1MyAyMC4xNDQ1MywyMC4xNDQ1MyAxMS4wNTc3MywwIDIwLjE0NjQ4LC05LjA4NjggMjAuMTQ2NDgsLTIwLjE0NDUzIDFlLTUsLTExLjA1Nzc0IC05LjA4ODc0LC0yMC4xNDY0OCAtMjAuMTQ2NDgsLTIwLjE0NjQ5IHogbSAwLDExLjUgYyA0Ljg0MjY4LDAgOC42NDY0OSwzLjgwMzggOC42NDY0OCw4LjY0NjQ5IDAsNC44NDI2OCAtMy44MDM4LDguNjQ0NTMgLTguNjQ2NDgsOC42NDQ1MyAtNC44NDI2OCwwIC04LjY0NDUzLC0zLjgwMTg1IC04LjY0NDUzLC04LjY0NDUzIDAsLTQuODQyNjkgMy44MDE4NCwtOC42NDY0OSA4LjY0NDUzLC04LjY0NjQ5IHogTSAyNy4wOTU3MzIsMTE2Ljk3NDYzIGMgLTExLjA1NzczNiwwIC0yMC4xNDQ1MjgsOS4wODY3OSAtMjAuMTQ0NTMxLDIwLjE0NDUzIC01ZS02LDExLjA1Nzc0IDkuMDg2NzksMjAuMTQ2NDggMjAuMTQ0NTMxLDIwLjE0NjQ4IDExLjA1Nzc0MiwwIDIwLjE0NjQ4OSwtOS4wODg3NCAyMC4xNDY0ODUsLTIwLjE0NjQ4IC0zZS02LC0xMS4wNTc3NCAtOS4wODg3NDgsLTIwLjE0NDUzIC0yMC4xNDY0ODUsLTIwLjE0NDUzIHogbSAwLDExLjUgYyA0Ljg0MjY4MiwwIDguNjQ2NDgzLDMuODAxODUgOC42NDY0ODUsOC42NDQ1MyAyZS02LDQuODQyNjggLTMuODAzOCw4LjY0NjQ4IC04LjY0NjQ4NSw4LjY0NjQ4IC00Ljg0MjY4NCwwIC04LjY0NDUzMywtMy44MDM4IC04LjY0NDUzMSwtOC42NDY0OCAxMGUtNywtNC44NDI2OCAzLjgwMTg0OSwtOC42NDQ1MyA4LjY0NDUzMSwtOC42NDQ1MyB6IE0gMTM2Ljk0MTQ0LDcuMzQzNzcgYyAtMTEuMDU3NzQsM2UtNiAtMjAuMTQ2NDksOS4wODY3OTUgLTIwLjE0NjQ5LDIwLjE0NDUzMSAwLDExLjA1Nzc0MiA5LjA4ODc1LDIwLjE0NjQ4MiAyMC4xNDY0OSwyMC4xNDY0ODIgMTEuMDU3NzQsMWUtNSAyMC4xNDQ1MywtOS4wODg3NCAyMC4xNDQ1MywtMjAuMTQ2NDgyIDAsLTExLjA1Nzc0MSAtOS4wODY3OSwtMjAuMTQ0NTM2IC0yMC4xNDQ1MywtMjAuMTQ0NTMxIHogbSAwLDExLjUgYyA0Ljg0MjY4LC0yZS02IDguNjQ0NTMsMy44MDE4NDcgOC42NDQ1Myw4LjY0NDUzMSAwLDQuODQyNjg1IC0zLjgwMTg1LDguNjQ2NDgyIC04LjY0NDUzLDguNjQ2NDgyIC00Ljg0MjY4LDAgLTguNjQ2NDksLTMuODAzNzk5IC04LjY0NjQ5LC04LjY0NjQ4MiAwLC00Ljg0MjY4MiAzLjgwMzgxLC04LjY0NDUzIDguNjQ2NDksLTguNjQ0NTMxIHogTSAyNy4wODk4NzMsNy40Mzc1MiBjIC0xMS4wNTc3MzksLTFlLTYgLTIwLjE0NDUzMSw5LjA4Njc5MiAtMjAuMTQ0NTMxLDIwLjE0NDUzMSAyZS02LDExLjA1Nzc0MiA5LjA4Njc5NCwyMC4xNDQ1MzIgMjAuMTQ0NTMxLDIwLjE0NDUzMiAxMS4wNTc3MzYsMCAyMC4xNDY0ODIsLTkuMDg2OCAyMC4xNDY0ODQsLTIwLjE0NDUzMiAwLC0xMS4wNTc3MzggLTkuMDg4NzQ2LC0yMC4xNDQ1MzEgLTIwLjE0NjQ4NCwtMjAuMTQ0NTMxIHogbSAwLDExLjUgYyA0Ljg0MjY4MywwIDguNjQ2NDg0LDMuODAxODQ4IDguNjQ2NDg0LDguNjQ0NTMxIC0xMGUtNyw0Ljg0MjY4MiAtMy44MDM4MDIsOC42NDQ1MzIgLTguNjQ2NDg0LDguNjQ0NTMyIC00Ljg0MjY4MywwIC04LjY0NDUzLC0zLjgwMTg0OSAtOC42NDQ1MzEsLTguNjQ0NTMyIDAsLTQuODQyNjgzIDMuODAxODQ4LC04LjY0NDUzMSA4LjY0NDUzMSwtOC42NDQ1MzEgeiIgc3R5bGU9ImNvbG9yOiMwMDAwMDA7b3BhY2l0eToxO2ZpbGw6I2FlY2JmYTtmaWxsLW9wYWNpdHk6MTtzdHJva2UtbGluZWNhcDpyb3VuZDstaW5rc2NhcGUtc3Ryb2tlOm5vbmUiLz4mI3hhOzwvc3ZnPg==;" vertex="1" parent="1">
          <mxGeometry x="-369.5" y="147" width="42" height="42" as="geometry" />
        </mxCell>
        <mxCell id="24Erfylf1hh-AoZqiBdx-10" style="edgeStyle=none;curved=1;rounded=0;orthogonalLoop=1;jettySize=auto;html=1;entryX=0.5;entryY=0;entryDx=0;entryDy=0;fontSize=12;startSize=8;endSize=8;dashed=1;" edge="1" parent="1" source="24Erfylf1hh-AoZqiBdx-11" target="24Erfylf1hh-AoZqiBdx-15">
          <mxGeometry relative="1" as="geometry" />
        </mxCell>
        <mxCell id="24Erfylf1hh-AoZqiBdx-11" value="" style="strokeColor=#dddddd;shadow=1;strokeWidth=1;rounded=1;absoluteArcSize=1;arcSize=2;" vertex="1" parent="1">
          <mxGeometry x="-18" y="293" width="148" height="58" as="geometry" />
        </mxCell>
        <mxCell id="24Erfylf1hh-AoZqiBdx-12" value="&lt;div&gt;&lt;font color=&quot;#000000&quot;&gt;API Send to&lt;/font&gt;&lt;/div&gt;&lt;div&gt;&lt;font color=&quot;#000000&quot;&gt;Sportlogiq&lt;br&gt;&lt;/font&gt;&lt;/div&gt;Cloud Run" style="editableCssRules=.*;html=1;fontColor=#999999;shape=image;verticalLabelPosition=middle;verticalAlign=middle;labelPosition=right;align=left;spacingLeft=20;part=1;points=[];imageAspect=0;image=data:image/svg+xml,PHN2ZyB4bWxucz0iaHR0cDovL3d3dy53My5vcmcvMjAwMC9zdmciIHhtbG5zOnY9Imh0dHBzOi8vdmVjdGEuaW8vbmFubyIgd2lkdGg9IjM2NS40NjQ5OTY3NzA0MjQ5MyIgaGVpZ2h0PSIzNzkuMjIyOTk0NDYzNTc3OTUiIHZpZXdCb3g9IjAgMCA5Ni42OTU5OTkxNDU1MDc4MSAxMDAuMzM1OTk4NTM1MTU2MjUiPiYjeGE7PHN0eWxlIHR5cGU9InRleHQvY3NzIj4mI3hhOwkuc3Qwe2ZpbGw6IzQyODVmNDt9JiN4YTsJLnN0MXtmaWxsOiNhZWNiZmE7fSYjeGE7PC9zdHlsZT4mI3hhOwk8cGF0aCBjbGFzcz0ic3QwIiBkPSJNMjkuNzk0IDEwMC4zMzZMNDYuOTIgNTAuMTY4aDQ5Ljc3NnpNMCA5OS42NzFsMTIuOTc2LTQ5LjUwMkgyOS4yMkwxNi44OTcgOTIuMDU0eiIvPiYjeGE7CTxwYXRoIGNsYXNzPSJzdDEiIGQ9Ik0yOS43OTQgMEw0Ni45MiA1MC4xNjhoNDkuNzc2ek0wIC42NjZsMTIuOTc2IDQ5LjUwMkgyOS4yMkwxNi44OTcgOC4yODN6Ii8+JiN4YTs8L3N2Zz4=;" vertex="1" parent="24Erfylf1hh-AoZqiBdx-11">
          <mxGeometry width="30" height="30" relative="1" as="geometry">
            <mxPoint x="15" y="15" as="offset" />
          </mxGeometry>
        </mxCell>
        <mxCell id="24Erfylf1hh-AoZqiBdx-15" value="" style="strokeColor=#dddddd;shadow=1;strokeWidth=1;rounded=1;absoluteArcSize=1;arcSize=2;" vertex="1" parent="1">
          <mxGeometry x="-49" y="489" width="210" height="60" as="geometry" />
        </mxCell>
        <mxCell id="24Erfylf1hh-AoZqiBdx-16" value="&lt;font color=&quot;#000000&quot;&gt;tracking_match_id.csv&lt;/font&gt;&lt;br&gt;video-to-pipeline" style="editableCssRules=.*;html=1;fontColor=#999999;shape=image;verticalLabelPosition=middle;verticalAlign=middle;labelPosition=right;align=left;spacingLeft=20;part=1;points=[];imageAspect=0;image=data:image/svg+xml,PHN2ZyB4bWxucz0iaHR0cDovL3d3dy53My5vcmcvMjAwMC9zdmciIHhtbG5zOnY9Imh0dHBzOi8vdmVjdGEuaW8vbmFubyIgd2lkdGg9IjIwIiBoZWlnaHQ9IjE2IiB2aWV3Qm94PSIwIDAgMjAgMTYiPiYjeGE7CTxzdHlsZSB0eXBlPSJ0ZXh0L2NzcyI+JiN4YTsJLnN0MHtmaWxsOiM0Mjg1ZjQ7fSYjeGE7CS5zdDF7ZmlsbDojNjY5ZGY2O30mI3hhOwkuc3Qye2ZpbGw6I2FlY2JmYTt9JiN4YTsJLnN0M3tmaWxsOiNmZmY7fSYjeGE7CTwvc3R5bGU+JiN4YTsJPHBhdGggY2xhc3M9InN0MiIgZD0iTTAgMGgyMHY3SDB6Ii8+JiN4YTsJPHBhdGggY2xhc3M9InN0MSIgZD0iTTE4IDBoMnY3aC0yeiIvPiYjeGE7CTxwYXRoIGNsYXNzPSJzdDAiIGQ9Ik0xOCA3bDItN2gtMnoiLz4mI3hhOwk8cGF0aCBjbGFzcz0ic3QxIiBkPSJNMCAwaDJ2N0gweiIvPiYjeGE7CTxnIGNsYXNzPSJzdDMiPiYjeGE7CQk8cGF0aCBkPSJNNCAzaDZ2MUg0eiIvPiYjeGE7CQk8cmVjdCB4PSIxMyIgeT0iMiIgd2lkdGg9IjMiIGhlaWdodD0iMyIgcng9IjEuNSIvPiYjeGE7CTwvZz4mI3hhOwk8cGF0aCBjbGFzcz0ic3QyIiBkPSJNMCA5aDIwdjdIMHoiLz4mI3hhOwk8cGF0aCBjbGFzcz0ic3QxIiBkPSJNMTggOWgydjdoLTJ6Ii8+JiN4YTsJPHBhdGggY2xhc3M9InN0MCIgZD0iTTE4IDE2bDItN2gtMnoiLz4mI3hhOwk8cGF0aCBjbGFzcz0ic3QxIiBkPSJNMCA5aDJ2N0gweiIvPiYjeGE7CTxnIGNsYXNzPSJzdDMiPiYjeGE7CQk8cGF0aCBkPSJNNCAxMmg2djFINHoiLz4mI3hhOwkJPHJlY3QgeD0iMTMiIHk9IjExIiB3aWR0aD0iMyIgaGVpZ2h0PSIzIiByeD0iMS41Ii8+JiN4YTsJPC9nPiYjeGE7PC9zdmc+;" vertex="1" parent="24Erfylf1hh-AoZqiBdx-15">
          <mxGeometry width="30" height="24" relative="1" as="geometry">
            <mxPoint x="15" y="18" as="offset" />
          </mxGeometry>
        </mxCell>
        <mxCell id="24Erfylf1hh-AoZqiBdx-17" style="edgeStyle=none;curved=1;rounded=0;orthogonalLoop=1;jettySize=auto;html=1;exitX=0;exitY=0.5;exitDx=0;exitDy=0;fontSize=12;startSize=8;endSize=8;" edge="1" parent="1" source="24Erfylf1hh-AoZqiBdx-18" target="24Erfylf1hh-AoZqiBdx-28">
          <mxGeometry relative="1" as="geometry">
            <mxPoint x="-536.5294117647059" y="1009.6358823529413" as="targetPoint" />
          </mxGeometry>
        </mxCell>
        <mxCell id="24Erfylf1hh-AoZqiBdx-18" value="" style="strokeColor=#dddddd;shadow=1;strokeWidth=1;rounded=1;absoluteArcSize=1;arcSize=2;" vertex="1" parent="1">
          <mxGeometry x="-49" y="565" width="210" height="60" as="geometry" />
        </mxCell>
        <mxCell id="24Erfylf1hh-AoZqiBdx-19" value="&lt;font color=&quot;#000000&quot;&gt;events_match_id.csv&lt;/font&gt;&lt;br&gt;video-to-pipeline" style="editableCssRules=.*;html=1;fontColor=#999999;shape=image;verticalLabelPosition=middle;verticalAlign=middle;labelPosition=right;align=left;spacingLeft=20;part=1;points=[];imageAspect=0;image=data:image/svg+xml,PHN2ZyB4bWxucz0iaHR0cDovL3d3dy53My5vcmcvMjAwMC9zdmciIHhtbG5zOnY9Imh0dHBzOi8vdmVjdGEuaW8vbmFubyIgd2lkdGg9IjIwIiBoZWlnaHQ9IjE2IiB2aWV3Qm94PSIwIDAgMjAgMTYiPiYjeGE7CTxzdHlsZSB0eXBlPSJ0ZXh0L2NzcyI+JiN4YTsJLnN0MHtmaWxsOiM0Mjg1ZjQ7fSYjeGE7CS5zdDF7ZmlsbDojNjY5ZGY2O30mI3hhOwkuc3Qye2ZpbGw6I2FlY2JmYTt9JiN4YTsJLnN0M3tmaWxsOiNmZmY7fSYjeGE7CTwvc3R5bGU+JiN4YTsJPHBhdGggY2xhc3M9InN0MiIgZD0iTTAgMGgyMHY3SDB6Ii8+JiN4YTsJPHBhdGggY2xhc3M9InN0MSIgZD0iTTE4IDBoMnY3aC0yeiIvPiYjeGE7CTxwYXRoIGNsYXNzPSJzdDAiIGQ9Ik0xOCA3bDItN2gtMnoiLz4mI3hhOwk8cGF0aCBjbGFzcz0ic3QxIiBkPSJNMCAwaDJ2N0gweiIvPiYjeGE7CTxnIGNsYXNzPSJzdDMiPiYjeGE7CQk8cGF0aCBkPSJNNCAzaDZ2MUg0eiIvPiYjeGE7CQk8cmVjdCB4PSIxMyIgeT0iMiIgd2lkdGg9IjMiIGhlaWdodD0iMyIgcng9IjEuNSIvPiYjeGE7CTwvZz4mI3hhOwk8cGF0aCBjbGFzcz0ic3QyIiBkPSJNMCA5aDIwdjdIMHoiLz4mI3hhOwk8cGF0aCBjbGFzcz0ic3QxIiBkPSJNMTggOWgydjdoLTJ6Ii8+JiN4YTsJPHBhdGggY2xhc3M9InN0MCIgZD0iTTE4IDE2bDItN2gtMnoiLz4mI3hhOwk8cGF0aCBjbGFzcz0ic3QxIiBkPSJNMCA5aDJ2N0gweiIvPiYjeGE7CTxnIGNsYXNzPSJzdDMiPiYjeGE7CQk8cGF0aCBkPSJNNCAxMmg2djFINHoiLz4mI3hhOwkJPHJlY3QgeD0iMTMiIHk9IjExIiB3aWR0aD0iMyIgaGVpZ2h0PSIzIiByeD0iMS41Ii8+JiN4YTsJPC9nPiYjeGE7PC9zdmc+;" vertex="1" parent="24Erfylf1hh-AoZqiBdx-18">
          <mxGeometry width="30" height="24" relative="1" as="geometry">
            <mxPoint x="15" y="18" as="offset" />
          </mxGeometry>
        </mxCell>
        <mxCell id="24Erfylf1hh-AoZqiBdx-27" style="edgeStyle=none;curved=1;rounded=0;orthogonalLoop=1;jettySize=auto;html=1;entryX=1;entryY=0.5;entryDx=0;entryDy=0;fontSize=12;startSize=8;endSize=8;" edge="1" parent="1" source="24Erfylf1hh-AoZqiBdx-28" target="32gzXy14Mf4yD-74WN9M-6">
          <mxGeometry relative="1" as="geometry" />
        </mxCell>
        <mxCell id="24Erfylf1hh-AoZqiBdx-28" value="Eventarc" style="sketch=0;html=1;verticalAlign=top;labelPosition=center;verticalLabelPosition=bottom;align=center;spacingTop=-6;fontSize=11;fontStyle=1;fontColor=#999999;shape=image;aspect=fixed;imageAspect=0;image=data:image/svg+xml,PHN2ZyB4bWxucz0iaHR0cDovL3d3dy53My5vcmcvMjAwMC9zdmciIGlkPSJzdmc4MzgiIHZlcnNpb249IjEuMSIgdmlld0JveD0iMCAwIDE2NC4zNDc1OCAxNjQuMzQ3NiIgaGVpZ2h0PSIxNjQuMzQ3Nm1tIiB3aWR0aD0iMTY0LjM0NzU4bW0iPiYjeGE7ICA8cGF0aCBkPSJtIDEyMy43NzczOCwzMy41NDQ5NDIgLTg5LjgwODYwMSw4OS4zMjYxNjggOC4xMDkzNzUsOC4xNTQzIDg5LjgwODU5NiwtODkuMzI2MTY3IHogTSAxNC41MDgxOTcsMzUuNTkxNzMzIEMgNS4zNjEyNTIsNDguODM4NjEzIDAsNjQuODkxMTUzIDAsODIuMTczNzkzIGMgMWUtNiw5LjI1NTM0IDEuNTYwNDAxLDE4LjE0NzQzNyA0LjM5MzUzLDI2LjQ1NTIyNyAzLjA2OTg2MywtMi40MzY5NiA2LjUxMjg4MywtNC4zNjI1NSAxMC4xOTYyNzcsLTUuNzAyNDkgLTIuMDA0OTk2LC02LjU2MDIwNyAtMy4wODk3MzIsLTEzLjUyNjU2NyAtMy4wODk3MzIsLTIwLjc1MjczNyAwLC0xNC45NzI0NyA0LjYyOTY1LC0yOC44NDEyNyAxMi41Mzg3NywtNDAuMjU2MjEgeiBNIDQxLjUwNzc0NSwyNC4zMjQ5NjYgYyAxMS40OTIxMTEsLTguMDgzNDczIDI1LjUxMzkxOSwtMTIuODI0ODk0IDQwLjY2NjA1MSwtMTIuODI0ODk0IDcuMjIxOTksMCAxNC4xODYwMSwxLjA3OTcyMiAyMC43NDI5MjQsMy4wODI0OTkgMS4zOTExMSwtMy42ODE2MDggMy4zNjk2LC03LjExMzQ3NCA1Ljg1ODU1LC0xMC4xNjIxNyBDIDEwMC40MjgzMywxLjU1NzMzMiA5MS40ODAwOTYsMCA4Mi4xNzM3OTYsMCA2NC42NzY0MzcsMCA0OC40Mzk5NCw1LjQ5NTI5MiAzNS4wOTkzMiwxNC44NTA4NjEgWiBNIDEyMi43OTAzNiwxNDAuMDU3NCBjIC0xMS40ODI4Niw4LjA2MjMgLTI1LjQ4NjE3NCwxMi43OTAxMiAtNDAuNjE2NTY0LDEyLjc5MDExIC03LjI4NTE4OSwwIC0xNC4zMDc5NSwtMS4wOTg1OCAtMjAuOTE1MDAzLC0zLjEzNTIxIC0xLjM0OTc5LDMuNjc4NzYgLTMuMjg0MjYyLDcuMTE1NjUgLTUuNzI4ODUxLDEwLjE3ODE5IDguMzYxNTE2LDIuODc0MjYgMTcuMzE4NTU5LDQuNDU3MDkgMjYuNjQzODU0LDQuNDU3MSAxNy40OTQ3OSwwIDMzLjcyOTA5NCwtNS40OTM2OCA0Ny4wNjg2MDQsLTE0Ljg0Njc0IHogbSAyNy4xMzQyMiwtMTEuNDI1MTUgYyA5LjA5NTAzLC0xMy4yMjMwNyAxNC40MjMwMSwtMjkuMjI5NTI3IDE0LjQyMzAxLC00Ni40NTg0NTcgMCwtOS4yNTU0MSAtMS41MzkxNywtMTguMTU3MiAtNC4zNzIzNCwtMjYuNDY1MDUgLTMuMDUxMzIsMi40ODkxOCAtNi40ODYwMiw0LjQ2NzE3IC0xMC4xNzA0NCw1Ljg1NzAxIDEuOTc2NTMsNi41MTc2NSAzLjA0MjcxLDEzLjQzNTM4IDMuMDQyNzEsMjAuNjA4MDQgMCwxNS4wODgxNCAtNC43MDE0NSwyOS4wNTU0NzcgLTEyLjcyMjY0LDQwLjUyMDI5NyB6IiBzdHlsZT0iY29sb3I6IzAwMDAwMDtvcGFjaXR5OjE7ZmlsbDojNDI4NWY0O2ZpbGwtb3BhY2l0eToxOy1pbmtzY2FwZS1zdHJva2U6bm9uZSIvPiYjeGE7ICA8cGF0aCBkPSJNIDEwNi4wMDc4LDgyLjY0Njc2MyBBIDIzLjc1ODk3NiwyMy43NTg5NzYgMCAwIDEgODIuMjQ4ODE2LDEwNi40MDU3NCAyMy43NTg5NzYsMjMuNzU4OTc2IDAgMCAxIDU4LjQ4OTg0LDgyLjY0Njc2MyAyMy43NTg5NzYsMjMuNzU4OTc2IDAgMCAxIDgyLjI0ODgxNiw1OC44ODc3ODMgMjMuNzU4OTc2LDIzLjc1ODk3NiAwIDAgMSAxMDYuMDA3OCw4Mi42NDY3NjMgWiIgc3R5bGU9ImNvbG9yOiMwMDAwMDA7b3BhY2l0eToxO2ZpbGw6IzY2OWRmNjtmaWxsLW9wYWNpdHk6MTtzdHJva2Utd2lkdGg6MTEuNTtzdHJva2UtbGluZWNhcDpyb3VuZDstaW5rc2NhcGUtc3Ryb2tlOm5vbmUiLz4mI3hhOyAgPHBhdGggZD0ibSAxMzYuODc4OTQsMTE3LjEzNDc4IGMgLTExLjA1Nzc1LDAgLTIwLjE0NDU0LDkuMDg4NzQgLTIwLjE0NDUzLDIwLjE0NjQ5IDAsMTEuMDU3NzQgOS4wODY3OSwyMC4xNDQ1MyAyMC4xNDQ1MywyMC4xNDQ1MyAxMS4wNTc3MywwIDIwLjE0NjQ4LC05LjA4NjggMjAuMTQ2NDgsLTIwLjE0NDUzIDFlLTUsLTExLjA1Nzc0IC05LjA4ODc0LC0yMC4xNDY0OCAtMjAuMTQ2NDgsLTIwLjE0NjQ5IHogbSAwLDExLjUgYyA0Ljg0MjY4LDAgOC42NDY0OSwzLjgwMzggOC42NDY0OCw4LjY0NjQ5IDAsNC44NDI2OCAtMy44MDM4LDguNjQ0NTMgLTguNjQ2NDgsOC42NDQ1MyAtNC44NDI2OCwwIC04LjY0NDUzLC0zLjgwMTg1IC04LjY0NDUzLC04LjY0NDUzIDAsLTQuODQyNjkgMy44MDE4NCwtOC42NDY0OSA4LjY0NDUzLC04LjY0NjQ5IHogTSAyNy4wOTU3MzIsMTE2Ljk3NDYzIGMgLTExLjA1NzczNiwwIC0yMC4xNDQ1MjgsOS4wODY3OSAtMjAuMTQ0NTMxLDIwLjE0NDUzIC01ZS02LDExLjA1Nzc0IDkuMDg2NzksMjAuMTQ2NDggMjAuMTQ0NTMxLDIwLjE0NjQ4IDExLjA1Nzc0MiwwIDIwLjE0NjQ4OSwtOS4wODg3NCAyMC4xNDY0ODUsLTIwLjE0NjQ4IC0zZS02LC0xMS4wNTc3NCAtOS4wODg3NDgsLTIwLjE0NDUzIC0yMC4xNDY0ODUsLTIwLjE0NDUzIHogbSAwLDExLjUgYyA0Ljg0MjY4MiwwIDguNjQ2NDgzLDMuODAxODUgOC42NDY0ODUsOC42NDQ1MyAyZS02LDQuODQyNjggLTMuODAzOCw4LjY0NjQ4IC04LjY0NjQ4NSw4LjY0NjQ4IC00Ljg0MjY4NCwwIC04LjY0NDUzMywtMy44MDM4IC04LjY0NDUzMSwtOC42NDY0OCAxMGUtNywtNC44NDI2OCAzLjgwMTg0OSwtOC42NDQ1MyA4LjY0NDUzMSwtOC42NDQ1MyB6IE0gMTM2Ljk0MTQ0LDcuMzQzNzcgYyAtMTEuMDU3NzQsM2UtNiAtMjAuMTQ2NDksOS4wODY3OTUgLTIwLjE0NjQ5LDIwLjE0NDUzMSAwLDExLjA1Nzc0MiA5LjA4ODc1LDIwLjE0NjQ4MiAyMC4xNDY0OSwyMC4xNDY0ODIgMTEuMDU3NzQsMWUtNSAyMC4xNDQ1MywtOS4wODg3NCAyMC4xNDQ1MywtMjAuMTQ2NDgyIDAsLTExLjA1Nzc0MSAtOS4wODY3OSwtMjAuMTQ0NTM2IC0yMC4xNDQ1MywtMjAuMTQ0NTMxIHogbSAwLDExLjUgYyA0Ljg0MjY4LC0yZS02IDguNjQ0NTMsMy44MDE4NDcgOC42NDQ1Myw4LjY0NDUzMSAwLDQuODQyNjg1IC0zLjgwMTg1LDguNjQ2NDgyIC04LjY0NDUzLDguNjQ2NDgyIC00Ljg0MjY4LDAgLTguNjQ2NDksLTMuODAzNzk5IC04LjY0NjQ5LC04LjY0NjQ4MiAwLC00Ljg0MjY4MiAzLjgwMzgxLC04LjY0NDUzIDguNjQ2NDksLTguNjQ0NTMxIHogTSAyNy4wODk4NzMsNy40Mzc1MiBjIC0xMS4wNTc3MzksLTFlLTYgLTIwLjE0NDUzMSw5LjA4Njc5MiAtMjAuMTQ0NTMxLDIwLjE0NDUzMSAyZS02LDExLjA1Nzc0MiA5LjA4Njc5NCwyMC4xNDQ1MzIgMjAuMTQ0NTMxLDIwLjE0NDUzMiAxMS4wNTc3MzYsMCAyMC4xNDY0ODIsLTkuMDg2OCAyMC4xNDY0ODQsLTIwLjE0NDUzMiAwLC0xMS4wNTc3MzggLTkuMDg4NzQ2LC0yMC4xNDQ1MzEgLTIwLjE0NjQ4NCwtMjAuMTQ0NTMxIHogbSAwLDExLjUgYyA0Ljg0MjY4MywwIDguNjQ2NDg0LDMuODAxODQ4IDguNjQ2NDg0LDguNjQ0NTMxIC0xMGUtNyw0Ljg0MjY4MiAtMy44MDM4MDIsOC42NDQ1MzIgLTguNjQ2NDg0LDguNjQ0NTMyIC00Ljg0MjY4MywwIC04LjY0NDUzLC0zLjgwMTg0OSAtOC42NDQ1MzEsLTguNjQ0NTMyIDAsLTQuODQyNjgzIDMuODAxODQ4LC04LjY0NDUzMSA4LjY0NDUzMSwtOC42NDQ1MzEgeiIgc3R5bGU9ImNvbG9yOiMwMDAwMDA7b3BhY2l0eToxO2ZpbGw6I2FlY2JmYTtmaWxsLW9wYWNpdHk6MTtzdHJva2UtbGluZWNhcDpyb3VuZDstaW5rc2NhcGUtc3Ryb2tlOm5vbmUiLz4mI3hhOzwvc3ZnPg==;" vertex="1" parent="1">
          <mxGeometry x="-178" y="574" width="42" height="42" as="geometry" />
        </mxCell>
        <mxCell id="24Erfylf1hh-AoZqiBdx-29" style="edgeStyle=none;curved=1;rounded=0;orthogonalLoop=1;jettySize=auto;html=1;entryX=1;entryY=0.5;entryDx=0;entryDy=0;fontSize=12;startSize=8;endSize=8;exitX=0.149;exitY=1.011;exitDx=0;exitDy=0;exitPerimeter=0;" edge="1" parent="1" source="32gzXy14Mf4yD-74WN9M-6" target="24Erfylf1hh-AoZqiBdx-41">
          <mxGeometry relative="1" as="geometry">
            <mxPoint x="-392.80303030303" y="640.0000000000003" as="sourcePoint" />
          </mxGeometry>
        </mxCell>
        <mxCell id="24Erfylf1hh-AoZqiBdx-31" style="edgeStyle=none;curved=1;rounded=0;orthogonalLoop=1;jettySize=auto;html=1;entryX=0;entryY=0.5;entryDx=0;entryDy=0;fontSize=12;startSize=8;endSize=8;exitX=0.75;exitY=1;exitDx=0;exitDy=0;" edge="1" parent="1" source="32gzXy14Mf4yD-74WN9M-6" target="24Erfylf1hh-AoZqiBdx-47">
          <mxGeometry relative="1" as="geometry">
            <mxPoint x="-306" y="620" as="sourcePoint" />
          </mxGeometry>
        </mxCell>
        <mxCell id="24Erfylf1hh-AoZqiBdx-33" style="edgeStyle=none;curved=1;rounded=0;orthogonalLoop=1;jettySize=auto;html=1;entryX=0;entryY=0.5;entryDx=0;entryDy=0;fontSize=12;startSize=8;endSize=8;exitX=0.75;exitY=1;exitDx=0;exitDy=0;" edge="1" parent="1" source="32gzXy14Mf4yD-74WN9M-6" target="24Erfylf1hh-AoZqiBdx-44">
          <mxGeometry relative="1" as="geometry">
            <mxPoint x="-310" y="626" as="sourcePoint" />
          </mxGeometry>
        </mxCell>
        <mxCell id="24Erfylf1hh-AoZqiBdx-37" value="" style="edgeStyle=none;curved=1;rounded=0;orthogonalLoop=1;jettySize=auto;html=1;fontSize=12;startSize=8;endSize=8;" edge="1" parent="1" source="24Erfylf1hh-AoZqiBdx-38" target="24Erfylf1hh-AoZqiBdx-53">
          <mxGeometry relative="1" as="geometry" />
        </mxCell>
        <mxCell id="24Erfylf1hh-AoZqiBdx-38" value="" style="strokeColor=#dddddd;shadow=1;strokeWidth=1;rounded=1;absoluteArcSize=1;arcSize=2;" vertex="1" parent="1">
          <mxGeometry x="-722" y="786.0000000000001" width="202" height="60" as="geometry" />
        </mxCell>
        <mxCell id="24Erfylf1hh-AoZqiBdx-39" value="&lt;font color=&quot;#000000&quot;&gt;API data normalisation&lt;/font&gt;&lt;br&gt;Cloud Run" style="editableCssRules=.*;html=1;fontColor=#999999;shape=image;verticalLabelPosition=middle;verticalAlign=middle;labelPosition=right;align=left;spacingLeft=20;part=1;points=[];imageAspect=0;image=data:image/svg+xml,PHN2ZyB4bWxucz0iaHR0cDovL3d3dy53My5vcmcvMjAwMC9zdmciIHhtbG5zOnY9Imh0dHBzOi8vdmVjdGEuaW8vbmFubyIgd2lkdGg9IjM2NS40NjQ5OTY3NzA0MjQ5MyIgaGVpZ2h0PSIzNzkuMjIyOTk0NDYzNTc3OTUiIHZpZXdCb3g9IjAgMCA5Ni42OTU5OTkxNDU1MDc4MSAxMDAuMzM1OTk4NTM1MTU2MjUiPiYjeGE7PHN0eWxlIHR5cGU9InRleHQvY3NzIj4mI3hhOwkuc3Qwe2ZpbGw6IzQyODVmNDt9JiN4YTsJLnN0MXtmaWxsOiNhZWNiZmE7fSYjeGE7PC9zdHlsZT4mI3hhOwk8cGF0aCBjbGFzcz0ic3QwIiBkPSJNMjkuNzk0IDEwMC4zMzZMNDYuOTIgNTAuMTY4aDQ5Ljc3NnpNMCA5OS42NzFsMTIuOTc2LTQ5LjUwMkgyOS4yMkwxNi44OTcgOTIuMDU0eiIvPiYjeGE7CTxwYXRoIGNsYXNzPSJzdDEiIGQ9Ik0yOS43OTQgMEw0Ni45MiA1MC4xNjhoNDkuNzc2ek0wIC42NjZsMTIuOTc2IDQ5LjUwMkgyOS4yMkwxNi44OTcgOC4yODN6Ii8+JiN4YTs8L3N2Zz4=;" vertex="1" parent="24Erfylf1hh-AoZqiBdx-38">
          <mxGeometry width="30" height="30" relative="1" as="geometry">
            <mxPoint x="15" y="15" as="offset" />
          </mxGeometry>
        </mxCell>
        <mxCell id="24Erfylf1hh-AoZqiBdx-40" style="edgeStyle=none;curved=1;rounded=0;orthogonalLoop=1;jettySize=auto;html=1;entryX=1;entryY=0.5;entryDx=0;entryDy=0;fontSize=12;startSize=8;endSize=8;" edge="1" parent="1" source="24Erfylf1hh-AoZqiBdx-41" target="24Erfylf1hh-AoZqiBdx-51">
          <mxGeometry relative="1" as="geometry" />
        </mxCell>
        <mxCell id="24Erfylf1hh-AoZqiBdx-41" value="" style="strokeColor=#dddddd;shadow=1;strokeWidth=1;rounded=1;absoluteArcSize=1;arcSize=2;" vertex="1" parent="1">
          <mxGeometry x="-673" y="679.0000000000001" width="153" height="60" as="geometry" />
        </mxCell>
        <mxCell id="24Erfylf1hh-AoZqiBdx-42" value="&lt;font color=&quot;#000000&quot;&gt;API video cut&lt;/font&gt;&lt;br&gt;Cloud Run" style="editableCssRules=.*;html=1;fontColor=#999999;shape=image;verticalLabelPosition=middle;verticalAlign=middle;labelPosition=right;align=left;spacingLeft=20;part=1;points=[];imageAspect=0;image=data:image/svg+xml,PHN2ZyB4bWxucz0iaHR0cDovL3d3dy53My5vcmcvMjAwMC9zdmciIHhtbG5zOnY9Imh0dHBzOi8vdmVjdGEuaW8vbmFubyIgd2lkdGg9IjM2NS40NjQ5OTY3NzA0MjQ5MyIgaGVpZ2h0PSIzNzkuMjIyOTk0NDYzNTc3OTUiIHZpZXdCb3g9IjAgMCA5Ni42OTU5OTkxNDU1MDc4MSAxMDAuMzM1OTk4NTM1MTU2MjUiPiYjeGE7PHN0eWxlIHR5cGU9InRleHQvY3NzIj4mI3hhOwkuc3Qwe2ZpbGw6IzQyODVmNDt9JiN4YTsJLnN0MXtmaWxsOiNhZWNiZmE7fSYjeGE7PC9zdHlsZT4mI3hhOwk8cGF0aCBjbGFzcz0ic3QwIiBkPSJNMjkuNzk0IDEwMC4zMzZMNDYuOTIgNTAuMTY4aDQ5Ljc3NnpNMCA5OS42NzFsMTIuOTc2LTQ5LjUwMkgyOS4yMkwxNi44OTcgOTIuMDU0eiIvPiYjeGE7CTxwYXRoIGNsYXNzPSJzdDEiIGQ9Ik0yOS43OTQgMEw0Ni45MiA1MC4xNjhoNDkuNzc2ek0wIC42NjZsMTIuOTc2IDQ5LjUwMkgyOS4yMkwxNi44OTcgOC4yODN6Ii8+JiN4YTs8L3N2Zz4=;" vertex="1" parent="24Erfylf1hh-AoZqiBdx-41">
          <mxGeometry width="30" height="30" relative="1" as="geometry">
            <mxPoint x="15" y="15" as="offset" />
          </mxGeometry>
        </mxCell>
        <mxCell id="24Erfylf1hh-AoZqiBdx-43" value="" style="edgeStyle=none;curved=1;rounded=0;orthogonalLoop=1;jettySize=auto;html=1;fontSize=12;startSize=8;endSize=8;" edge="1" parent="1" source="24Erfylf1hh-AoZqiBdx-44" target="24Erfylf1hh-AoZqiBdx-57">
          <mxGeometry relative="1" as="geometry" />
        </mxCell>
        <mxCell id="24Erfylf1hh-AoZqiBdx-44" value="" style="strokeColor=#dddddd;shadow=1;strokeWidth=1;rounded=1;absoluteArcSize=1;arcSize=2;" vertex="1" parent="1">
          <mxGeometry x="-146" y="786.0000000000001" width="164" height="60" as="geometry" />
        </mxCell>
        <mxCell id="24Erfylf1hh-AoZqiBdx-45" value="&lt;font color=&quot;#000000&quot;&gt;API team report&lt;/font&gt;&lt;br&gt;Cloud Run" style="editableCssRules=.*;html=1;fontColor=#999999;shape=image;verticalLabelPosition=middle;verticalAlign=middle;labelPosition=right;align=left;spacingLeft=20;part=1;points=[];imageAspect=0;image=data:image/svg+xml,PHN2ZyB4bWxucz0iaHR0cDovL3d3dy53My5vcmcvMjAwMC9zdmciIHhtbG5zOnY9Imh0dHBzOi8vdmVjdGEuaW8vbmFubyIgd2lkdGg9IjM2NS40NjQ5OTY3NzA0MjQ5MyIgaGVpZ2h0PSIzNzkuMjIyOTk0NDYzNTc3OTUiIHZpZXdCb3g9IjAgMCA5Ni42OTU5OTkxNDU1MDc4MSAxMDAuMzM1OTk4NTM1MTU2MjUiPiYjeGE7PHN0eWxlIHR5cGU9InRleHQvY3NzIj4mI3hhOwkuc3Qwe2ZpbGw6IzQyODVmNDt9JiN4YTsJLnN0MXtmaWxsOiNhZWNiZmE7fSYjeGE7PC9zdHlsZT4mI3hhOwk8cGF0aCBjbGFzcz0ic3QwIiBkPSJNMjkuNzk0IDEwMC4zMzZMNDYuOTIgNTAuMTY4aDQ5Ljc3NnpNMCA5OS42NzFsMTIuOTc2LTQ5LjUwMkgyOS4yMkwxNi44OTcgOTIuMDU0eiIvPiYjeGE7CTxwYXRoIGNsYXNzPSJzdDEiIGQ9Ik0yOS43OTQgMEw0Ni45MiA1MC4xNjhoNDkuNzc2ek0wIC42NjZsMTIuOTc2IDQ5LjUwMkgyOS4yMkwxNi44OTcgOC4yODN6Ii8+JiN4YTs8L3N2Zz4=;" vertex="1" parent="24Erfylf1hh-AoZqiBdx-44">
          <mxGeometry width="30" height="30" relative="1" as="geometry">
            <mxPoint x="15" y="15" as="offset" />
          </mxGeometry>
        </mxCell>
        <mxCell id="24Erfylf1hh-AoZqiBdx-46" value="" style="edgeStyle=none;curved=1;rounded=0;orthogonalLoop=1;jettySize=auto;html=1;fontSize=12;startSize=8;endSize=8;" edge="1" parent="1" source="24Erfylf1hh-AoZqiBdx-47" target="24Erfylf1hh-AoZqiBdx-56">
          <mxGeometry relative="1" as="geometry" />
        </mxCell>
        <mxCell id="24Erfylf1hh-AoZqiBdx-47" value="" style="strokeColor=#dddddd;shadow=1;strokeWidth=1;rounded=1;absoluteArcSize=1;arcSize=2;" vertex="1" parent="1">
          <mxGeometry x="-146" y="679.0000000000001" width="174" height="60" as="geometry" />
        </mxCell>
        <mxCell id="24Erfylf1hh-AoZqiBdx-48" value="&lt;font color=&quot;#000000&quot;&gt;API players report&lt;/font&gt;&lt;br&gt;Cloud Run" style="editableCssRules=.*;html=1;fontColor=#999999;shape=image;verticalLabelPosition=middle;verticalAlign=middle;labelPosition=right;align=left;spacingLeft=20;part=1;points=[];imageAspect=0;image=data:image/svg+xml,PHN2ZyB4bWxucz0iaHR0cDovL3d3dy53My5vcmcvMjAwMC9zdmciIHhtbG5zOnY9Imh0dHBzOi8vdmVjdGEuaW8vbmFubyIgd2lkdGg9IjM2NS40NjQ5OTY3NzA0MjQ5MyIgaGVpZ2h0PSIzNzkuMjIyOTk0NDYzNTc3OTUiIHZpZXdCb3g9IjAgMCA5Ni42OTU5OTkxNDU1MDc4MSAxMDAuMzM1OTk4NTM1MTU2MjUiPiYjeGE7PHN0eWxlIHR5cGU9InRleHQvY3NzIj4mI3hhOwkuc3Qwe2ZpbGw6IzQyODVmNDt9JiN4YTsJLnN0MXtmaWxsOiNhZWNiZmE7fSYjeGE7PC9zdHlsZT4mI3hhOwk8cGF0aCBjbGFzcz0ic3QwIiBkPSJNMjkuNzk0IDEwMC4zMzZMNDYuOTIgNTAuMTY4aDQ5Ljc3NnpNMCA5OS42NzFsMTIuOTc2LTQ5LjUwMkgyOS4yMkwxNi44OTcgOTIuMDU0eiIvPiYjeGE7CTxwYXRoIGNsYXNzPSJzdDEiIGQ9Ik0yOS43OTQgMEw0Ni45MiA1MC4xNjhoNDkuNzc2ek0wIC42NjZsMTIuOTc2IDQ5LjUwMkgyOS4yMkwxNi44OTcgOC4yODN6Ii8+JiN4YTs8L3N2Zz4=;" vertex="1" parent="24Erfylf1hh-AoZqiBdx-47">
          <mxGeometry width="30" height="30" relative="1" as="geometry">
            <mxPoint x="15" y="15" as="offset" />
          </mxGeometry>
        </mxCell>
        <mxCell id="24Erfylf1hh-AoZqiBdx-49" style="edgeStyle=none;curved=1;rounded=0;orthogonalLoop=1;jettySize=auto;html=1;entryX=0.99;entryY=0.617;entryDx=0;entryDy=0;entryPerimeter=0;fontSize=12;startSize=8;endSize=8;exitX=0.141;exitY=0.998;exitDx=0;exitDy=0;exitPerimeter=0;" edge="1" parent="1" source="32gzXy14Mf4yD-74WN9M-6" target="24Erfylf1hh-AoZqiBdx-38">
          <mxGeometry relative="1" as="geometry">
            <mxPoint x="-409" y="627" as="sourcePoint" />
          </mxGeometry>
        </mxCell>
        <mxCell id="24Erfylf1hh-AoZqiBdx-51" value="" style="strokeColor=#dddddd;shadow=1;strokeWidth=1;rounded=1;absoluteArcSize=1;arcSize=2;" vertex="1" parent="1">
          <mxGeometry x="-1008" y="679.0000000000001" width="225" height="60" as="geometry" />
        </mxCell>
        <mxCell id="24Erfylf1hh-AoZqiBdx-52" value="&lt;div&gt;&lt;font color=&quot;#000000&quot;&gt;two_half/mach_id_H1.mp4&lt;br&gt;&lt;/font&gt;&lt;/div&gt;&lt;div&gt;&lt;font color=&quot;#000000&quot;&gt;two_half/match_id_H2.mp4&lt;br&gt;&lt;/font&gt;&lt;/div&gt;video-to-pipeline" style="editableCssRules=.*;html=1;fontColor=#999999;shape=image;verticalLabelPosition=middle;verticalAlign=middle;labelPosition=right;align=left;spacingLeft=20;part=1;points=[];imageAspect=0;image=data:image/svg+xml,PHN2ZyB4bWxucz0iaHR0cDovL3d3dy53My5vcmcvMjAwMC9zdmciIHhtbG5zOnY9Imh0dHBzOi8vdmVjdGEuaW8vbmFubyIgd2lkdGg9IjIwIiBoZWlnaHQ9IjE2IiB2aWV3Qm94PSIwIDAgMjAgMTYiPiYjeGE7CTxzdHlsZSB0eXBlPSJ0ZXh0L2NzcyI+JiN4YTsJLnN0MHtmaWxsOiM0Mjg1ZjQ7fSYjeGE7CS5zdDF7ZmlsbDojNjY5ZGY2O30mI3hhOwkuc3Qye2ZpbGw6I2FlY2JmYTt9JiN4YTsJLnN0M3tmaWxsOiNmZmY7fSYjeGE7CTwvc3R5bGU+JiN4YTsJPHBhdGggY2xhc3M9InN0MiIgZD0iTTAgMGgyMHY3SDB6Ii8+JiN4YTsJPHBhdGggY2xhc3M9InN0MSIgZD0iTTE4IDBoMnY3aC0yeiIvPiYjeGE7CTxwYXRoIGNsYXNzPSJzdDAiIGQ9Ik0xOCA3bDItN2gtMnoiLz4mI3hhOwk8cGF0aCBjbGFzcz0ic3QxIiBkPSJNMCAwaDJ2N0gweiIvPiYjeGE7CTxnIGNsYXNzPSJzdDMiPiYjeGE7CQk8cGF0aCBkPSJNNCAzaDZ2MUg0eiIvPiYjeGE7CQk8cmVjdCB4PSIxMyIgeT0iMiIgd2lkdGg9IjMiIGhlaWdodD0iMyIgcng9IjEuNSIvPiYjeGE7CTwvZz4mI3hhOwk8cGF0aCBjbGFzcz0ic3QyIiBkPSJNMCA5aDIwdjdIMHoiLz4mI3hhOwk8cGF0aCBjbGFzcz0ic3QxIiBkPSJNMTggOWgydjdoLTJ6Ii8+JiN4YTsJPHBhdGggY2xhc3M9InN0MCIgZD0iTTE4IDE2bDItN2gtMnoiLz4mI3hhOwk8cGF0aCBjbGFzcz0ic3QxIiBkPSJNMCA5aDJ2N0gweiIvPiYjeGE7CTxnIGNsYXNzPSJzdDMiPiYjeGE7CQk8cGF0aCBkPSJNNCAxMmg2djFINHoiLz4mI3hhOwkJPHJlY3QgeD0iMTMiIHk9IjExIiB3aWR0aD0iMyIgaGVpZ2h0PSIzIiByeD0iMS41Ii8+JiN4YTsJPC9nPiYjeGE7PC9zdmc+;" vertex="1" parent="24Erfylf1hh-AoZqiBdx-51">
          <mxGeometry width="30" height="24" relative="1" as="geometry">
            <mxPoint x="15" y="18" as="offset" />
          </mxGeometry>
        </mxCell>
        <mxCell id="24Erfylf1hh-AoZqiBdx-53" value="" style="dashed=0;outlineConnect=0;html=1;align=center;labelPosition=center;verticalLabelPosition=bottom;verticalAlign=top;shape=mxgraph.webicons.mongodb;gradientColor=#DFDEDE" vertex="1" parent="1">
          <mxGeometry x="-843" y="786.0000000000001" width="60" height="60" as="geometry" />
        </mxCell>
        <mxCell id="24Erfylf1hh-AoZqiBdx-54" value="&lt;div align=&quot;center&quot;&gt;&lt;font style=&quot;font-size: 16px;&quot;&gt;&lt;b&gt;1&lt;/b&gt;&lt;/font&gt;&lt;/div&gt;" style="ellipse;whiteSpace=wrap;html=1;aspect=fixed;align=center;" vertex="1" parent="1">
          <mxGeometry x="-473" y="667.0000000000001" width="27" height="27" as="geometry" />
        </mxCell>
        <mxCell id="24Erfylf1hh-AoZqiBdx-55" value="&lt;div align=&quot;center&quot;&gt;&lt;b&gt;2&lt;/b&gt;&lt;/div&gt;" style="ellipse;whiteSpace=wrap;html=1;aspect=fixed;align=center;" vertex="1" parent="1">
          <mxGeometry x="-247" y="667.0000000000001" width="27" height="27" as="geometry" />
        </mxCell>
        <mxCell id="24Erfylf1hh-AoZqiBdx-56" value="" style="dashed=0;outlineConnect=0;html=1;align=center;labelPosition=center;verticalLabelPosition=bottom;verticalAlign=top;shape=mxgraph.webicons.mongodb;gradientColor=#DFDEDE" vertex="1" parent="1">
          <mxGeometry x="101" y="679.0000000000001" width="60" height="60" as="geometry" />
        </mxCell>
        <mxCell id="24Erfylf1hh-AoZqiBdx-57" value="" style="dashed=0;outlineConnect=0;html=1;align=center;labelPosition=center;verticalLabelPosition=bottom;verticalAlign=top;shape=mxgraph.webicons.mongodb;gradientColor=#DFDEDE" vertex="1" parent="1">
          <mxGeometry x="101" y="786.0000000000001" width="60" height="60" as="geometry" />
        </mxCell>
        <mxCell id="32gzXy14Mf4yD-74WN9M-5" style="edgeStyle=none;curved=1;rounded=0;orthogonalLoop=1;jettySize=auto;html=1;entryX=0;entryY=0.5;entryDx=0;entryDy=0;fontSize=12;startSize=8;endSize=8;" edge="1" parent="1" source="32gzXy14Mf4yD-74WN9M-3" target="24Erfylf1hh-AoZqiBdx-11">
          <mxGeometry relative="1" as="geometry" />
        </mxCell>
        <mxCell id="32gzXy14Mf4yD-74WN9M-8" style="edgeStyle=none;curved=1;rounded=0;orthogonalLoop=1;jettySize=auto;html=1;entryX=0.5;entryY=0;entryDx=0;entryDy=0;fontSize=12;startSize=8;endSize=8;dashed=1;endArrow=none;startFill=0;" edge="1" parent="1" source="32gzXy14Mf4yD-74WN9M-3" target="32gzXy14Mf4yD-74WN9M-6">
          <mxGeometry relative="1" as="geometry" />
        </mxCell>
        <mxCell id="32gzXy14Mf4yD-74WN9M-3" value="" style="strokeColor=#dddddd;shadow=1;strokeWidth=1;rounded=1;absoluteArcSize=1;arcSize=2;" vertex="1" parent="1">
          <mxGeometry x="-434" y="293" width="168" height="57" as="geometry" />
        </mxCell>
        <mxCell id="32gzXy14Mf4yD-74WN9M-4" value="&lt;font color=&quot;#000000&quot;&gt;Orchestrator&lt;/font&gt;&lt;br&gt;Cloud Run" style="editableCssRules=.*;html=1;fontColor=#999999;shape=image;verticalLabelPosition=middle;verticalAlign=middle;labelPosition=right;align=left;spacingLeft=20;part=1;points=[];imageAspect=0;image=data:image/svg+xml,PHN2ZyB4bWxucz0iaHR0cDovL3d3dy53My5vcmcvMjAwMC9zdmciIHhtbG5zOnY9Imh0dHBzOi8vdmVjdGEuaW8vbmFubyIgd2lkdGg9IjM2NS40NjQ5OTY3NzA0MjQ5MyIgaGVpZ2h0PSIzNzkuMjIyOTk0NDYzNTc3OTUiIHZpZXdCb3g9IjAgMCA5Ni42OTU5OTkxNDU1MDc4MSAxMDAuMzM1OTk4NTM1MTU2MjUiPiYjeGE7PHN0eWxlIHR5cGU9InRleHQvY3NzIj4mI3hhOwkuc3Qwe2ZpbGw6IzQyODVmNDt9JiN4YTsJLnN0MXtmaWxsOiNhZWNiZmE7fSYjeGE7PC9zdHlsZT4mI3hhOwk8cGF0aCBjbGFzcz0ic3QwIiBkPSJNMjkuNzk0IDEwMC4zMzZMNDYuOTIgNTAuMTY4aDQ5Ljc3NnpNMCA5OS42NzFsMTIuOTc2LTQ5LjUwMkgyOS4yMkwxNi44OTcgOTIuMDU0eiIvPiYjeGE7CTxwYXRoIGNsYXNzPSJzdDEiIGQ9Ik0yOS43OTQgMEw0Ni45MiA1MC4xNjhoNDkuNzc2ek0wIC42NjZsMTIuOTc2IDQ5LjUwMkgyOS4yMkwxNi44OTcgOC4yODN6Ii8+JiN4YTs8L3N2Zz4=;" vertex="1" parent="32gzXy14Mf4yD-74WN9M-3">
          <mxGeometry width="30" height="30" relative="1" as="geometry">
            <mxPoint x="15" y="15" as="offset" />
          </mxGeometry>
        </mxCell>
        <mxCell id="32gzXy14Mf4yD-74WN9M-6" value="" style="strokeColor=#dddddd;shadow=1;strokeWidth=1;rounded=1;absoluteArcSize=1;arcSize=2;" vertex="1" parent="1">
          <mxGeometry x="-432.5" y="566.5" width="168" height="57" as="geometry" />
        </mxCell>
        <mxCell id="32gzXy14Mf4yD-74WN9M-7" value="&lt;font color=&quot;#000000&quot;&gt;Orchestrator&lt;/font&gt;&lt;br&gt;Cloud Run" style="editableCssRules=.*;html=1;fontColor=#999999;shape=image;verticalLabelPosition=middle;verticalAlign=middle;labelPosition=right;align=left;spacingLeft=20;part=1;points=[];imageAspect=0;image=data:image/svg+xml,PHN2ZyB4bWxucz0iaHR0cDovL3d3dy53My5vcmcvMjAwMC9zdmciIHhtbG5zOnY9Imh0dHBzOi8vdmVjdGEuaW8vbmFubyIgd2lkdGg9IjM2NS40NjQ5OTY3NzA0MjQ5MyIgaGVpZ2h0PSIzNzkuMjIyOTk0NDYzNTc3OTUiIHZpZXdCb3g9IjAgMCA5Ni42OTU5OTkxNDU1MDc4MSAxMDAuMzM1OTk4NTM1MTU2MjUiPiYjeGE7PHN0eWxlIHR5cGU9InRleHQvY3NzIj4mI3hhOwkuc3Qwe2ZpbGw6IzQyODVmNDt9JiN4YTsJLnN0MXtmaWxsOiNhZWNiZmE7fSYjeGE7PC9zdHlsZT4mI3hhOwk8cGF0aCBjbGFzcz0ic3QwIiBkPSJNMjkuNzk0IDEwMC4zMzZMNDYuOTIgNTAuMTY4aDQ5Ljc3NnpNMCA5OS42NzFsMTIuOTc2LTQ5LjUwMkgyOS4yMkwxNi44OTcgOTIuMDU0eiIvPiYjeGE7CTxwYXRoIGNsYXNzPSJzdDEiIGQ9Ik0yOS43OTQgMEw0Ni45MiA1MC4xNjhoNDkuNzc2ek0wIC42NjZsMTIuOTc2IDQ5LjUwMkgyOS4yMkwxNi44OTcgOC4yODN6Ii8+JiN4YTs8L3N2Zz4=;" vertex="1" parent="32gzXy14Mf4yD-74WN9M-6">
          <mxGeometry width="30" height="30" relative="1" as="geometry">
            <mxPoint x="15" y="15" as="offset" />
          </mxGeometry>
        </mxCell>
        <mxCell id="wJG9dDJHgOqIVjIkutic-8" style="edgeStyle=none;curved=1;rounded=0;orthogonalLoop=1;jettySize=auto;html=1;entryX=0.5;entryY=0;entryDx=0;entryDy=0;fontSize=12;startSize=8;endSize=8;" edge="1" parent="1" source="wJG9dDJHgOqIVjIkutic-1" target="wJG9dDJHgOqIVjIkutic-5">
          <mxGeometry relative="1" as="geometry" />
        </mxCell>
        <mxCell id="wJG9dDJHgOqIVjIkutic-1" value="" style="strokeColor=#dddddd;shadow=1;strokeWidth=1;rounded=1;absoluteArcSize=1;arcSize=2;" vertex="1" parent="1">
          <mxGeometry x="-16" y="-133" width="168" height="57" as="geometry" />
        </mxCell>
        <mxCell id="wJG9dDJHgOqIVjIkutic-2" value="&lt;font color=&quot;#000000&quot;&gt;Orchestrator&lt;/font&gt;&lt;br&gt;Cloud Run" style="editableCssRules=.*;html=1;fontColor=#999999;shape=image;verticalLabelPosition=middle;verticalAlign=middle;labelPosition=right;align=left;spacingLeft=20;part=1;points=[];imageAspect=0;image=data:image/svg+xml,PHN2ZyB4bWxucz0iaHR0cDovL3d3dy53My5vcmcvMjAwMC9zdmciIHhtbG5zOnY9Imh0dHBzOi8vdmVjdGEuaW8vbmFubyIgd2lkdGg9IjM2NS40NjQ5OTY3NzA0MjQ5MyIgaGVpZ2h0PSIzNzkuMjIyOTk0NDYzNTc3OTUiIHZpZXdCb3g9IjAgMCA5Ni42OTU5OTkxNDU1MDc4MSAxMDAuMzM1OTk4NTM1MTU2MjUiPiYjeGE7PHN0eWxlIHR5cGU9InRleHQvY3NzIj4mI3hhOwkuc3Qwe2ZpbGw6IzQyODVmNDt9JiN4YTsJLnN0MXtmaWxsOiNhZWNiZmE7fSYjeGE7PC9zdHlsZT4mI3hhOwk8cGF0aCBjbGFzcz0ic3QwIiBkPSJNMjkuNzk0IDEwMC4zMzZMNDYuOTIgNTAuMTY4aDQ5Ljc3NnpNMCA5OS42NzFsMTIuOTc2LTQ5LjUwMkgyOS4yMkwxNi44OTcgOTIuMDU0eiIvPiYjeGE7CTxwYXRoIGNsYXNzPSJzdDEiIGQ9Ik0yOS43OTQgMEw0Ni45MiA1MC4xNjhoNDkuNzc2ek0wIC42NjZsMTIuOTc2IDQ5LjUwMkgyOS4yMkwxNi44OTcgOC4yODN6Ii8+JiN4YTs8L3N2Zz4=;" vertex="1" parent="wJG9dDJHgOqIVjIkutic-1">
          <mxGeometry width="30" height="30" relative="1" as="geometry">
            <mxPoint x="15" y="15" as="offset" />
          </mxGeometry>
        </mxCell>
        <mxCell id="wJG9dDJHgOqIVjIkutic-9" style="edgeStyle=none;curved=1;rounded=0;orthogonalLoop=1;jettySize=auto;html=1;fontSize=12;startSize=8;endSize=8;" edge="1" parent="1" source="wJG9dDJHgOqIVjIkutic-5" target="24Erfylf1hh-AoZqiBdx-5">
          <mxGeometry relative="1" as="geometry" />
        </mxCell>
        <mxCell id="wJG9dDJHgOqIVjIkutic-5" value="" style="strokeColor=#dddddd;shadow=1;strokeWidth=1;rounded=1;absoluteArcSize=1;arcSize=2;" vertex="1" parent="1">
          <mxGeometry x="-20" y="1" width="176" height="58" as="geometry" />
        </mxCell>
        <mxCell id="wJG9dDJHgOqIVjIkutic-6" value="&lt;div&gt;&lt;font color=&quot;#000000&quot;&gt;API Scrap video&lt;br&gt;&lt;/font&gt;&lt;/div&gt;&lt;div&gt;Cloud Run&lt;/div&gt;" style="editableCssRules=.*;html=1;fontColor=#999999;shape=image;verticalLabelPosition=middle;verticalAlign=middle;labelPosition=right;align=left;spacingLeft=20;part=1;points=[];imageAspect=0;image=data:image/svg+xml,PHN2ZyB4bWxucz0iaHR0cDovL3d3dy53My5vcmcvMjAwMC9zdmciIHhtbG5zOnY9Imh0dHBzOi8vdmVjdGEuaW8vbmFubyIgd2lkdGg9IjM2NS40NjQ5OTY3NzA0MjQ5MyIgaGVpZ2h0PSIzNzkuMjIyOTk0NDYzNTc3OTUiIHZpZXdCb3g9IjAgMCA5Ni42OTU5OTkxNDU1MDc4MSAxMDAuMzM1OTk4NTM1MTU2MjUiPiYjeGE7PHN0eWxlIHR5cGU9InRleHQvY3NzIj4mI3hhOwkuc3Qwe2ZpbGw6IzQyODVmNDt9JiN4YTsJLnN0MXtmaWxsOiNhZWNiZmE7fSYjeGE7PC9zdHlsZT4mI3hhOwk8cGF0aCBjbGFzcz0ic3QwIiBkPSJNMjkuNzk0IDEwMC4zMzZMNDYuOTIgNTAuMTY4aDQ5Ljc3NnpNMCA5OS42NzFsMTIuOTc2LTQ5LjUwMkgyOS4yMkwxNi44OTcgOTIuMDU0eiIvPiYjeGE7CTxwYXRoIGNsYXNzPSJzdDEiIGQ9Ik0yOS43OTQgMEw0Ni45MiA1MC4xNjhoNDkuNzc2ek0wIC42NjZsMTIuOTc2IDQ5LjUwMkgyOS4yMkwxNi44OTcgOC4yODN6Ii8+JiN4YTs8L3N2Zz4=;" vertex="1" parent="wJG9dDJHgOqIVjIkutic-5">
          <mxGeometry width="30" height="30" relative="1" as="geometry">
            <mxPoint x="15" y="15" as="offset" />
          </mxGeometry>
        </mxCell>
      </root>
    </mxGraphModel>
  </diagram>
</mxfile>
